<?xml version="1.0" standalone="no"?>
<!DOCTYPE svg PUBLIC "-//W3C//DTD SVG 1.1//EN" "http://www.w3.org/Graphics/SVG/1.1/DTD/svg11.dtd" >
<svg xmlns="http://www.w3.org/2000/svg">
<metadata>
This is a custom SVG webfont generated by Font Squirrel.
Designer    : Friedrich Althausen
Foundry     : Friedrich Althausen
Foundry URL : httpfriedrichalthausende
</metadata>
<defs>
<font id="webfont2c9a8Pup" horiz-adv-x="2211" >
<font-face units-per-em="4096" ascent="3072" descent="-1024" />
<missing-glyph horiz-adv-x="819" />
<glyph unicode=" "  horiz-adv-x="819" />
<glyph unicode="&#x09;" horiz-adv-x="819" />
<glyph unicode="&#xa0;" horiz-adv-x="819" />
<glyph unicode="!" horiz-adv-x="1683" d="M1008 2925q74 -25 74 -103q0 -12 -1 -24q-15 -133 -41 -422q-21 -231 -39 -475l-34 -496q-19 -281 -25 -483q-54 0 -98 4q-51 5 -86 20q-15 257 -35 533q-10 133 -37 467q-17 204 -41 428q-22 205 -51 415q32 6 98 25l117 35q41 12 113 37q54 18 86 39zM864 418 q106 0 166 -72t60 -141q0 -123 -74 -180q-75 -58 -168 -58q-110 0 -172 62t-62 155q0 94 70 164t180 70z" />
<glyph unicode="&#x22;" horiz-adv-x="1404" d="M475 2925q83 -19 83 -111q0 -12 -1 -25q-4 -11 -4 -26q0 -16 -4 -31q-21 -163 -33 -350q-12 -186 -33 -420q-37 0 -90 8q-47 7 -69 29q-6 183 -27 426q-18 213 -51 414q57 7 123 30q64 22 106 56zM1077 2925q82 -21 82 -111v-25q-19 -161 -37 -372q-33 -402 -37 -459 q-42 0 -96 8q-49 7 -71 29q-7 190 -25 428q-17 221 -49 416q55 7 123 32q58 21 110 54z" />
<glyph unicode="#" horiz-adv-x="2469" d="M1937 1815l-155 -738h446q0 -59 -8 -102q-7 -40 -41 -98h-438l-193 -910q-76 12 -112 35q-37 24 -68 55l172 820q-201 0 -393 -5h-262l-189 -905q-126 16 -176 107l168 798q-188 0 -287 -4h-180q0 104 49 209h463l156 733h-119q-191 0 -332 -4q0 43 11 101t38 108h443 l196 910q52 -7 101 -27q42 -17 76 -64l-177 -819h660l192 910q122 -24 176 -82l-176 -828h422q0 -58 -8 -104q-7 -42 -41 -96h-414zM1085 1815l-155 -738h655l156 738h-656z" />
<glyph unicode="$" horiz-adv-x="2236" d="M1016 -33q-61 3 -148 13q-102 11 -198 43q-99 32 -185 79q-95 51 -206 123q24 156 30 312t6 270q45 12 107 18t115 6q7 -153 41 -278q33 -123 100 -211q67 -87 178 -137q70 -29 160 -41v1053q-25 13 -49 20q-169 80 -305 182q-143 107 -236 260q-94 155 -94 406 q0 161 55 293q55 133 154 229q100 97 233 146q114 42 242 49v245q59 0 102 -8q39 -7 86 -37q0 -95 -4 -200q151 -12 275 -54q162 -52 249 -122q0 -102 5 -275q5 -163 20 -266q-46 -22 -109 -29q-67 -8 -120 -8q-33 175 -74 289q-41 113 -96 176q-57 64 -125 88q-1 0 -29 8 v-1003l123 -62q169 -80 305 -182q142 -106 236 -252t94 -373q0 -154 -64 -297q-63 -140 -174 -247t-262 -168q-122 -46 -254 -58q4 -171 4 -340q-40 0 -102 13q-60 13 -86 32v295zM1196 1122v-962q75 7 147 33q89 39 144 94q59 59 88 133q31 79 31 162q0 184 -95 299 t-237 196q-38 24 -78 45zM778 1921q96 -116 234 -205l4 -4v909q-140 -17 -225 -102q-107 -107 -107 -303q0 -182 94 -295z" />
<glyph unicode="%" horiz-adv-x="3416" d="M713 -29q-59 34 -97 72q-39 39 -51 80l2265 2687q57 -12 97 -43q33 -25 75 -76zM2564 1274q153 0 264 -55q112 -55 189 -144q74 -86 114 -201q39 -112 39 -223q0 -141 -43 -264q-44 -125 -127 -219q-85 -96 -204 -150q-120 -55 -277 -55q-158 0 -281 53q-118 51 -200 144 q-81 92 -121 202q-41 114 -41 232q0 136 43 258t129 217q85 94 215 150q128 55 301 55zM2507 1102q-62 0 -115 -35q-54 -36 -94 -96q-42 -64 -64 -144q-22 -81 -22 -180q0 -221 90 -366q90 -146 254 -146q48 0 98 29q49 28 90 86t68 143t27 201q0 218 -93 364 q-92 144 -239 144zM1049 2773q149 0 260 -55t188 -144t115 -198q39 -111 39 -222q0 -140 -43 -262q-44 -124 -125 -217t-201 -149t-274 -56q-156 0 -281 54q-121 52 -201 143q-79 89 -118 201q-39 111 -39 229q0 132 43 254t129 217q85 94 213 150q126 55 295 55zM995 2601 q-131 0 -221 -127q-90 -128 -90 -324q0 -221 94 -364q94 -144 262 -144q50 0 103 29q52 28 96 86q43 57 72 141q28 83 28 199q0 222 -96 363t-248 141z" />
<glyph unicode="&#x26;" horiz-adv-x="3039" d="M2343 418q53 -56 96 -88q47 -35 98 -56q47 -19 117 -32t160 -17q0 -46 -4 -90q-4 -49 -21 -94q-57 0 -139 -6q-73 -5 -168 -17q-108 -13 -164 -24q-80 -15 -127 -31q-142 189 -274 344q-28 28 -49 53q-161 -198 -336 -294q-193 -107 -434 -107q-245 0 -414 80 q-167 79 -270 209t-148 289t-45 315q0 155 47 291q46 134 127 250q80 114 191 209q78 66 159 122l-32 58q-64 135 -97 264q-34 132 -34 281q0 114 45 225q44 109 131 196t211 138q125 51 284 51q175 0 301 -35q123 -34 256 -109q-16 -102 -22 -231q-2 -51 -2 -104 q0 -71 4 -144q-47 -20 -109 -26q-70 -7 -108 -7q-17 263 -96 369q-80 107 -248 107q-143 0 -234 -93q-90 -92 -90 -260q0 -87 17 -172t59 -172q42 -86 117 -200q74 -111 192 -258l148 -181l202 -235l289 -326q32 -32 53 -57q105 163 160 287q67 145 99 278q15 60 15 107 q0 79 -42 124q-67 72 -281 117q-13 44 -20 86q-8 48 -8 86q99 -9 200 -10q152 -2 217 -2q64 0 222 2q109 1 188 10q0 -43 -4 -84q-4 -46 -12 -84q-129 -45 -185 -118q-58 -74 -98 -218q-52 -183 -135 -364q-64 -145 -184 -361zM1151 274q185 0 332 66q121 56 250 176 q-50 63 -95 111l-274 313l-279 317q-119 139 -213 267l-49 65q-95 -103 -168 -229q-90 -159 -90 -389q0 -171 47 -301q46 -126 127 -217q80 -89 187 -134q106 -45 225 -45z" />
<glyph unicode="'" horiz-adv-x="811" d="M479 2925q78 -12 86 -99v-37q-24 -180 -39 -372l-34 -463q-48 0 -95 10q-48 10 -69 31q-7 208 -29 428q-22 225 -53 416q55 7 123 32q58 21 110 54z" />
<glyph unicode="(" horiz-adv-x="1191" d="M881 3035q21 3 37 3q28 0 45 -9q29 -15 61 -43q-145 -220 -246 -440q-104 -228 -166 -467q-64 -246 -92 -514q-28 -265 -28 -582q0 -328 32 -596q33 -273 101 -528t172 -486q104 -232 252 -463q-26 -19 -70 -24q-13 -1 -26 -1q-25 0 -52 5q-362 481 -559 987 q-199 511 -199 1106q0 263 41 514q40 247 131 496q89 245 230 504q138 254 336 538z" />
<glyph unicode=")" horiz-adv-x="1191" d="M311 3035q198 -284 336 -538q141 -259 230 -504q91 -249 131 -496q41 -251 41 -514q0 -595 -199 -1106q-197 -506 -559 -987q-24 -5 -49 -5q-13 0 -27 1q-46 5 -72 24q148 231 252 463q104 231 172 486t101 528q32 268 32 596q0 317 -28 582q-28 268 -92 514 q-62 239 -166 467q-101 220 -246 440q29 24 61 39q24 11 59 11q11 0 23 -1z" />
<glyph unicode="*" horiz-adv-x="1814" d="M1163 2720q-58 -131 -106 -264l-103 -289q134 22 283 55q120 27 291 76q25 -54 35 -131q5 -35 5 -68q0 -39 -7 -76q-208 12 -287 15q-101 4 -307 10q69 -135 141 -252l158 -252q-51 -47 -109 -74q-60 -29 -141 -36q-28 123 -72 270l-88 291q-96 -96 -194 -209l-187 -225 q-53 29 -108 84t-76 120l235 152l252 176q-130 66 -258 117l-274 108q12 59 45 127q34 71 90 111q89 -77 217 -176l242 -185q18 123 30 283q13 166 19 295q23 3 50 3q40 0 87 -7q81 -12 137 -49z" />
<glyph unicode="+" horiz-adv-x="2367" d="M1073 569q4 128 4 283v123h-94q-86 0 -268 -2l-273 -4q-180 -2 -254 -2q0 41 11 112t30 97h848v344q0 65 -2 227t-2 281q44 28 94 34q49 6 111 6v-892h897q0 -62 -6 -111q-6 -48 -35 -94q-121 0 -279 2t-221 2h-356v-909q-28 -20 -96 -31q-64 -10 -113 -10q0 76 2 262 t2 282z" />
<glyph unicode="," horiz-adv-x="1060" d="M676 397q139 -52 139 -295q0 -120 -35 -239q-34 -117 -96 -228q-58 -105 -141 -208q-77 -96 -166 -185q-81 0 -131 62q126 143 194 278q68 136 68 242q0 181 -193 205q0 27 7 116q6 80 26 129q88 19 176 50q85 29 152 73z" />
<glyph unicode="-" horiz-adv-x="1716" d="M1470 1225q0 -66 -12 -138q-12 -71 -41 -129q-58 0 -268 -2l-322 -4l-317 -4q-153 -2 -264 -6q0 70 18 150t47 133h1159z" />
<glyph unicode="." horiz-adv-x="966" d="M496 418q106 0 166 -72q59 -71 59 -141q0 -123 -74 -180q-75 -58 -168 -58q-110 0 -172 62q-61 61 -61 155q0 95 69 164q70 70 181 70z" />
<glyph unicode="/" horiz-adv-x="1495" d="M311 -37q-58 21 -106 49q-47 27 -70 58l1057 2850q42 -11 96 -43q52 -31 80 -63z" />
<glyph unicode="0" horiz-adv-x="2461" d="M1126 1864q-143 0 -254 -60t-184 -164q-75 -107 -113 -241q-38 -133 -38 -297q0 -153 55 -311q56 -160 162 -293t256 -217t342 -84q148 0 254 61q107 62 174 166q67 103 100 242q33 136 33 288q0 140 -51 299q-51 160 -152 295q-101 136 -248 226t-336 90zM1245 2073 q199 0 389 -68q187 -67 336 -199q148 -132 238 -323q90 -192 90 -439q0 -244 -86 -446q-85 -200 -230 -342q-144 -141 -335 -217t-402 -76q-214 0 -409 76q-198 77 -347 217q-147 139 -237 342q-88 200 -88 446q0 248 94 439q95 192 248 323q154 132 346 199q193 68 393 68z " />
<glyph unicode="1" horiz-adv-x="1589" d="M979 520q0 -107 14 -170q15 -68 47 -106q34 -40 86 -58q51 -17 136 -22q11 -42 16 -88q4 -39 4 -88q-23 2 -67.5 4.5l-63.5 3.5l-135 4h-221q-66 0 -244 -2q-115 -1 -244 -10q0 49 4 88q4 40 17 88q156 7 219 80q63 72 63 276v1008q0 98 -12 166t-45 108q-35 42 -86 60 q-51 17 -139 22q-21 82 -21 176q49 -4 113 -6l131 -4q90 -2 129 -2h115q88 0 260 2q112 1 227 10q0 -97 -20 -176q-163 -7 -224 -82q-59 -72 -59 -274v-1008z" />
<glyph unicode="2" horiz-adv-x="2199" d="M1139 2073q102 0 213 -27q110 -27 202 -90q93 -64 150 -166t57 -250q0 -96 -22 -172t-76 -158q-51 -78 -139 -170q-86 -90 -213 -204l-242 -222l-258 -245h598q87 0 139 6q54 6 84 33q31 28 45 75q14 48 19 135q120 0 192 -28q0 -162 10 -273q10 -113 35 -231 q-21 -38 -51 -66q-29 -28 -80 -28q-196 4 -395 6q-264 2 -412 2h-168q-58 0 -184 -2l-180 -4q-114 -2 -144 -2q-33 37 -43 74q-10 36 -10 94l355 325l346 310q109 98 190 188q75 84 123 166q49 84 66 162q18 83 18 176q0 74 -27 137q-29 66 -75 113q-49 49 -113 78 q-62 28 -137 28q-172 0 -262 -114q-92 -116 -132 -414q-53 0 -116 6q-67 6 -105 22q4 48 9 123q4 61 4 142q0 80 -4 141q-4 67 -17 127q79 53 154 90q79 39 166 62q88 23 194 34q110 11 236 11z" />
<glyph unicode="3" horiz-adv-x="2101" d="M1077 2048q204 0 406 2q151 1 262 6q33 -28 43 -71t6 -93l-311 -385l-385 -491q21 1 42 1q131 0 253 -42q142 -49 256 -152q113 -102 180 -258q67 -155 67 -360q0 -184 -75 -344q-78 -166 -217 -289q-143 -126 -344 -199t-457 -73q-204 0 -357 53q-150 52 -241 131 q0 32 12 67t45 68q51 -36 182 -76q129 -39 338 -39q118 0 244 41q122 40 225 121q100 79 166 201q66 121 66 280q0 238 -148 398t-446 160q-78 0 -131 -29q-30 30 -53 74q-21 40 -21 69l412 531q175 231 272 370h-500q-92 0 -149 -10q-58 -10 -103 -41q-42 -29 -73 -86 q-34 -63 -60 -149q-45 0 -90 12q-44 12 -78 41q33 151 39 289q6 136 6 280q102 -4 279 -6q234 -2 438 -2z" />
<glyph unicode="4" horiz-adv-x="2445" d="M1765 0v-623q-40 0 -94 -10q-67 -12 -108 -22q-55 -13 -93 -27q-43 -16 -45 -18q-45 45 -45 135v565h-28q-299 0 -574 -8l-254.5 -8.5t-265.5 -8.5q-26 26 -49 68q-25 45 -25 88l135 178l168 230l189 266l201 285l196 280l191 270l174 240l143 193q47 0 100 -11 q54 -11 84 -30v-1708h357q82 0 119 -37q-30 -60 -52 -144t-22 -143h-402zM1380 324v1138l-757 -1138h757z" />
<glyph unicode="5" horiz-adv-x="1970" d="M549 2056q106 -4 199 -6q122 -2 174 -2h335q119 0 166 57q47 58 47 140q35 11 89 16q45 4 96 4q-17 -111 -21 -240q-4 -115 -4 -272q-20 -32 -61 -53t-123 -21h-184q-74 0 -236 -2q-44 -1 -119.5 -2.5t-105.5 -1.5q-106 -2 -146 -6l-98 -414q263 -57 477 -135 q220 -80 369 -194q153 -117 237 -275q84 -157 84 -375q0 -236 -96 -419q-95 -182 -244 -306q-147 -123 -325 -186q-179 -63 -342 -63q-161 0 -281 36q-123 37 -190 95q0 68 53 135q47 -19 166 -41q113 -21 235 -21q123 0 234 45q108 44 196 132t136 208q49 122 49 275 q0 177 -88 307q-89 131 -226 223q-142 95 -305 146q-168 52 -327 69q-35 22 -52 58q-18 37 -18 69z" />
<glyph unicode="6" horiz-adv-x="2052" d="M1696 2486q-290 -61 -512 -164q-224 -103 -369 -274q-147 -173 -225 -430q-27 -95 -49 -217l131 82q84 51 155 78q70 27 146 43q67 14 149 14q351 0 559 -193q207 -192 207 -557q0 -204 -69 -370q-68 -164 -189 -285q-118 -118 -274 -184t-332 -66q-443 0 -662 260 q-219 259 -219 760q0 457 146 766q146 308 368 496q221 187 490 272q265 84 508 96q20 -23 31 -51q10 -26 10 -76zM733 1343q-91 -24 -209 -102q-8 -122 -8 -242q0 -249 57 -413q57 -162 142 -260q86 -98 178 -136t168 -38q122 0 211 53q87 52 143 135q55 82 82 182t27 195 q0 193 -58 323q-57 127 -145 203t-191 105q-100 28 -192 28q-103 0 -205 -33z" />
<glyph unicode="7" horiz-adv-x="1986" d="M1241 2048q85 0 221 2l100.5 2.5t77.5 1.5q102 2 121 2q19 -11 37 -37t25 -53l-316 -551l-327 -604q-98 -191 -162 -356q-65 -168 -103 -318q-37 -146 -53 -307q-14 -143 -14 -326q-76 -49 -162 -110q-77 -55 -129 -115q-35 7 -57 29q-21 21 -21 45q0 131 33 311 q33 181 90 377q30 106 100 266q72 163 177 375q105 211 241 461l301 532h-651q-82 0 -149 -8q-61 -7 -109 -39q-45 -30 -78 -86q-33 -55 -61 -149q-41 0 -88 12q-45 12 -80 37q36 149 53 299q16 140 16 315q170 -8 320 -8h647z" />
<glyph unicode="8" horiz-adv-x="2080" d="M565 1225q95 73 213 147q-215 146 -336 283q-139 155 -139 360q0 115 45 221q45 107 133 189t221 133q134 51 306 51q347 0 546 -137t199 -408q0 -126 -47 -223q-45 -93 -121 -172q-71 -74 -168 -137l-135 -78l127 -90q144 -106 244 -217q99 -110 151 -236 q51 -125 51 -272q0 -157 -63 -281t-174 -213t-264 -135q-155 -47 -334 -47q-182 0 -326 49q-146 50 -250 133q-103 82 -161 197q-58 114 -58 236q0 144 39 258q40 117 115 211q78 98 186 178zM1327 954q-142 149 -397 320q-94 -69 -156 -131q-70 -70 -115 -148t-63 -170 q-18 -91 -18 -215q0 -134 45 -229t118 -150q72 -55 164 -79q94 -25 185 -25q56 0 127 23q72 23 131 71q62 50 102 131q41 84 41 205q0 224 -164 397zM1081 1581q16 -11 54 -33q124 83 180 176q69 111 69 287q0 214 -106 324t-250 110q-152 0 -244 -86q-91 -85 -96 -262v-15 q0 -149 86 -257q92 -115 307 -244z" />
<glyph unicode="9" horiz-adv-x="2125" d="M1528 463q20 57 37 127q-129 -103 -246 -152q-144 -57 -315 -57q-174 0 -326 55q-153 55 -266 158q-114 104 -181 246q-67 143 -67 319q0 221 72 391q73 172 194 287q122 116 289 176t358 60q470 0 688 -275q217 -274 217 -807q0 -272 -77 -493q-79 -226 -205 -404 q-128 -181 -293 -319q-166 -139 -346 -238q-174 -96 -361 -155q-180 -57 -331 -78q-30 39 -35 69q-6 33 -6 78q321 122 563 270q239 146 399 332t238 410zM1438 684q92 34 159 98q9 108 9 181q0 248 -43 421q-44 179 -119 289q-78 114 -184 166q-109 53 -240 53 q-107 0 -193 -47q-85 -46 -149 -127q-64 -80 -98 -188q-35 -110 -35 -227q0 -218 63 -347q62 -127 162 -200q98 -71 213 -94q117 -23 217 -23q124 0 238 45z" />
<glyph unicode=":" horiz-adv-x="983" d="M512 553q106 0 166 -72q59 -71 59 -141q0 -123 -73 -180q-75 -58 -168 -58q-110 0 -172 62t-62 155q0 94 70 164t180 70zM496 1774q106 0 166 -72q59 -71 59 -141q0 -124 -74 -181q-73 -57 -168 -57q-111 0 -172 61t-61 156t69 164q70 70 181 70z" />
<glyph unicode=";" horiz-adv-x="1060" d="M586 1724q107 0 166 -71t59 -142q0 -123 -74 -180q-73 -57 -168 -57q-111 0 -172 61t-61 156q0 94 70 164q69 69 180 69zM676 397q139 -52 139 -295q0 -120 -35 -239q-34 -117 -96 -228q-58 -105 -141 -208q-77 -96 -166 -185q-81 0 -131 62q126 143 194 278 q68 136 68 242q0 181 -193 205q0 27 7 116q6 80 26 129q88 19 176 50q85 29 152 73z" />
<glyph unicode="&#x3c;" horiz-adv-x="2039" d="M1778 78q12 -59 2 -125q-11 -68 -43 -105l-394 295l-364 265l-369 262l-409 280q-5 38 -5 75q0 19 1 38q5 62 41 113l1413 1134q62 -15 108 -41q43 -24 84 -69l-1442 -1143z" />
<glyph unicode="=" d="M2028 803q0 -53 -9 -107q-7 -43 -37 -90q-89 0 -221 2t-192 2h-684q-73 0 -221 -2l-228 -4q-156 -2 -256 -2q0 41 13 109q12 66 32 92h1803zM2032 1479q0 -53 -9 -107q-7 -45 -36 -90q-92 0 -220 2t-190 2h-684q-73 0 -221 -2l-226 -4q-152 -2 -253 -2q0 45 12 108 q12 65 33 93h1794z" />
<glyph unicode="&#x3e;" horiz-adv-x="2015" d="M1626 1057l-1442 1143q40 45 84 69q46 25 109 41l1413 -1134q36 -51 41 -113q1 -19 1 -38q0 -37 -5 -75l-410 -280l-368 -262l-365 -265l-393 -295q-32 37 -43 105q-10 66 2 125z" />
<glyph unicode="?" horiz-adv-x="2199" d="M1122 2925q141 0 264 -35q119 -34 209 -101t138 -163q49 -98 49 -226q0 -200 -92 -348q-89 -144 -205 -287q-117 -145 -205 -295q-92 -157 -92 -368q0 -50 12 -135q12 -88 33 -144q-35 -20 -72 -26q-35 -6 -76 -6q-69 45 -129 184q-59 137 -59 315q0 135 39 240 q39 104 96 190q58 87 125 160q66 72 125 148q57 74 96 153t39 182q0 178 -100 285q-101 109 -232 109q-155 0 -241 -123q-86 -124 -119 -406q-61 0 -125 10q-69 11 -108 31q1 11 3.5 60.5t4.5 72.5q4 53 4 115q0 37 -2 111q-1 42 -10 120q100 65 249 121q148 56 381 56z M1130 434q112 0 175 -74t63 -151q0 -132 -78 -189t-176 -57q-118 0 -182 64t-64 161q0 102 72 174t190 72z" />
<glyph unicode="@" horiz-adv-x="4096" d="M2060 1913q118 0 217 -12q61 -7 156 -25q38 0 86 8q60 7 119 29q28 -7 45 -29t27 -63q9 -38 14 -115q4 -64 4 -186v-783q0 -161 4 -241q5 -97 18 -138q15 -45 46 -61q28 -14 79 -14q63 0 148 73t164 222q77 145 133 362q55 213 55 498q0 223 -76 420q-77 200 -229 350 q-151 150 -381 239q-227 88 -530 88q-351 0 -609 -118q-259 -118 -434 -328q-174 -209 -260 -496q-86 -288 -86 -622q0 -322 88 -613q89 -293 268 -516t451 -354q271 -131 639 -131q340 0 639 111q300 111 516 356q103 -17 127 -103q-95 -131 -236 -233q-144 -104 -315 -172 q-176 -70 -375 -107q-193 -36 -413 -36q-417 0 -727 131t-512 366q-204 238 -304 559q-100 322 -100 705q0 368 113 690q113 321 327 561q213 238 529 379q312 139 715 139q347 0 602 -98q259 -99 430 -266q173 -168 258 -391q86 -225 86 -478q0 -330 -86 -608t-219 -475 q-134 -199 -297 -311q-164 -113 -316 -113q-159 0 -219 107q-59 105 -59 295v303q-39 -141 -86 -246q-90 -209 -215 -334t-277 -125q-228 0 -368 193t-140 655q0 240 56 444q56 205 157 349q100 143 242 227q139 82 311 82zM2396 1507q4 47 4 99q-79 58 -168 86 q-101 37 -196 37q-196 0 -285 -187q-88 -185 -88 -608q0 -356 74 -496q73 -139 172 -139q49 0 123 68q73 67 145 204q71 134 133 342q58 196 82 447q4 65 4 147z" />
<glyph unicode="A" horiz-adv-x="2883" d="M1307 2777q67 16 159 16l975 -2236q53 -122 88 -188q38 -72 74 -117q34 -43 70 -62t84 -26q15 -47 20 -90q4 -33 4 -86q-14 0 -90 2q-59 2 -127 6l-135 4h-115q-26 0 -116 -2l-134 -4q-23 -1 -65 -2.5t-60 -1.5q-80 -2 -88 -2q0 54 4 94q5 45 25 82q87 8 133 24 q47 17 64 52q16 34 4 92q-11 54 -53 151l-181 418q-298 0 -561 -4q-283 -5 -524 -12l-107 -283q-68 -173 -68 -270q0 -38 11 -64q38 -92 205 -104q28 -68 28 -176q-79 9 -178 10q-144 2 -211 2q-112 0 -192 -4q-127 -6 -148 -8q0 34 7 88q6 48 22 84q51 12 94 37 q41 24 78 73q37 50 72 129q35 80 84 203zM840 1085h929l-311 730l-51 114l-45 109l-47 112q-15 46 -41 107q-40 -135 -78 -234l-74 -204z" />
<glyph unicode="B" horiz-adv-x="2588" d="M664 2769q163 0 294 4t291 4q177 0 334 -27q159 -27 279 -94t190 -182q70 -116 70 -295q0 -264 -160 -450t-434 -226q157 -7 305 -47q144 -38 256 -119q109 -78 176 -211q66 -130 66 -319q0 -167 -56 -315q-56 -149 -174 -256q-122 -111 -305 -173q-186 -63 -448 -63 h-275q-107 0 -319 -2q-57 -1 -158 -2.5t-143 -1.5q-142 -2 -220 -6q0 119 21 176q83 5 137 22t88 64q32 43 47 121q15 77 15 194v1684q0 204 -60 276q-60 73 -223 80q-11 31 -16 80q-4 41 -4 96q96 -9 198 -10q156 -2 228 -2zM926 1356v-791q0 -129 16 -203q16 -76 59 -116 q44 -41 117 -56q69 -14 189 -14q303 0 444 152t141 422q0 188 -80 307t-206 186q-127 67 -281 90q-156 23 -305 23h-94zM987 2597q-27 -4 -61 -12v-1045h127q197 0 323 43q128 43 201 117q72 72 100 166q27 92 27 190q0 160 -57 266t-148 170q-92 65 -196 88 q-111 25 -209 25q-54 0 -107 -8z" />
<glyph unicode="C" horiz-adv-x="2674" d="M1511 2806q255 0 469 -53q207 -51 441 -160q-33 -144 -39 -303t-6 -332q-54 -22 -103 -29q-53 -8 -114 -8q-7 211 -54 356q-45 140 -125 220t-190 110q-115 31 -246 31q-258 0 -442 -94t-301 -252q-116 -156 -172 -361q-56 -204 -56 -415q0 -275 72 -512 q73 -241 205 -414q135 -178 328 -277q194 -100 440 -100q196 0 401 66q207 66 377 176q25 -22 47 -60q23 -39 27 -67q-123 -94 -240 -162q-121 -70 -239 -113q-121 -44 -256 -67q-136 -23 -289 -23q-286 0 -526 105q-241 106 -412 294q-171 189 -268 457t-97 586 q0 351 117 614q118 265 307 439q192 177 437 262q247 86 507 86z" />
<glyph unicode="D" horiz-adv-x="2994" d="M238 2781q40 -4 104 -6q63 -2 133 -4q92 -2 143 -2h140q150 0 270 4t266 4q273 0 549 -49q277 -49 502 -191q224 -141 365 -401t141 -682q0 -332 -84 -569q-86 -241 -217 -398q-134 -159 -303 -258q-164 -96 -342 -147q-173 -50 -334 -66q-157 -16 -277 -16h-266 q-101 0 -301 -2q-54 -1 -148.5 -2.5t-134.5 -1.5q-133 -1 -211 -6q0 119 21 176q83 5 137 22t88 64q32 43 47 121q15 77 15 194v1684q0 204 -60 276q-60 73 -223 80q-11 31 -16 80q-4 41 -4 96zM926 565q0 -119 14 -188q15 -74 55 -117q39 -42 113 -59t186 -17q246 0 453 60 q209 60 358 198q153 141 238 371q86 232 86 580q0 332 -100 565t-269 381t-385 215t-446 67q-78 0 -162 -10q-94 -11 -141 -26v-2020z" />
<glyph unicode="E" horiz-adv-x="2392" d="M1991 2781q6 -86 14 -153l20 -172q8 -65 23 -172q11 -79 29 -150q-33 -28 -80 -39q-44 -10 -105 -10q-7 87 -39 188q-30 95 -106 168q-78 75 -203 119q-128 45 -323 45h-295v-1122h172q133 0 213 14q90 16 139 51q55 39 78 103q24 66 24 164q49 15 97 22q43 6 100 6 q-8 -114 -8 -225v-459q0 -123 8 -237q-61 0 -100 4q-46 5 -88 16q-7 106 -35 176q-27 69 -80 113q-51 42 -137 59q-87 17 -211 17h-172v-742q0 -119 14 -188q15 -74 55 -117q39 -42 113 -59t186 -17h25q189 0 307 33q120 33 195 98q77 66 123 162q49 101 92 223 q67 -23 102 -41q44 -23 78 -57q-48 -153 -76 -305q-31 -166 -51 -305q-32 0 -150 2q-24 0 -89.5 1.5t-104.5 2.5q-142 2 -221 2h-496q-101 0 -301 -2q-54 -1 -148.5 -2.5t-134.5 -1.5q-133 -1 -211 -6q0 119 21 176q83 5 137 22t88 64q32 43 47 121q15 77 15 194v1684 q0 204 -60 276q-60 73 -223 80q-11 31 -16 80q-4 41 -4 96q62 -5 155 -6l195 -4q134 -2 190 -2h148q452 0 692 4q308 5 373 8z" />
<glyph unicode="F" horiz-adv-x="2220" d="M1974 2781q4 -69 15 -153l20 -172q8 -65 23 -172q13 -89 28 -150q-33 -28 -80 -39q-44 -10 -104 -10q-7 87 -39 188q-30 95 -106 168q-78 75 -203 119q-128 45 -324 45h-282v-1204h200q133 0 213 14q91 16 140 51q53 38 77 103q25 69 25 164q50 16 96 22q43 6 101 6 q-9 -128 -9 -225v-459q0 -109 9 -237q-62 0 -101 4q-46 5 -88 16q-7 106 -35 176q-27 69 -80 113q-51 42 -137 59q-87 17 -211 17h-200v-623q0 -138 20 -217q21 -81 66 -131q46 -50 112 -68q65 -17 166 -22q21 -57 21 -176q-109 9 -234 10q-186 2 -282 2h-156q-52 0 -156 -2 q-29 -1 -77 -2.5t-64 -1.5q-65 -2 -105 -6q0 119 21 176q163 7 223 80q60 72 60 276v1729q0 204 -60 276q-60 73 -223 80q-21 57 -21 176q66 -5 156 -6l182 -4q122 -2 183 -2h168q448 0 684 4q303 5 368 8z" />
<glyph unicode="G" horiz-adv-x="2994" d="M2126 741q0 141 -12 220t-50 120q-39 42 -106 54q-65 11 -184 16q-13 37 -19 86q-6 53 -6 102q90 -9 225 -10q196 -2 275 -2q78 0 270 2q143 1 209 6q0 -43 -4 -90q-5 -54 -21 -94q-62 -5 -98 -16q-35 -11 -59 -54q-23 -42 -29 -120q-6 -79 -6 -220v-184q0 -90 10 -156 q11 -71 43 -131q-176 -130 -450 -219q-273 -88 -623 -88q-303 0 -551 105q-250 106 -426 294q-178 190 -274 459q-97 271 -97 600q0 346 121 604q123 262 322 433t454 260q252 88 525 88q292 0 546 -53q245 -51 437 -140q-30 -151 -37 -297q-8 -163 -8 -338 q-95 -36 -217 -36q-7 211 -64 350q-56 136 -147 213q-90 75 -215 104t-263 29q-263 0 -454 -94q-195 -96 -318 -250q-124 -156 -186 -359q-61 -201 -61 -424q0 -280 61 -524t186 -428q123 -181 312 -289q185 -106 436 -106q123 0 219 12q94 12 195 53q70 29 104 90 q35 62 35 218v204z" />
<glyph unicode="H" horiz-adv-x="3088" d="M2171 1331h-242q-119 0 -379 -2q-164 -1 -379 -10q-141 -4 -249 -12v-787q0 -205 59 -276q60 -73 223 -80q21 -57 21 -176q-246 12 -496 12q-74 0 -254 -2q-119 -1 -242 -10q0 119 21 176q163 7 223 80q60 72 60 276v1729q0 204 -60 276q-60 73 -223 80q-21 57 -21 176 q225 -12 496 -12q90 0 252 2q100 1 244 10q0 -119 -21 -176q-163 -7 -223 -80q-59 -71 -59 -276v-742h1249v742q0 204 -60 276q-60 73 -223 80q-20 54 -20 176q225 -12 495 -12q90 0 252 2q100 1 244 10q0 -122 -20 -176q-164 -8 -224 -80q-59 -71 -59 -276v-1729 q0 -205 59 -276q60 -72 224 -80q20 -54 20 -176q-246 12 -496 12q-74 0 -254 -2q-118 -1 -241 -10q0 122 20 176q163 7 223 80q60 72 60 276v811z" />
<glyph unicode="I" horiz-adv-x="1454" d="M537 2249q0 204 -60 276q-60 73 -223 80q-21 57 -21 176q225 -12 496 -12q90 0 252 2q100 1 244 10q0 -119 -21 -176q-163 -7 -223 -80q-59 -71 -59 -276v-1729q0 -205 59 -276q60 -73 223 -80q21 -57 21 -176q-246 12 -496 12q-74 0 -254 -2q-119 -1 -242 -10 q0 119 21 176q163 7 223 80q60 72 60 276v1729z" />
<glyph unicode="J" horiz-adv-x="1384" d="M938 512q0 -288 -27 -508q-28 -226 -108 -401q-83 -180 -240 -330q-155 -148 -420 -293q-57 33 -69 107q122 106 205 200q87 99 151 228q62 126 92 276q31 157 31 348v2110q0 205 -59 276q-60 72 -224 80q-20 54 -20 176q104 -9 225 -10q180 -2 270 -2q87 0 279 2 q133 1 217 10q0 -122 -20 -176q-157 -8 -220 -80t-63 -276v-1737z" />
<glyph unicode="K" horiz-adv-x="2777" d="M537 2249q0 204 -60 276q-60 73 -223 80q-21 57 -21 176q225 -12 496 -12q90 0 252 2q100 1 244 10q0 -119 -21 -176q-163 -7 -223 -80q-59 -71 -59 -276v-795l733 770q108 113 153 182q46 72 45 115q-2 44 -41 62q-38 17 -104 22q-11 38 -16 86q-4 40 -4 90 q79 -9 184 -10q152 -2 237 -2q254 0 422 12q0 -46 -4 -90q-5 -51 -20 -86q-75 -5 -133 -20q-62 -16 -131 -56q-71 -41 -146 -106q-69 -59 -176 -170l-664 -713q139 -118 267 -291l319 -413q102 -135 205 -252q106 -122 213 -213q109 -94 213 -148t213 -59q0 -38 -4 -78 q-4 -43 -17 -86q-174 0 -327 -4q-173 -4 -324 -21q-76 123 -207 308q-128 181 -295 393q-157 199 -337 393q-130 146 -254 262v-811q0 -205 59 -276q60 -73 223 -80q21 -57 21 -176q-246 12 -496 12q-74 0 -254 -2q-119 -1 -242 -10q0 119 21 176q163 7 223 80q60 72 60 276 v1729z" />
<glyph unicode="L" horiz-adv-x="2297" d="M1319 184q173 0 285 27q113 27 192 88q80 62 135 160q57 102 105 241q67 -23 102 -41q44 -23 78 -57q-48 -153 -76 -305q-31 -166 -51 -305q-32 0 -150 2q-24 0 -89.5 1.5t-104.5 2.5q-142 2 -221 2h-496q-101 0 -301 -2q-54 -1 -148.5 -2.5t-134.5 -1.5q-133 -1 -211 -6 q0 119 21 176q83 5 137 22t88 64q32 43 47 121q15 77 15 194v1684q0 204 -60 276q-60 73 -223 80q-11 31 -16 80q-4 41 -4 96l127 -8l135 -4h233q90 0 252 2q100 1 244 10q0 -119 -21 -176q-84 -5 -135 -22q-51 -18 -86 -60q-31 -39 -47 -110q-14 -64 -14 -177v-1671 q0 -119 14 -188q15 -74 55 -117q39 -42 113 -59t186 -17h25z" />
<glyph unicode="M" horiz-adv-x="3829" d="M664 2769q152 0 311 12l1024 -2265l893 2265q80 -9 153 -10q112 -2 166 -2q58 0 156 2q59 1 156 10q0 -40 -5 -88q-5 -46 -16 -88q-74 0 -131 -18q-55 -17 -94 -66q-35 -44 -51 -127q-8 -41 -8 -96q0 -48 6 -107l147 -1503q17 -155 37 -250q21 -99 55 -155q35 -57 84 -84 q48 -26 123 -31q11 -42 16 -92q4 -41 4 -88q-50 5 -110 6l-127 4q-88 2 -135 2h-119q-64 0 -252 -2q-125 -1 -248 -10q0 36 6 86q5 44 19 90q93 7 155 33q58 25 82 75q25 53 25 140q0 88 -12 223l-148 1405l-848 -2048q-70 -29 -168 -29l-954 2073l-131 -1315 q-12 -116 -12 -205q0 -33 2 -63q6 -102 37 -166q30 -61 90 -88q62 -28 149 -35q13 -48 17 -96q4 -45 4 -80q-115 9 -224 10q-166 2 -215 2q-50 0 -208 -2q-106 -1 -201 -10q0 35 4 80q5 54 16 96q78 7 138 33q54 23 92 86q37 60 61 176q25 118 41 299l131 1458q5 55 5 102 q0 140 -46 203q-62 84 -233 84q-13 43 -17 90q-4 44 -4 86q71 -9 148 -10q114 -2 164 -2z" />
<glyph unicode="N" horiz-adv-x="3104" d="M2101 2781q104 -9 195 -10q140 -2 190 -2q49 0 197 2q96 1 192 10q0 -46 -4 -86q-5 -48 -16 -90q-69 0 -115 -29t-74 -96q-28 -66 -40 -178q-13 -120 -13 -279v-2039q-35 -13 -78 -17q-40 -4 -90 -4l-1700 2220v-1417q0 -162 13 -289q12 -117 45 -186q33 -70 88 -98 q56 -29 137 -29q11 -35 16 -78q5 -45 5 -98q-110 9 -205 10q-148 2 -201 2q-49 0 -211 -2q-109 -1 -199 -10q0 48 5 96q5 44 16 80q81 0 137 29q55 28 88 98q33 69 45 186q13 127 13 289v1692l-17 20q-57 73 -110 96q-55 24 -156 31q-11 42 -16 94q-5 55 -5 82 q71 -9 144 -10q110 -2 160 -2q163 0 274 12l1593 -2113v1355q0 168 -12 279q-12 110 -45 178t-88 96q-56 29 -137 29q-13 76 -17 105q-4 31 -4 71z" />
<glyph unicode="O" horiz-adv-x="2994" d="M143 1393q0 311 105 571q106 262 287 449q182 188 430 290q250 103 530 103q293 0 543 -103q248 -102 428 -288q179 -185 282 -447t103 -575q0 -303 -101 -564t-280 -452q-180 -192 -428 -303t-547 -111q-300 0 -553 109q-247 107 -428 301q-177 191 -274 452 q-97 262 -97 568zM565 1503q0 -257 66 -499q67 -246 194 -429q130 -187 318 -299t434 -112q201 0 358 88q158 89 269 240q111 152 168 356q57 206 57 438q0 274 -78 516t-213 422q-136 182 -321 283q-186 102 -408 102q-179 0 -336 -80q-155 -79 -268 -225 q-113 -147 -176 -348q-64 -206 -64 -453z" />
<glyph unicode="P" horiz-adv-x="2387" d="M1024 2613q-46 -5 -102 -16v-1995q0 -138 20 -217q21 -81 66 -131q46 -50 112 -68q65 -17 166 -22q21 -57 21 -176q-109 9 -234 10q-186 2 -282 2h-156q-52 0 -156 -2q-29 -1 -77 -2.5t-64 -1.5q-65 -2 -105 -6q0 119 21 176q163 7 223 80q60 72 60 276v1729 q0 204 -60 276q-60 73 -223 80q-21 57 -21 176q186 -9 310 -10q200 -2 248 -2q123 0 256 4t325 4q228 0 389 -65q164 -66 271 -179q106 -112 157 -264q52 -154 52 -323q0 -153 -58 -318q-57 -163 -174 -293q-118 -131 -291 -215q-174 -84 -407 -84q-80 0 -158 13 q-77 13 -129 32q-7 33 -6 70q1 33 10 66q106 -25 225 -25q114 0 222 29q106 28 190 102q84 73 135 201t51 323q0 171 -41 314q-40 139 -127 243q-86 103 -217 160q-130 57 -315 57q-66 0 -127 -8z" />
<glyph unicode="Q" horiz-adv-x="3076" d="M143 1393q0 311 105 571q106 262 287 449q182 188 430 290q250 103 530 103q293 0 543 -103q248 -102 428 -288q179 -185 282 -447t103 -575q0 -303 -101 -564t-280 -452q-180 -192 -430 -303q-30 -17 -62 -29q140 -41 246 -102l279 -170q132 -85 278 -140 q106 -40 245 -40q54 0 112 6q0 -29 -7 -80q-6 -43 -18 -84l-236 -78q-97 -34 -272 -111q-134 33 -225 95q-93 63 -162 137q-75 79 -137 153q-69 82 -144 148q-80 71 -184 119t-250 65h-8q-300 0 -553 109q-247 107 -428 301q-177 191 -274 452q-97 262 -97 568zM565 1503 q0 -257 66 -499q67 -246 194 -429q130 -187 318 -299t434 -112q201 0 358 88q158 89 269 240q111 152 168 356q57 206 57 438q0 274 -78 516t-213 422q-136 182 -321 283q-186 102 -408 102q-179 0 -336 -80q-155 -79 -268 -225q-113 -147 -176 -348q-64 -206 -64 -453z" />
<glyph unicode="R" horiz-adv-x="2805" d="M725 2769q191 0 342 4t342 4q231 0 401 -53q166 -52 277 -146q110 -93 162 -217q53 -126 53 -272q0 -286 -197 -483q-181 -181 -487 -263q62 -59 98 -98q65 -71 111 -137q61 -89 110 -174l136 -242q146 -262 282 -389q141 -132 344 -139q0 -36 -2 -90q-1 -39 -14 -86 q-175 0 -324 -4q-167 -4 -319 -21q-62 96 -160 270q-78 138 -192 365q-94 187 -230 369q-106 147 -237 282q-84 -4 -159 -4t-140 4v-729q0 -204 57 -276q57 -73 213 -80q11 -35 16 -84q4 -41 4 -92q-152 9 -270 10q-186 2 -217 2h-119q-43 0 -133 -2l-131 -4q-64 -2 -109 -6 q0 40 5 90q5 48 16 86q163 7 223 80q60 72 60 276v1729q0 203 -60 280q-60 76 -223 76q-11 37 -16 82t-5 90q62 -5 205 -6q192 -2 287 -2zM1057 2621q-66 -7 -135 -24v-1147q43 -8 77 -8q44 -4 103 -4q165 0 313 35t254 110q108 77 170 191q62 115 62 274q0 257 -154 420 q-153 162 -522 162q-80 0 -168 -9z" />
<glyph unicode="S" horiz-adv-x="2191" d="M1081 2806q229 0 394 -56t249 -124q0 -102 5 -275q5 -163 20 -266q-46 -22 -109 -29q-67 -8 -120 -8q-33 175 -74 289q-41 113 -96 176q-57 64 -123 88q-70 25 -146 25q-183 0 -290 -107t-107 -303q0 -182 94 -295q96 -115 236 -205q143 -91 305 -170q167 -81 305 -184 q142 -106 236 -252t94 -373q0 -154 -64 -297q-63 -140 -174 -247t-262 -168q-153 -62 -332 -62q-151 0 -252 14q-104 14 -200 46q-99 32 -185 79q-95 51 -206 123q24 156 30 312t6 270q45 12 107 18t115 6q7 -153 41 -278q33 -123 100 -211q68 -88 180 -135q114 -47 285 -47 q113 0 200 35t144 92q59 59 88 133q31 79 31 162q0 184 -95 299t-235 198q-139 83 -307 160q-170 78 -307 180q-143 107 -236 260q-94 155 -94 406q0 161 55 293q55 133 154 229q101 98 235 148q136 51 305 51z" />
<glyph unicode="T" horiz-adv-x="2396" d="M1020 2609h-209q-162 0 -252 -37q-95 -39 -145 -102q-55 -69 -78 -152q-24 -84 -45 -188q-42 0 -98 8q-53 8 -91 29q34 148 50 307t16 307q199 -9 453 -10q374 -2 591 -2h308q106 0 288 2q50 1 135.5 2.5t118.5 1.5q118 2 203 6q0 -264 25 -614q-46 -22 -97 -29 q-54 -8 -100 -8q-7 220 -121 350q-112 129 -370 129h-197v-2089q0 -102 12 -170q12 -66 47 -106t99 -58q61 -17 161 -22q21 -57 21 -176q-152 9 -268 10q-182 2 -269 2q-82 0 -276 -2q-128 -1 -260 -10q0 122 20 176q101 5 162 22t100 58q37 38 52 106q14 63 14 170v2089z " />
<glyph unicode="U" horiz-adv-x="2887" d="M2396 1102q0 -184 -10 -314q-11 -140 -37 -245q-27 -110 -72 -193q-45 -84 -114 -153q-121 -121 -287 -177q-168 -57 -377 -57q-284 0 -479 64q-191 63 -309 188q-116 124 -166 309q-49 183 -49 422v1303q0 107 -11 176q-11 67 -36 102q-26 36 -74 53q-50 18 -121 25 q-11 42 -16 90q-5 50 -5 86q95 -9 216 -10q178 -2 260 -2q84 0 254 2q112 1 221 10q0 -46 -4 -86q-4 -42 -17 -90q-92 -8 -145 -22q-57 -15 -86 -52q-31 -39 -41 -104q-10 -64 -10 -178v-1245q0 -177 32 -324q33 -150 113 -262q80 -111 213 -174q136 -64 338 -64 q100 0 225 35q122 34 209 121q49 49 82 106q31 53 53 144q20 83 31 202q10 111 10 281v1016q0 153 -10 244q-10 93 -41 155q-29 58 -86 86t-145 35q-14 69 -17 96q-4 31 -4 80q80 -9 180 -10q148 -2 205 -2q59 0 201 2q92 1 188 10q0 -32 -4 -67q-6 -51 -16 -109 q-70 -8 -117 -35q-48 -28 -76 -84q-29 -57 -39 -155q-10 -94 -10 -246v-983z" />
<glyph unicode="V" horiz-adv-x="2809" d="M922 2159l344 -807l315 -774l274 716q153 409 287 811q55 158 55 268q0 47 -10 85q-33 126 -225 147q-11 42 -16 94q-4 44 -4 82q105 -9 172 -10q110 -2 176 -2q55 0 211 2q102 1 206 10q0 -49 -4 -88q-5 -46 -16 -88q-127 -33 -199 -156t-145 -327l-387 -1063 l-404 -1067q-71 -17 -159 -17l-240 594l-238 572l-225 528l-207 465l-112 242q-45 92 -80 139q-37 49 -74 65q-41 18 -94 25q-13 53 -17 96q-4 41 -4 80q95 -9 224 -10q188 -2 272 -2q262 0 496 12q0 -81 -21 -176q-91 -7 -158 -27q-59 -18 -77 -65q-9 -23 -9 -54 q0 -34 11 -77q21 -85 82 -223z" />
<glyph unicode="W" horiz-adv-x="4108" d="M102 2781q114 -9 234 -10q180 -2 229 -2h111q39 0 129 2l133 4q66 1 123 6q0 -39 -4 -80q-4 -43 -17 -96q-109 -8 -168 -22q-62 -15 -84 -58t-6 -125q16 -81 66 -217l139 -401l148 -432l143 -437l82 -254l700 2122q35 13 74 17q36 4 107 4l215 -555l223 -584l217 -586 l151 -413l398 1359q45 156 57 261q4 38 4 70q0 59 -14 102q-22 68 -84 102q-63 35 -160 47q-16 39 -22 92q-7 59 -7 84q173 -12 398 -12q58 0 200 2q93 1 189 10q0 -41 -6 -86q-6 -43 -23 -90q-52 -12 -94 -43q-41 -31 -80 -96q-40 -68 -80 -174t-90 -281l-598 -2023 q-72 -25 -164 -25l-200 545l-215 569l-220 570l-188 479l-696 -2138q-37 -14 -82 -19q-50 -6 -94 -6l-359 1090l-371 1081q-62 178 -94 256q-40 97 -69 137q-34 47 -70 58q-40 13 -90 20q-13 43 -17 86q-4 40 -4 90z" />
<glyph unicode="X" horiz-adv-x="2613" d="M1094 2167l331 -516l304 471q76 121 118 219q29 69 29 117q0 14 -2 26q-10 55 -62 82q-51 27 -145 39q-11 42 -16 94q-4 44 -4 82q119 -9 213 -10q148 -2 204 -2q55 0 211 2q105 1 195 10q0 -26 -2 -86q-1 -43 -14 -90q-49 -12 -95 -35q-47 -24 -98 -73 q-52 -50 -121 -138q-70 -89 -158 -225l-438 -668q17 -34 37 -61l467 -762q81 -136 147 -233q63 -92 113 -142t94 -73q47 -24 92 -31q25 -77 25 -176q-104 9 -231 10q-188 2 -269 2q-82 0 -264 -2q-137 -2 -231 -6q0 42 4 82q4 45 12 90q75 7 127 26q50 18 62 64 q12 44 -17 125q-30 84 -106 211l-349 573l-356 -528q-146 -214 -146 -319q0 -7 1 -13q10 -102 215 -139q11 -42 16 -90q4 -40 4 -86q-124 9 -221 10q-152 2 -229 2q-78 0 -230 -2q-101 -1 -196 -10q0 39 4 86q5 57 20 98q95 23 217 117q119 92 271 301l524 749l-8 13 l-492 762l-174 258q-63 94 -108 141q-45 46 -80 63q-38 18 -84 25q-17 50 -21 92q-4 39 -4 88q123 -9 244 -10q182 -2 256 -2q66 0 258 2q143 1 238 6q0 -32 -5 -82q-5 -45 -12 -90q-87 -17 -135 -43t-59 -76q-3 -12 -3 -26q0 -43 25 -101q32 -76 107 -192z" />
<glyph unicode="Y" horiz-adv-x="2580" d="M1499 1208v-540q0 -168 10 -258q11 -95 43 -144q32 -47 95 -69q61 -21 168 -33q24 -74 24 -176l-270 8q-120 4 -250 4h-148q-51 0 -155 -2q-28 -1 -77.5 -2.5t-68.5 -1.5q-90 -2 -108 -2q0 45 6 90q6 44 18 82q110 7 175 26q63 18 98 64q34 45 45 131q10 81 10 229v590 l-684 1163q-41 66 -72 111q-31 46 -63 74q-34 29 -72 41q-37 11 -96 16q-17 45 -21 84q-4 35 -4 84q85 -4 197 -6q148 -2 229 -2h283q55 0 147 2q70 2 119 6q0 -49 -4 -80q-5 -39 -16 -80q-161 -17 -183 -82q-4 -13 -4 -29q0 -68 76 -196l262 -463q139 -250 222 -417 l204 385l230 413q90 159 90 241q0 22 -6 38q-30 78 -195 102q-14 52 -20 84q-9 47 -9 84q78 -8 189 -8h213q62 0 188 2q95 2 164 6q0 -84 -16 -160q-61 -18 -103 -43q-47 -28 -94 -75q-51 -51 -102 -127q-54 -80 -119 -197z" />
<glyph unicode="Z" horiz-adv-x="2584" d="M418 2777q18 0 188 -2q37 0 128.5 -1.5t144.5 -2.5q194 -2 288 -2h635q167 0 402 8q20 -20 32 -57q13 -41 13 -78l-762 -1294l-729 -1176h631q189 0 313 18q125 18 205 74q81 56 127 158q47 104 80 270q135 -12 213 -69q-35 -142 -52 -304t-22 -331q-151 4 -285 6l-260 4 q-170 2 -258 2h-545q-94 0 -256 -2q-45 -1 -119 -2.5t-100 -1.5q-98 -1 -160 -6q-17 34 -24 61q-8 30 -8 70l774 1257l729 1229h-582q-135 0 -231 -18q-95 -18 -164 -76q-68 -57 -113 -160q-45 -102 -78 -270q-48 0 -122 8q-68 7 -111 33q35 122 57 309q21 179 21 346z" />
<glyph unicode="[" horiz-adv-x="1269" d="M287 3039q114 -8 205 -8h372q79 0 205 8q30 -25 37 -67q8 -46 8 -88q-152 -11 -268 -31q-104 -18 -166 -57q-61 -39 -84 -109q-23 -71 -23 -188v-3142q0 -97 31 -154q30 -56 92 -86q63 -31 156 -41q81 -9 217 -14q30 -35 37 -70q8 -40 8 -94q-91 8 -201 8h-409 q-103 0 -217 -8v4141z" />
<glyph unicode="\" horiz-adv-x="1490" d="M102 2904q21 8 48 12q24 4 59 4q78 0 110 -16l1078 -2904q-31 -11 -109 -16q-24 -1 -44 -1q-39 0 -60 5z" />
<glyph unicode="]" horiz-adv-x="1265" d="M1008 -1102q-114 8 -222 8h-409q-106 0 -197 -8q0 54 8 94q7 35 37 70q136 5 217 14q93 10 156 41q62 30 92 86q31 57 31 154v3142q0 117 -23 188q-23 70 -84 109q-62 39 -165 57q-115 20 -269 31q0 42 8 88q7 42 37 67q126 -8 201 -8h373q95 0 209 8v-4141z" />
<glyph unicode="^" horiz-adv-x="2277" d="M1135 2638l-451 -547q-230 -288 -397 -522q-47 42 -70 84q-26 46 -41 108l844 1045q47 30 108 37q32 4 61.5 4t55.5 -4l189 -281l217 -313l223 -314l207 -280q-37 -32 -105 -43q-66 -10 -125 2z" />
<glyph unicode="_" horiz-adv-x="2318" d="M2073 -377q0 -40 -13 -108q-13 -67 -32 -97q-117 0 -273 2t-223 2h-623q-60 0 -194 -2q-30 0 -102 -1.5t-113 -2.5q-152 -2 -254 -2q0 136 45 209h1782z" />
<glyph unicode="`" horiz-adv-x="1089" d="M639 2200q-34 -19 -74 -19h-6q-37 1 -84 10q-152 232 -266 387q-121 164 -254 306q83 41 186 45q20 1 40 1q81 0 167 -14q47 -158 123 -354q68 -175 168 -362z" />
<glyph unicode="a" horiz-adv-x="1978" d="M1253 930q-102 -11 -221 -35q-113 -22 -209 -68q-93 -44 -157 -125t-64 -215q0 -152 74 -221t168 -69q67 0 137 32t133 103q60 67 100 178q39 108 39 264v156zM1622 610q0 -197 43 -262t190 -65q0 -45 -6 -101t-22 -92q-107 -16 -228 -51q-114 -32 -206 -76 q-42 17 -72 62q-31 47 -31 139q0 66 4 102t4 70q-17 -55 -47 -107q-29 -51 -104 -118q-70 -62 -170 -101q-101 -39 -240 -39q-264 0 -399 115q-133 114 -133 320q0 200 117 325q118 126 282 201q163 75 344 110q202 39 305 56q0 136 -4 209q-4 81 -12 137q-7 50 -27 92 q-15 32 -43 70q-99 123 -262 123q-93 0 -160 -50q-65 -49 -108 -120q-44 -74 -62 -154q-17 -79 -22 -152q-34 0 -113 7q-68 6 -100 22q5 74 5 149q0 39 -1 78q-5 128 -25 220q159 80 345 133q180 51 372 51q140 0 238 -43q97 -43 176 -117q52 -52 86 -115q33 -62 51 -145 q20 -95 27 -190q8 -114 8 -254v-439z" />
<glyph unicode="b" horiz-adv-x="2240" d="M1057 -37q-281 0 -479 80q-196 79 -320 199q42 55 66 166q24 112 24 354v1593q0 71 -8 127q-7 52 -41 90t-94 56q-61 18 -164 18q0 42 8 82q7 36 29 70q45 0 123 12q57 9 159 31q82 18 156 45t111 51q36 -12 63 -49q27 -38 27 -115v-1069q0 -74 -12 -143q-4 -15 -9 -41 q33 62 54 90q30 48 79 98q51 53 125 98q76 47 164 76q93 31 193 31q361 0 563 -217q203 -218 203 -692q0 -216 -74 -406q-73 -189 -207 -330t-321 -223q-188 -82 -418 -82zM717 295q52 -45 119 -86q99 -57 241 -57q90 0 189 32q102 33 192 123t152 244q61 152 61 399 q0 196 -47 332q-45 132 -115 217q-67 82 -149 119q-81 37 -148 37q-88 0 -178 -41q-88 -40 -160 -135q-70 -92 -114 -244q-43 -148 -43 -363v-577z" />
<glyph unicode="c" horiz-adv-x="1830" d="M1688 319q-111 -176 -275 -266q-163 -90 -397 -90q-155 0 -309 62q-156 63 -275 182q-120 120 -194 301t-74 422q0 186 55 360q56 176 164 316q107 138 266 223q157 84 367 84q385 0 618 -184q-19 -107 -24 -234q-4 -101 -4 -233q-33 -21 -88 -27q-56 -6 -101 -6 q-24 235 -139 364q-114 127 -295 127q-205 0 -321 -188q-117 -189 -117 -541q0 -155 39 -299t112 -254q71 -108 183 -176q106 -65 251 -65q275 0 455 237q33 -17 62 -47q29 -31 41 -68z" />
<glyph unicode="d" horiz-adv-x="2301" d="M1184 1913q120 0 205 -21l135 -37v500q0 71 -8 127q-7 52 -41 90q-33 38 -95 56t-163 18q0 42 8 82q8 38 28 70q45 0 123 12q61 9 160 31q82 18 156 45q71 26 110 51q37 -12 64 -49q26 -36 26 -115v-2253q4 -126 54 -186q50 -61 221 -68q0 -49 -4 -88q-4 -43 -21 -88 q-48 0 -112 -10q-70 -11 -136 -27q-64 -16 -129 -41q-55 -21 -98 -49q-36 12 -70 53q-32 39 -32 148q0 82 4 147q5 61 16 131q-17 -41 -37 -73q-50 -92 -57 -103q-28 -45 -80 -98q-51 -53 -125 -98q-76 -47 -164 -76q-93 -31 -192 -31q-361 0 -563 217q-203 218 -203 692 q0 212 74 404q75 193 206 332q133 141 322 223q188 82 418 82zM1479 639q37 123 45 299v639q-57 49 -123 90q-95 57 -238 57q-89 0 -188 -32q-103 -33 -193 -123q-88 -88 -151 -244q-62 -154 -62 -399q0 -196 47 -332q45 -132 115 -217q66 -80 148 -119q78 -37 149 -37 q88 0 178 41q88 40 160 135q73 95 113 242z" />
<glyph unicode="e" horiz-adv-x="1941" d="M831 913q-134 -4 -262 -12q5 -91 21 -176q29 -148 96 -266q68 -120 182 -193q113 -73 295 -73q139 0 267 59q132 61 233 178q34 -22 61 -57q30 -40 37 -70q-144 -184 -323 -262q-180 -78 -406 -78q-218 0 -381 78q-164 78 -272 209q-110 133 -162 309q-53 180 -53 379 q0 200 59 373q60 176 168 311t266 213q157 78 355 78q199 0 340 -68q138 -67 229 -182q90 -114 137 -268q48 -159 60 -330q-16 -81 -62 -139h-209q-81 0 -313 -2q-110 -1 -363 -11zM598 1360q-26 -110 -33 -250h787q0 270 -99 438t-278 168q-75 0 -148 -30 q-71 -29 -133 -111q-57 -76 -96 -215z" />
<glyph unicode="f" horiz-adv-x="1400" d="M844 1835h418q0 -31 -9 -92q-7 -51 -32 -92q-220 0 -377 -49v-1000q0 -138 20 -217q21 -81 66 -131q46 -50 112 -68q65 -17 166 -22q21 -57 21 -176q-109 9 -234 10q-186 2 -282 2h-152q-53 0 -151 -2q-27 -1 -73 -2.5t-63 -1.5q-62 -2 -102 -6q0 119 21 176 q163 7 223 80q59 71 59 276v1094q-87 20 -178 28q-106 9 -150 9q0 109 58 184h270v164q0 228 74 403q74 176 194 291q121 117 275 174q156 58 313 58q158 0 240 -31q74 -28 149 -72q-7 -129 -12 -250q-4 -105 -4 -229q-57 -18 -115 -25q-66 -8 -119 -8q0 169 -73 279 t-246 110q-169 0 -238 -149q-69 -150 -69 -424v-291z" />
<glyph unicode="g" horiz-adv-x="2093" d="M971 1913q146 0 258 -37h672q16 -50 22 -121q6 -67 6 -133q-71 17 -114 25q-44 8 -134 22q-93 14 -133 19h-16l16 -17q91 -100 131 -213q41 -115 41 -201q0 -142 -47 -268q-47 -125 -141 -219t-234 -147q-143 -54 -319 -54q-146 0 -283 41q-24 11 -32 13q-47 -47 -70 -86 q-33 -61 -33 -107q0 -55 19 -90q18 -33 82 -51q67 -19 180 -25q117 -6 313 -6q199 0 346 -25q141 -24 230 -77q87 -52 127 -142q38 -86 38 -211q0 -141 -75 -284q-77 -146 -211 -267q-130 -117 -322 -196q-185 -76 -407 -76q-381 0 -547 141t-166 412q0 157 82 270 q75 104 217 172q-43 18 -74 33q-65 44 -92 111q-27 66 -27 160q0 135 78 262q56 92 140 172l-33 24q-103 83 -164 207q-62 126 -62 289q0 135 48 264q47 125 139 217q94 94 229 146q138 53 322 53zM881 -70q-113 0 -226 9q-70 -63 -98 -127q-37 -81 -37 -193 q0 -207 103 -315q102 -107 356 -107q137 0 242 37q107 38 182 98q76 61 115 144q38 80 38 168q0 80 -26 133q-27 55 -100 88q-72 32 -207 49q-129 16 -342 16zM930 1729q-83 0 -142 -37t-100 -99q-41 -63 -59 -141q-19 -84 -19 -166q0 -258 111 -393t307 -135q136 0 221 110 q86 112 86 328q0 115 -26 207q-27 95 -80 168q-51 70 -127 115q-73 43 -172 43z" />
<glyph unicode="h" horiz-adv-x="2437" d="M2032 520q0 -213 59 -284q60 -72 182 -72q13 -40 17 -78q4 -36 4 -98q-104 9 -205 10q-152 2 -242 2q-141 0 -260 -4q-202 -7 -227 -8q0 122 20 176q148 0 215 76q68 77 68 280v623q0 141 -29 239q-29 97 -80 154q-52 58 -120 82q-69 24 -152 24q-85 0 -164 -36 q-81 -37 -147 -119q-65 -82 -109 -211q-43 -128 -43 -318v-438q0 -203 62 -280q61 -76 221 -76q11 -35 16 -78q4 -36 4 -98q-33 2 -223 8q-121 4 -264 4q-82 0 -262 -2q-122 -1 -226 -10q0 119 21 176q160 0 221 76q62 77 62 280v1835q0 64 -9 127q-7 52 -41 90t-94 56 q-61 18 -164 18q0 37 9 82q8 38 28 70q45 0 123 12q61 9 160 31q80 17 155 45q74 27 111 51q37 -12 64 -49q26 -36 26 -115v-1040q0 -56 -4 -111q-5 -69 -24 -131q14 25 24 47q9 21 37 59q34 51 90 101t133 94t168 72q90 28 203 28q116 0 221 -34q104 -34 188 -113 q84 -80 130 -205q47 -129 47 -315v-705z" />
<glyph unicode="i" horiz-adv-x="1236" d="M365 2613q0 111 73 180q75 70 168 70q110 0 178 -70t68 -180q0 -94 -72 -166q-71 -71 -174 -71q-106 0 -174 69q-67 68 -67 168zM823 520q0 -203 56 -280q55 -76 186 -76q11 -42 16 -96q4 -45 4 -80q-124 9 -225 10q-158 2 -237 2q-78 0 -244 -2q-109 -1 -227 -10 q0 47 4 88q5 50 16 88q163 0 223 76t60 280v811q0 64 -9 127q-8 53 -40 90q-33 38 -95 56q-61 18 -164 18q0 37 9 82q8 38 28 70q45 0 123 12q61 9 160 31q83 18 156 45q71 26 110 51q37 -12 64 -49q26 -36 26 -115v-1229z" />
<glyph unicode="j" horiz-adv-x="1159" d="M455 1331q0 64 -9 127q-8 53 -40 90q-33 38 -95 56q-61 18 -164 18q0 37 9 82q8 38 28 70q45 0 123 12q61 9 160 31q83 18 156 45q71 26 110 51q37 -12 64 -49q26 -36 26 -115v-1655q0 -210 -63 -385q-63 -177 -162 -317q-101 -144 -219 -246q-119 -103 -236 -166 q-33 16 -57 45q-26 31 -33 70q123 139 201 258q78 118 123 233q44 111 61 240q17 128 17 280v1225zM365 2613q0 111 73 180q75 70 168 70q110 0 178 -70t68 -180q0 -94 -72 -166q-71 -71 -174 -71q-106 0 -174 69q-67 68 -67 168z" />
<glyph unicode="k" horiz-adv-x="2232" d="M451 2355q0 64 -9 127q-7 52 -41 90t-94 56q-61 18 -164 18q0 37 9 82q8 38 28 70q45 0 123 12q61 9 160 31q80 17 155 45q74 27 111 51q37 -12 64 -49q26 -36 26 -115v-1704l275 254q137 126 200 205q62 79 62 123q0 65 -119 65q-25 81 -25 168q139 -8 238 -8h360 q95 0 213 8q0 -42 -6 -88q-6 -48 -22 -84q-120 -5 -234 -57q-113 -52 -266 -193l-356 -323q51 -62 69 -82q81 -86 152 -172l168 -205l196 -246q69 -85 119 -137q52 -54 94 -76q49 -26 95 -33q50 -8 118 -12q0 -122 -20 -176q-138 0 -268 -8q-115 -7 -256 -29 q-50 81 -154 221l-221 287l-248 295q-78 93 -164 184v-430q0 -204 55 -280t187 -76q11 -42 16 -96q4 -45 4 -80q-124 9 -225 10q-158 2 -238 2q-77 0 -243 -2q-110 -1 -228 -10q0 36 5 88q5 50 16 88q163 0 223 76t60 280v1835z" />
<glyph unicode="l" horiz-adv-x="1228" d="M451 2355q0 64 -9 127q-7 52 -41 90t-94 56q-61 18 -164 18q0 37 9 82q8 38 28 70q45 0 123 12q61 9 160 31q80 17 155 45q74 27 111 51q37 -12 64 -49q26 -36 26 -115v-2253q0 -204 55 -280t187 -76q11 -42 16 -96q4 -45 4 -80q-124 9 -225 10q-158 2 -238 2 q-77 0 -243 -2q-110 -1 -228 -10q0 36 5 88q5 50 16 88q163 0 223 76t60 280v1835z" />
<glyph unicode="m" horiz-adv-x="3620" d="M184 1774q61 5 127 16q73 12 150 33q79 22 143 43q68 23 109 47q36 -12 63 -49q27 -38 27 -115q0 -65 -8 -156q0 -28 -9 -102q25 56 25 57q29 54 41 70q33 49 88 100q54 50 129 94q73 44 168 72q96 29 201 29q171 0 315 -78q143 -78 209 -266q11 -38 16 -103q11 33 25 62 q17 31 45 69q35 52 88 101q56 51 131 94q77 44 168 72q90 28 199 28q116 0 219 -34t184 -113q81 -80 127 -205q47 -129 47 -315v-705q0 -106 15 -174q15 -67 45 -106t77 -56q43 -15 109 -20q11 -35 16 -78q5 -45 5 -98q-110 9 -209 10q-152 2 -238 2q-80 0 -254 -2 q-115 -1 -233 -10q0 122 20 176q163 7 223 80q60 72 60 276v623q0 141 -29 239t-78 154q-51 58 -119 82q-69 24 -151 24q-81 0 -160 -36q-81 -37 -147 -119q-67 -84 -107 -211q-41 -131 -41 -318v-438q0 -104 17 -174q17 -68 49 -106q34 -40 88 -56q51 -15 133 -20 q11 -35 16 -78q4 -36 4 -98q-123 9 -237 10q-174 2 -250 2t-248 -2q-110 -1 -239 -10q0 122 20 176q163 7 223 80q60 72 60 276v643q0 142 -29 240q-28 96 -78 153q-51 58 -119 82q-72 25 -151 25t-160 -37t-147 -119q-67 -84 -107 -211q-41 -131 -41 -317v-459 q0 -203 62 -276t225 -80q11 -35 16 -78q4 -36 4 -98q-123 9 -243 10q-182 2 -244 2q-60 0 -248 -2q-124 -1 -239 -10q0 122 20 176q163 7 223 80q60 72 60 276v811q0 72 -11 127q-11 54 -43 88q-34 36 -92 53q-62 19 -162 23q0 37 9 82q8 38 28 70z" />
<glyph unicode="n" horiz-adv-x="2441" d="M2036 520q0 -213 59 -284q60 -72 182 -72q13 -40 17 -78q4 -36 4 -98q-104 9 -205 10q-152 2 -242 2q-141 0 -260 -4q-202 -7 -227 -8q0 122 20 176q148 0 215 76q68 77 68 280v623q0 141 -29 239t-79 154q-52 58 -121 82t-152 24q-85 0 -164 -36q-81 -37 -147 -119 q-65 -82 -109 -211q-43 -128 -43 -318v-438q0 -203 62 -280q61 -76 221 -76q11 -35 16 -78q4 -36 4 -98q-33 2 -223 8q-121 4 -264 4q-82 0 -262 -2q-121 -1 -225 -10q0 122 20 176q160 0 221 76q62 77 62 280v811q0 72 -11 127q-11 54 -43 88q-34 36 -92 53q-62 19 -162 23 q0 37 9 82q8 38 28 70q74 5 138 18t151 33q68 16 143 41q64 21 117 47q37 -12 64 -51q26 -38 26 -129q0 -56 -4 -111q-5 -69 -24 -131q14 25 24 47q9 21 37 59q34 51 90 101t133 94t168 72q90 28 203 28q116 0 221 -34q106 -34 189 -113q83 -78 129 -205q47 -129 47 -315 v-705z" />
<glyph unicode="o" horiz-adv-x="2179" d="M578 1024q0 -418 147 -641t397 -223q247 0 365 202q119 203 119 527q0 189 -45 342q-46 156 -121 262q-78 111 -176 166q-100 57 -215 57q-238 0 -355 -192q-116 -190 -116 -500zM164 938q0 210 67 387q67 178 191 309q124 132 293 205q171 74 375 74q214 0 389 -70 q171 -68 290 -198q120 -131 183 -310q63 -180 63 -397q0 -210 -67 -389q-68 -180 -189 -309q-122 -130 -291 -203q-171 -74 -378 -74q-206 0 -381 70q-172 69 -293 196q-120 126 -187 308q-65 177 -65 401z" />
<glyph unicode="p" horiz-adv-x="2342" d="M1159 -37q-119 0 -205 21q-39 10 -135 32v-454q5 -119 27 -191q22 -71 67 -114q46 -44 111 -62q64 -17 160 -22q20 -54 20 -177q-124 10 -233 11q-186 2 -283 2h-151q-54 0 -152 -2q-27 -1 -72.5 -2.5t-62.5 -1.5q-51 -1 -103 -7q0 120 21 177q163 7 223 79t60 277v1802 q0 72 -11 127q-11 54 -43 88q-34 36 -92 53q-62 19 -162 23q0 37 9 82q8 38 28 70q72 5 137 18q71 14 152 33q68 16 143 41q64 21 117 47q37 -12 64 -51q26 -38 26 -129q0 -97 -28 -181q-16 -53 -41 -127l41 82l61 103q28 45 80 98q51 53 125 98q76 47 164 76q93 31 192 31 q361 0 563 -213q203 -214 203 -660q0 -228 -74 -426q-73 -196 -207 -342q-133 -145 -321 -227t-418 -82zM860 1233q-36 -124 -41 -299v-639q52 -45 119 -86q99 -57 242 -57q89 0 188 32q103 33 193 123q88 88 151 244q62 154 62 399q0 321 -132 514q-131 191 -327 191 q-88 0 -178 -41q-88 -40 -160 -135t-117 -246z" />
<glyph unicode="q" horiz-adv-x="2236" d="M1200 -827q100 5 160 22q60 18 98 57q35 37 51 107q15 67 15 170v553q0 106 16 205q11 73 33 188l-33 -82q-39 -89 -74 -135q-42 -55 -102 -100q-63 -47 -133 -84q-70 -36 -152 -58q-76 -20 -161 -20q-150 0 -285 55q-138 56 -242 166t-166 275q-61 162 -61 385 q0 208 72 397q72 190 202 330t316 225q184 84 409 84q283 0 482 -74t329 -201q-40 -61 -61 -161q-21 -101 -21 -285v-1663q0 -205 60 -277t223 -79q11 -35 16 -78q4 -36 4 -99q-48 6 -96 7q-17 0 -60.5 1.5t-68.5 2.5q-92 2 -143 2h-139q-87 0 -267 -2q-101 -1 -241 -11 q0 123 20 177zM1479 618q37 118 45 287v676q-45 49 -144 96q-100 47 -200 47q-273 0 -441 -204q-170 -206 -170 -590q0 -194 45 -324q46 -132 117 -211q72 -79 162 -114q91 -35 176 -35q69 0 150 35q80 35 147 118q68 85 113 219z" />
<glyph unicode="r" horiz-adv-x="1716" d="M856 1221q-28 -90 -33 -185v-434q0 -134 21 -217t65 -131q45 -50 113 -68q65 -17 166 -22q20 -54 20 -176q-109 9 -233 10q-186 2 -283 2h-151q-54 0 -152 -2q-27 -1 -72.5 -2.5t-62.5 -1.5q-62 -2 -102 -6q0 122 20 176q163 7 223 80q60 72 60 276v811q0 72 -11 127 q-11 54 -43 88q-34 36 -92 53q-62 19 -162 23q0 37 9 82q8 38 28 70q74 5 138 18t151 33q68 16 143 41q64 21 117 47q37 -12 64 -51q26 -38 26 -129q0 -143 -24 -254l-37 -168q27 70 37 110q24 73 57 123q89 143 213 238q122 94 283 94q79 0 149 -25q68 -24 133 -73 q-16 -97 -22 -240q-6 -136 -6 -244q-37 -12 -101 -24q-68 -13 -133 -13q-8 198 -63 259t-138 61q-53 0 -114 -45q-62 -45 -113 -125q-50 -78 -88 -186z" />
<glyph unicode="s" horiz-adv-x="1753" d="M1454 1769q-8 -106 -8 -208q0 -115 16 -218q-82 -49 -205 -49q-7 84 -43 166q-36 83 -94 144q-61 64 -141 102q-83 39 -180 39q-126 0 -203 -62q-76 -61 -76 -163q0 -54 15 -95q15 -42 65 -84t148 -90q87 -42 260 -112q164 -61 276 -123q111 -61 180 -131t97 -152 q28 -81 28 -192q0 -131 -57 -238q-56 -104 -158 -182q-100 -77 -237 -117q-138 -41 -297 -41q-127 0 -217 10t-174 29q-79 18 -148 47q-70 29 -137 66q1 10 8 114q4 59 4 138q0 49 -2 139q-2 68 -6 117q32 24 92 34q63 11 121 11q33 -258 160 -385t340 -127q169 0 260 73 q92 74 92 189q0 50 -19 96q-18 43 -67 82q-48 38 -135 82q-77 39 -221 100q-179 70 -283 125q-114 60 -186 129t-105 158q-33 88 -33 211q0 130 68 227t170 160q104 64 221 94q122 31 221 31q186 0 324 -37q136 -36 266 -107z" />
<glyph unicode="t" horiz-adv-x="1437" d="M377 1835v541q84 21 164 65q75 41 143 99q19 -7 33 -19q13 -11 20 -33q10 -29 11 -59q2 -50 2 -102v-492h528q0 -91 -37 -180q-296 -12 -491 -53v-1024q0 -211 61 -302q62 -92 172 -92q84 0 150 25q62 24 120 74q55 -64 62 -136q-69 -78 -201 -131t-262 -53 q-246 0 -360 123q-115 124 -115 406v1110q-56 19 -127 32q-80 15 -168 21q0 50 8 92q7 36 29 88h258z" />
<glyph unicode="u" horiz-adv-x="2306" d="M1520 1352q0 72 -11 127q-11 54 -43 88q-34 36 -92 53t-162 22q0 42 5 80t24 72q157 7 311 41q152 33 246 78q37 -12 64 -51q26 -38 26 -129v-1176q0 -71 8 -127q7 -52 37 -88q29 -35 82 -53q54 -19 148 -23q0 -49 -4 -88q-4 -43 -21 -88q-49 0 -115 -10 q-69 -10 -141 -27q-69 -16 -135 -41q-58 -22 -100 -49q-36 12 -70 53q-33 40 -33 148q0 76 8 164v37q-41 -91 -122 -172q-209 -209 -496 -209q-148 0 -256 36q-114 38 -191 121q-76 82 -116 224q-39 139 -39 348v618q0 75 -6 127q-6 53 -35 88t-82 53q-54 19 -148 23 q0 42 5 80t24 72q72 5 133 18q77 16 142 33q68 18 133 41q57 20 112 47q37 -12 64 -51q26 -38 26 -129v-930q0 -313 82 -441q82 -129 287 -129q80 0 164 41q81 40 145 127t103 220t39 313v418z" />
<glyph unicode="v" horiz-adv-x="2228" d="M1372 1888q96 -9 184 -10q136 -2 197 -2q59 0 201 2q95 1 180 10q0 -103 -37 -176q-46 -11 -88 -37q-37 -23 -76 -76q-32 -44 -75 -131t-89 -202l-548 -1303q-47 0 -101 8q-49 7 -88 29l-76 176l-116 266l-140 308l-139 301l-117 249l-71 154q-31 64 -70 131 q-29 49 -55 76q-26 26 -58 37q-26 9 -71 14q-16 52 -21 86q-4 29 -4 90q172 -12 430 -12q87 0 269 2q120 1 235 10q0 -42 -8 -88q-5 -31 -21 -80q-103 -8 -161 -22q-59 -15 -80 -45q-20 -29 -8 -82q12 -52 49 -133q24 -51 84 -189l123 -282l137 -320l98 -237l160 421 l151 398q73 191 73 298q0 42 -11 72q-40 105 -197 117q-45 82 -45 172z" />
<glyph unicode="w" horiz-adv-x="3170" d="M1778 1876l141 -324l156 -366l161 -387l127 -316l222 697q50 147 57 245q2 25 2 46q0 67 -18 112q-23 58 -78 88t-127 37q-37 84 -37 180q91 -9 176 -10q132 -2 188 -2q217 0 361 12q0 -102 -33 -180q-46 -12 -80 -39t-67 -82t-70 -149q-32 -80 -86 -246l-414 -1229 q-54 0 -104 8q-45 7 -84 29l-148 358l-159 375l-164 373l-103 237l-536 -1380q-67 0 -109 8q-36 7 -71 29l-127 356.5l-144 376.5l-295 733q-45 114 -92 164q-46 49 -137 78q-15 37 -20 90q-5 55 -5 86q82 -4 175 -6q122 -2 227 -2q99 0 239 2q87 1 211 10q0 -47 -4 -94 q-5 -55 -16 -86q-173 -21 -197 -76q-8 -19 -8 -46q0 -50 29 -124q97 -238 201 -524l167 -451l529 1405q46 0 86 -4q45 -4 78 -12z" />
<glyph unicode="x" horiz-adv-x="2134" d="M1237 418l-123 180q-48 78 -115 168l-168 -250q-110 -159 -110 -242q0 -15 4 -28q24 -82 143 -82q13 -37 19 -80q6 -46 6 -92q-122 8 -242 8h-319q-73 0 -209 -8q0 51 4 92q5 50 20 80q59 5 105 20q50 16 104 58q53 41 113 110q51 59 137 176l283 398l-152 213l-155 217 l-144 186q-54 68 -98 109q-37 34 -76 51q-30 13 -84 18q-28 60 -28 164q90 -5 200 -6q148 -2 230 -2h241q116 0 230 8q0 -41 -6 -86q-4 -29 -15 -78q-144 -8 -168 -67q-4 -9 -4 -21q0 -66 111 -215l90 -123l94 -131l164 254q99 151 99 221q0 5 -1 9q-7 65 -143 73 q-16 38 -21 78q-4 36 -4 86q78 -5 160 -6q110 -2 205 -2q97 0 201 2q77 1 143 6q0 -42 -8 -88q-1 -5 -17 -76q-51 -5 -84 -14q-36 -10 -77 -41q-36 -28 -86 -84q-49 -56 -109 -143l-303 -430l176 -238l192 -270q69 -103 115 -162q51 -65 88 -102q39 -40 74 -56 q33 -16 76 -16q16 -40 18 -80q2 -52 2 -92q-136 8 -225 8h-434q-116 0 -242 -8q0 40 2 94q1 39 14 78q145 5 173 57q7 12 7 29q0 57 -73 168z" />
<glyph unicode="y" horiz-adv-x="2256" d="M1573 1221q52 130 63 217q3 25 3 48q0 53 -17 93q-24 55 -84 84q-61 29 -149 45q-29 84 -29 176q101 -8 192 -8h426q96 0 197 8q0 -26 -2 -86q-1 -44 -23 -90q-55 -12 -98 -37q-40 -24 -76 -72q-32 -44 -71 -124q-23 -47 -86 -193l-602 -1434q-113 -266 -209 -450 q-89 -171 -170 -264t-160 -123q-82 -31 -174 -31q-121 0 -195 31q-71 30 -112 63q-14 52 -14 120q0 17 1 34q4 90 17 145q139 -24 262 -24q119 0 225 55q106 56 189 186q25 36 71 129q45 92 96 211q17 30 21 41l-127 283l-156 352l-149 328l-125 270q-69 142 -125 246 q-51 94 -96 147q-46 54 -86 76q-41 23 -95 35q-24 74 -24 176q118 -4 237 -6q158 -2 226 -2h262l147 4q65 4 136 4q0 -106 -29 -176q-112 -21 -172 -49q-61 -28 -82 -80q-11 -25 -11 -57.5t11 -71.5q22 -80 78 -193l94 -206l108 -242l105 -248q33 -78 57 -147l41 94z" />
<glyph unicode="z" horiz-adv-x="2052" d="M274 1888q61 -4 152 -6q27 0 91 -1.5t101 -2.5q136 -2 205 -2h394q68 0 200 2q36 1 98.5 2.5t86.5 1.5q86 2 147 6q29 -34 41 -82q12 -50 12 -94l-164 -233l-196 -275l-213 -295l-213 -293l-197 -268l-123 -164h521q108 0 182 17q72 17 117 63q44 46 67 137q23 92 35 238 q55 0 102 -4q54 -5 115 -21q0 -24 2 -120q1 -71 6 -148q6 -95 10 -149q4 -51 15 -127q-17 -34 -49 -56t-82 -22q-54 0 -152 2q-21 0 -75 1.5t-85 2.5q-114 2 -188 2h-233q-213 0 -445 -2q-174 -2 -285 -6q-30 30 -47 71q-18 43 -18 93l168 235l207 289l221 311l213 303 l178 262l94 140h-377q-108 0 -184 -17q-75 -17 -125 -65q-51 -50 -84 -133q-32 -81 -61 -219q-49 0 -109 6q-61 6 -104 26q13 147 20 287q8 162 8 307z" />
<glyph unicode="{" horiz-adv-x="1441" d="M1135 3035q36 -55 36 -110q-208 -69 -280 -203t-72 -301q0 -94 15 -193l30 -200l33 -201q16 -96 16 -193q0 -111 -20 -202q-21 -97 -78 -179q-56 -81 -160 -145q-100 -62 -262 -100q159 -40 260 -107q100 -66 160 -151q59 -84 82 -187t23 -211q0 -197 -41 -411t-41 -404 q0 -93 16 -170q17 -80 57 -149q41 -70 111 -123t176 -86q0 -32 -2 -68q-1 -26 -23 -51q-206 65 -337 158t-203 202q-75 114 -99 236q-24 124 -24 256q0 156 18 307q19 160 19 295q0 95 -17 188q-17 92 -59 166q-43 76 -123 136q-78 59 -203 100q0 27 2 65q1 26 19 66 q117 40 194 96q75 55 119 127t60 154q16 80 16 172q0 141 -25 311q-24 163 -24 324q0 119 24 231q23 109 95 215q71 105 192 189t320 151z" />
<glyph unicode="|" horiz-adv-x="716" d="M254 2916q58 0 111 -8q47 -7 94 -37v-389q0 -135 -2 -465t-2 -518v-1085q0 -187 2 -523t2 -473v-405q-45 0 -111 12q-65 12 -94 33v3858z" />
<glyph unicode="}" horiz-adv-x="1355" d="M197 3035q197 -66 319 -151q123 -85 193 -189t94 -215q24 -112 24 -231q0 -161 -24 -324q-25 -170 -25 -311q0 -87 17 -172q17 -84 59 -154q44 -72 119 -127q77 -56 194 -96q18 -40 19 -66q2 -38 2 -65q-125 -41 -203 -100q-80 -60 -123 -136q-42 -74 -59 -166 q-17 -93 -17 -188q0 -135 19 -295q18 -151 18 -307q0 -132 -24 -256q-24 -122 -99 -236q-73 -111 -202 -202q-130 -92 -338 -158q-22 25 -23 51q-2 36 -2 68q214 66 287 207q74 142 74 321q0 190 -41 404t-41 411q0 113 22 211q23 103 82 187q60 85 160 151q101 67 260 107 q-162 38 -262 100q-104 64 -160 145q-57 82 -78 179q-20 91 -20 202q0 97 16 193l33 201l31 200q14 92 14 193q0 167 -72 301t-280 203q0 54 37 110z" />
<glyph unicode="~" horiz-adv-x="2396" d="M258 872q-74 33 -86 107q168 225 320 309t294 84q116 0 226 -37q126 -43 219 -80q77 -31 219 -79q110 -37 221 -37q101 0 207 41q102 39 215 143q48 -5 72 -14q25 -10 59 -39q-173 -221 -319 -303t-279 -82q-110 0 -215 39t-209 88q-102 48 -211 88q-107 39 -221 39 q-117 0 -244 -58q-123 -56 -268 -209z" />
<glyph unicode="&#xa1;" horiz-adv-x="1683" d="M594 -991q-75 25 -75 104q0 11 1 23q15 138 41 413q21 225 39 465q23 301 35 484q16 243 24 473q33 0 99 -2q46 -1 86 -19q15 -253 35 -524q18 -242 36 -459q16 -198 41 -418q17 -156 52 -405q-35 -6 -99 -25l-116 -34q-62 -19 -113 -39q-60 -24 -86 -37zM737 1462 q-106 0 -166 72q-59 71 -59 141q0 123 74 180q75 58 168 58q110 0 172 -62q61 -61 61 -155q0 -95 -69 -164q-70 -70 -181 -70z" />
<glyph unicode="&#xa2;" horiz-adv-x="1855" d="M1688 319q-111 -176 -275 -266q-122 -65 -283 -82v-192q5 -187 5 -357q-39 0 -111 13q-65 12 -94 33v499q-111 12 -225 58q-153 62 -273 182t-194 301t-74 422q0 186 55 360q56 176 164 316q107 138 264 221q126 65 283 82v598q57 0 110 -8q48 -7 95 -37v-328 q0 -93 -5 -225q308 -24 504 -180q-19 -107 -24 -234q-4 -101 -4 -233q-33 -21 -88 -27q-56 -6 -101 -6q-24 235 -139 364q-68 71 -148 103v-1499q275 0 455 237q33 -17 62 -47q29 -31 41 -68zM659 1532q-114 -189 -114 -541q0 -155 39 -299t112 -254q72 -108 181 -176 q25 -17 53 -29v1483q-169 -21 -271 -184z" />
<glyph unicode="&#xa3;" horiz-adv-x="2457" d="M2040 410q85 -12 155 -82q-100 -76 -208 -183q-111 -110 -160 -182q-135 0 -230 45q-68 28 -120 68t-113 74q-64 36 -139 59q-78 24 -201 24q-160 0 -297 -63q-136 -63 -276 -203q-88 34 -140 123q131 128 207 211q97 106 156 205q63 105 96 219t33 250q0 113 -29 209 h-151q-174 0 -279 -4q0 66 10 102q9 33 35 86h320l-41 98q-47 109 -93 246q-43 129 -43 311q0 147 50 289t145 252q95 109 240 176q144 66 327 66q221 0 359 -35q134 -34 272 -109q-9 -97 -9 -190q0 -33 1 -66q4 -125 12 -284q-58 -29 -112 -35q-59 -6 -109 -2 q-21 283 -131 405q-111 123 -332 123q-155 0 -262 -123q-106 -122 -106 -319q0 -149 43 -254q43 -104 96 -205q57 -107 94 -205q30 -69 37 -139h483q0 -63 -10 -100q-11 -42 -31 -84q-120 4 -258 4h-180q-12 -206 -94 -391q-84 -190 -250 -400q37 25 70 45q71 46 133 70 q69 26 123 33q64 8 124 8q111 0 201 -33q85 -31 166 -74l139 -73q63 -33 121 -33q35 0 74 16q42 17 82 54z" />
<glyph unicode="&#xa4;" d="M1106 307q-166 0 -307 62q-73 35 -135 73l-201 -204q-65 5 -94 18q-33 15 -70 55l238 250q-76 93 -127 209q-54 139 -54 283q0 158 62 290q34 76 78 136l-222 225q28 28 66 51t94 27l184 -185q91 75 205 115q136 53 283 53q146 0 278 -53q98 -40 181 -102l184 188 q50 -11 86 -31q34 -18 66 -55l-218 -217q57 -69 95 -156q57 -131 57 -286q0 -192 -74 -332q-39 -75 -90 -143l271 -263q-23 -31 -64 -55q-39 -23 -100 -27l-234 226q-92 -70 -196 -107q-128 -45 -242 -45zM1069 1602q-217 0 -350 -144q-133 -143 -133 -377q0 -105 41 -213 q41 -106 114 -192q75 -87 174 -139q103 -54 215 -54q218 0 349 146t131 391q0 105 -41 211q-39 101 -113 186q-72 82 -172 133q-102 52 -215 52z" />
<glyph unicode="&#xa5;" horiz-adv-x="2580" d="M1692 1548h499q0 -60 -12 -104q-12 -42 -33 -88h-565l-82 -148v-172h684q0 -115 -49 -192h-635v-176q0 -168 10 -258q11 -95 43 -144q32 -47 95 -69q61 -21 168 -33q24 -74 24 -176l-270 8q-120 4 -250 4h-148q-51 0 -155 -2q-28 -1 -77.5 -2.5t-68.5 -1.5 q-90 -2 -108 -2q0 45 6 90q6 44 18 82q110 7 175 26q63 18 98 64q34 45 45 131q10 81 10 229v230h-684q0 46 12 98q12 54 33 94l639 4v164l-90 152h-557q0 101 41 192h405l-483 819q-41 66 -72 111q-31 46 -63 74q-34 29 -72 41q-37 11 -96 16q-17 45 -21 84q-4 35 -4 84 q85 -4 197 -6q148 -2 229 -2h283q55 0 147 2q70 2 119 6q0 -49 -4 -80q-5 -39 -16 -80q-161 -17 -183 -82q-4 -13 -4 -29q0 -68 76 -196l262 -463q139 -250 222 -417l204 385l230 413q90 159 90 241q0 22 -6 38q-30 78 -195 102q-14 52 -20 84q-9 47 -9 84q78 -8 189 -8h213 q62 0 188 2q95 2 164 6q0 -84 -16 -160q-61 -18 -103 -43q-47 -28 -94 -75q-51 -51 -102 -127q-54 -80 -119 -197z" />
<glyph unicode="&#xa6;" horiz-adv-x="741" d="M254 2916q58 0 111 -8q47 -7 94 -37q0 -152 -4 -327t-4 -406q0 -53 2 -203t2 -223q0 -77 2 -209t2 -155q-45 0 -111 12q-65 12 -94 33v1523zM254 709q52 0 111 -9q49 -7 94 -36q0 -32 -2 -164t-2 -209q0 -73 -2 -223t-2 -203q0 -42 2 -184t2 -224q0 -79 2 -231t2 -213 q-45 0 -111 12q-65 12 -94 33v1651z" />
<glyph unicode="&#xa7;" horiz-adv-x="2162" d="M1569 94q75 -100 104 -205q31 -110 31 -233q0 -133 -37 -248q-37 -117 -117 -207t-204 -141t-302 -51q-126 0 -221 18q-91 17 -164 49q-68 30 -122 68q-66 47 -95 74q9 173 9 280q0 127 -13 273q44 12 103 18q57 6 106 6q17 -190 55 -305q38 -114 95 -182q55 -65 125 -88 q71 -23 147 -23q168 0 262 88t94 244q0 86 -18 152q-18 65 -74 129t-162 131q-102 65 -282 157q-177 88 -301 185q-122 95 -197 198q-74 102 -108 228q-33 123 -33 278q0 121 35 234q34 110 100 204t160 160q73 53 168 90q-7 7 -17 13q-117 97 -178 194q-63 101 -84 205 q-20 100 -20 211q0 122 45 235q46 114 129 199q87 88 200 139q120 54 265 54q200 0 333 -54q129 -53 211 -118q-8 -114 -8 -234q0 -118 13 -246q-50 -16 -101 -24q-50 -8 -108 -8q-23 143 -60 247q-35 97 -78 152t-96 76q-50 20 -115 20q-80 0 -147 -29q-68 -30 -113 -77 q-47 -50 -71 -111q-25 -64 -25 -123q0 -78 14 -135q15 -62 64 -121q50 -60 143 -121q98 -64 250 -131q216 -98 350 -182q145 -91 232 -188q90 -100 129 -224q39 -123 39 -286q0 -129 -41 -252q-39 -118 -121 -221q-80 -101 -195 -175q-78 -47 -176 -81q120 -91 193 -185z M1053 467l86 -45q121 17 204 49q106 45 170 109q65 65 91 141q26 75 26 156q0 82 -22 157t-90 152q-64 73 -193 155q-126 80 -326 170q-38 15 -73 33q-195 -38 -295 -147q-111 -123 -111 -307q0 -84 23 -164q23 -78 82 -154q58 -73 161 -151q98 -73 267 -154z" />
<glyph unicode="&#xa8;" d="M827 2179q-108 0 -170 59q-63 60 -63 150q0 89 53 162q52 71 172 71q123 0 178 -65q56 -67 56 -160q0 -94 -66 -155q-67 -62 -160 -62zM1618 2621q102 0 168 -57q65 -56 65 -151q0 -87 -49 -158q-50 -72 -172 -72q-118 0 -180 64q-61 62 -61 166q0 97 63 153 q62 55 166 55z" />
<glyph unicode="&#xa9;" horiz-adv-x="3080" d="M319 942q0 -256 95 -481q94 -223 258 -387q165 -165 387 -256q225 -92 481 -92q259 0 481 94q223 94 387 258q163 163 258 385t95 479q0 256 -95 481q-94 223 -258 387t-387 258q-225 95 -481 95q-257 0 -479 -95q-221 -94 -387 -258q-165 -162 -260 -387t-95 -481z M143 942q0 293 109 549q108 253 297 442t442 297q256 109 549 109q288 0 547 -109q254 -107 444 -297q189 -189 297 -442q109 -256 109 -549q0 -288 -109 -547q-107 -254 -297 -444t-444 -297q-259 -109 -547 -109q-292 0 -551 109q-252 106 -444 295q-189 186 -295 442 q-107 258 -107 551zM1577 1855q189 0 317 -43q131 -44 273 -133q-20 -108 -25 -219q-4 -96 -4 -219q-27 -16 -82 -22q-61 -7 -94 -7q-7 76 -31 164q-22 80 -76 148q-52 65 -137 106t-215 41q-119 0 -198 -55q-79 -56 -129 -150q-50 -95 -72 -221q-23 -130 -23 -266 q0 -141 29 -277q28 -132 94 -237q66 -106 166 -168q102 -64 244 -64q120 0 248 43q130 44 243 166q46 -42 70 -98q-107 -156 -268 -240q-162 -84 -400 -84q-145 0 -293 58q-144 56 -258 172q-112 114 -182 285q-69 169 -69 399q0 210 63 379t180 291q114 118 277 186 q157 65 352 65z" />
<glyph unicode="&#xaa;" horiz-adv-x="1703" d="M1044 2200q-70 -10 -167 -31q-82 -18 -148 -51q-65 -32 -104 -88t-39 -142q0 -106 49 -149t115 -43q50 0 100 22t94 72t72 127t28 188v95zM1413 1999q0 -155 33 -205q33 -49 135 -49q0 -51 -4 -92q-5 -48 -21 -88q-102 -7 -210 -35q-105 -27 -183 -60q-38 11 -67 48 q-27 34 -27 104q0 46 6 80q1 3 10 63q-17 -46 -45 -92q-30 -50 -77 -92q-58 -46 -138 -76q-79 -30 -190 -30q-218 0 -324 88t-106 256q0 128 65 217q65 88 181 151q115 62 268 101q154 39 325 63q0 168 -14 227q-16 65 -55 109q-69 90 -189 90q-65 0 -110 -33t-74 -86 q-28 -51 -43 -114q-13 -53 -18 -123q-54 0 -117 6q-67 6 -105 22q6 68 6 124q0 26 -1 50q-5 93 -21 162q133 72 275 111q149 41 307 41q147 0 239 -33q94 -34 154 -98q35 -35 63 -80q26 -41 41 -103q16 -64 23 -137q8 -83 8 -188v-299z" />
<glyph unicode="&#xab;" horiz-adv-x="2064" d="M856 1708q89 -12 143 -66l-112 -141l-117 -151l-108 -146l-89 -123q89 -157 191 -311q100 -152 207 -291q-12 -93 -82 -139l-344 338l-324 305q0 62 25 139l317 291l150.5 146.5zM1483 1692q84 -7 139 -62q-197 -280 -352 -536q87 -175 166 -316l170 -303 q-24 -81 -95 -115l-151 179l-135 153l-131 144l-140 147q0 39 9 80q6 26 16 55l262 291z" />
<glyph unicode="&#xac;" horiz-adv-x="2199" d="M1798 1217h-749q-119 1 -250 1q-284 0 -693 -6q0 42 11 113q11 70 30 96h1864v-946q-95 -57 -213 -57v799z" />
<glyph unicode="&#xad;" horiz-adv-x="1716" d="M1470 1225q0 -66 -12 -138q-12 -71 -41 -129q-58 0 -268 -2l-322 -4l-317 -4q-153 -2 -264 -6q0 70 18 150t47 133h1159z" />
<glyph unicode="&#xae;" horiz-adv-x="2027" d="M246 2036q0 162 59 301q61 143 164 246q102 102 244 163q139 60 299 60q164 0 305 -60q146 -62 244 -163q100 -103 161 -246q60 -141 60 -301q0 -164 -60 -303q-61 -142 -161 -242q-101 -101 -244 -162q-139 -59 -305 -59q-162 0 -299 59q-139 60 -244 162 q-103 100 -164 242q-59 137 -59 303zM381 2036q0 -137 49 -250q51 -117 133 -199t199 -133q113 -49 250 -49q140 0 256 49t200 133t131 199q48 118 48 250q0 131 -48 252q-46 115 -131 200q-84 84 -200 133q-118 50 -256 50q-135 0 -250 -50q-117 -51 -199 -133 q-84 -84 -133 -200t-49 -252zM1155 2023q-17 -7 -33 -12q57 -70 66 -82q43 -57 74 -102q56 -81 88 -105q29 -22 88 -22v-41q0 -15 -8 -33q-27 0 -103 -2q-51 -1 -98 -10q-57 104 -119 196q-61 92 -135 177q-11 4 -33 4v-148q0 -82 16 -110q17 -30 66 -37q9 -25 10 -37 q2 -22 2 -37q-40 4 -94 4h-156q-45 0 -106 -4v33q0 19 8 41q62 8 80 35t18 112v410q0 95 -18 119t-88 24q-8 18 -8 33v37h381q160 0 229 -60q70 -61 70 -153q0 -57 -31 -103q-28 -42 -74 -77q-45 -34 -92 -50zM971 2396q-7 0 -29 -8v-332q127 4 191 35q63 30 63 121 q0 79 -43 131q-44 53 -154 53h-28z" />
<glyph unicode="&#xaf;" d="M1847 2585q0 -88 -37 -177h-184q-70 0 -330 -2q-50 0 -198 -1.5t-238 -2.5q-242 -2 -504 -6q0 12 9 88q8 65 28 101h1454z" />
<glyph unicode="&#xb0;" horiz-adv-x="1572" d="M778 2867q267 0 408 -141t141 -354q0 -106 -39 -201q-40 -97 -110 -164q-74 -71 -174 -109q-99 -38 -226 -38q-254 0 -393 143t-139 364q0 107 39 197q40 92 110 158q71 67 168 106q96 39 215 39zM754 2712q-95 0 -158 -80q-64 -81 -64 -187q0 -191 93 -307 q92 -115 211 -115q85 0 145 74q59 72 59 230q0 181 -77 282q-79 103 -209 103z" />
<glyph unicode="&#xb1;" d="M1225 1483h696q0 -62 -6 -107q-6 -44 -35 -90q-80 0 -184 2t-156 2q-88 0 -172 -4h-143v-577q-27 -20 -95 -31q-63 -10 -110 -10q0 93 2 215q1 33 2.5 91t1.5 81q2 106 2 153v78h-217q-223 0 -467 -4q0 49 10 109q11 65 31 92h643v184q0 48 -2 184t-2 246q46 29 92 35 t109 6v-655zM2052 532q0 -61 -6 -106q-6 -44 -35 -90q-136 0 -278 2t-193 2h-655q-80 0 -236 -2l-239 -4q-164 -2 -263 -2q0 42 11 108t30 92h1864z" />
<glyph unicode="&#xb2;" horiz-adv-x="1515" d="M774 2937q70 0 152 -19q78 -18 141 -63q64 -46 104 -117q41 -73 41 -174q0 -160 -63 -266q-61 -104 -195 -225l-166 -150l-194 -170h328q98 0 157 49q61 50 68 180q49 0 82 -4q34 -4 69 -12q0 -90 7 -207q6 -107 26 -211q-16 -32 -47 -57t-84 -25q-110 0 -235 4 q-157 5 -289 5q-137 0 -279 -5q-113 -4 -196 -4q-22 34 -29 68q-8 37 -8 68q104 102 250 231l192 170q141 128 209 242q66 111 66 262q0 114 -62 184t-147 70q-102 0 -146 -90q-42 -87 -71 -316q-52 0 -103 4q-58 5 -98 21q8 106 8 213q0 115 -12 209q129 74 242 104 q118 31 282 31z" />
<glyph unicode="&#x2072;" horiz-adv-x="1515" d="M774 2937q70 0 152 -19q78 -18 141 -63q64 -46 104 -117q41 -73 41 -174q0 -160 -63 -266q-61 -104 -195 -225l-166 -150l-194 -170h328q98 0 157 49q61 50 68 180q49 0 82 -4q34 -4 69 -12q0 -90 7 -207q6 -107 26 -211q-16 -32 -47 -57t-84 -25q-110 0 -235 4 q-157 5 -289 5q-137 0 -279 -5q-113 -4 -196 -4q-22 34 -29 68q-8 37 -8 68q104 102 250 231l192 170q141 128 209 242q66 111 66 262q0 114 -62 184t-147 70q-102 0 -146 -90q-42 -87 -71 -316q-52 0 -103 4q-58 5 -98 21q8 106 8 213q0 115 -12 209q129 74 242 104 q118 31 282 31z" />
<glyph unicode="&#xb3;" horiz-adv-x="1511" d="M1049 2929q121 0 172 4q19 -34 26 -68q6 -30 6 -76q-105 -114 -229 -266l-258 -328q22 2 44 2q84 0 163 -24q99 -29 180 -100q80 -70 127 -175q47 -106 47 -239q0 -134 -53 -254q-52 -118 -152 -207q-100 -90 -241 -141q-145 -53 -320 -53q-185 0 -285 51q-98 50 -133 80 q23 45 41 65q21 24 54 45q29 -25 104 -51q76 -27 195 -27q72 0 151 29q75 28 143 86q67 58 107 141q41 85 41 195q0 156 -90 264q-91 109 -275 109q-27 0 -51 -2q-11 -1 -39 -11q-29 25 -43 43q-18 23 -26 64l280 352q109 135 191 246h-254q-72 0 -113 -10q-45 -11 -74 -37 q-31 -27 -57 -76q-25 -46 -55 -123q-34 0 -80 8q-43 7 -72 29q17 134 23 242q6 114 6 217q61 -4 192 -4h607z" />
<glyph unicode="&#x2073;" horiz-adv-x="1511" d="M1049 2929q121 0 172 4q19 -34 26 -68q6 -30 6 -76q-105 -114 -229 -266l-258 -328q22 2 44 2q84 0 163 -24q99 -29 180 -100q80 -70 127 -175q47 -106 47 -239q0 -134 -53 -254q-52 -118 -152 -207q-100 -90 -241 -141q-145 -53 -320 -53q-185 0 -285 51q-98 50 -133 80 q23 45 41 65q21 24 54 45q29 -25 104 -51q76 -27 195 -27q72 0 151 29q75 28 143 86q67 58 107 141q41 85 41 195q0 156 -90 264q-91 109 -275 109q-27 0 -51 -2q-11 -1 -39 -11q-29 25 -43 43q-18 23 -26 64l280 352q109 135 191 246h-254q-72 0 -113 -10q-45 -11 -74 -37 q-31 -27 -57 -76q-25 -46 -55 -123q-34 0 -80 8q-43 7 -72 29q17 134 23 242q6 114 6 217q61 -4 192 -4h607z" />
<glyph unicode="&#xb4;" d="M918 2200q98 203 161 376q69 188 105 328q88 32 166 43q54 7 99 7q20 0 38 -1q37 -4 67 -12q24 -6 52 -16q-133 -154 -279 -359q-142 -200 -262 -391q-15 -2 -30 -2q-22 0 -46 4q-36 6 -71 23z" />
<glyph unicode="&#xb5;" horiz-adv-x="2306" d="M1729 -37q-36 12 -70 53q-33 40 -33 148q0 76 8 164v37q-40 -89 -123 -172q-209 -209 -495 -209q-149 0 -258 36l-66 25v-209q0 -184 15 -305q15 -123 43 -215q-46 -35 -86 -70q-41 -37 -68 -67l-64 -76l-73 -94q-32 11 -53 39q-22 28 -29 51q8 101 22 207q15 117 15 346 v1679q0 75 -6 127q-6 53 -35 88t-82 53q-54 19 -148 23q0 49 4 80q5 36 25 72q72 5 133 18q72 15 141 33q71 19 134 41q57 20 112 47q37 -12 64 -51q26 -38 26 -129v-930q0 -313 82 -441q82 -129 287 -129q80 0 164 41q81 40 145 127t103 220t39 313v418q0 72 -11 127 q-11 54 -43 88q-34 36 -92 53t-162 22q0 49 4 80q5 36 25 72q157 7 311 41q152 33 246 78q37 -12 64 -51q26 -38 26 -129v-1188q0 -62 8 -115q7 -52 37 -88q29 -35 82 -53q54 -19 148 -23q0 -49 -4 -88q-4 -43 -21 -88q-49 0 -115 -10q-69 -10 -141 -27q-69 -16 -135 -41 q-58 -22 -100 -49z" />
<glyph unicode="&#xb6;" d="M1135 1298q-36 -4 -95 -4q-211 0 -372 37q-165 38 -281 121q-117 84 -178 223q-62 141 -62 344q0 157 58 299q57 140 182 242q126 103 320 160q195 57 469 57q208 0 333 -4t289 -4h160q85 0 176 8q0 -50 -4 -86q-5 -41 -21 -86q-91 -5 -145 -25q-57 -21 -84 -63 q-30 -45 -37 -109q-8 -70 -8 -155v-3273q-105 0 -205 41v3584q-92 11 -176 16h-74v-3641q-56 0 -106 6q-45 6 -98 31v2286q-23 -5 -41 -5zM901 2597q-136 -29 -221 -96t-123 -183q-37 -112 -37 -286q0 -151 47 -260q47 -108 127 -181q78 -70 185 -104q105 -33 219 -33h78 v1172q-159 -4 -275 -29z" />
<glyph unicode="&#xb7;" horiz-adv-x="958" d="M467 1352q98 0 172 -62t74 -155q0 -78 -51 -156t-179 -78q-118 0 -178 60q-59 59 -59 153q0 112 65 174q67 64 156 64z" />
<glyph unicode="&#xb8;" d="M1327 66l-197 -271q166 -29 261 -127q96 -99 96 -246q0 -102 -51 -180q-51 -77 -131 -129q-79 -50 -172 -78q-88 -26 -170 -26q-17 30 -23 63q-6 34 -6 68q124 0 223 59q100 60 100 166q0 103 -75 162t-191 59q-30 22 -53 64q-20 37 -20 92l204 324h205z" />
<glyph unicode="&#xb9;" horiz-adv-x="1253" d="M795 1880q0 -130 51 -190t174 -60q16 -76 16 -168q-125 10 -202 11q-144 2 -203 2q-57 0 -205 -2q-78 -1 -209 -11q0 50 4 86q5 43 12 82q124 0 175 60t51 190v627q0 123 -51 184q-51 62 -175 62q-16 67 -16 172q42 -6 86 -7q15 0 53 -1.5t60 -2.5q80 -2 116 -2h99 q36 0 200 2q97 1 205 11q0 -105 -16 -172q-123 0 -174 -62q-51 -61 -51 -184v-627z" />
<glyph unicode="&#x2071;" horiz-adv-x="1253" d="M795 1880q0 -130 51 -190t174 -60q16 -76 16 -168q-125 10 -202 11q-144 2 -203 2q-57 0 -205 -2q-78 -1 -209 -11q0 50 4 86q5 43 12 82q124 0 175 60t51 190v627q0 123 -51 184q-51 62 -175 62q-16 67 -16 172q42 -6 86 -7q15 0 53 -1.5t60 -2.5q80 -2 116 -2h99 q36 0 200 2q97 1 205 11q0 -105 -16 -172q-123 0 -174 -62q-51 -61 -51 -184v-627z" />
<glyph unicode="&#xba;" horiz-adv-x="1712" d="M541 2269q0 -299 92 -469t256 -170q143 0 219 144q76 143 76 376q0 296 -105 459q-105 164 -252 164q-143 0 -215 -141q-71 -139 -71 -363zM164 2191q0 168 53 306q51 134 145 235q91 99 222 152q130 53 276 53q340 0 516 -203t176 -526q0 -170 -49 -305 q-50 -137 -141 -236q-90 -98 -221 -151q-133 -54 -289 -54q-322 0 -506 199q-182 197 -182 530z" />
<glyph unicode="&#xbb;" horiz-adv-x="2129" d="M1102 356q-65 40 -94 119q97 124 196 264l189 281l-95 139l-112 168l-121 170l-115 158q69 57 152 57q127 -125 299 -276l315 -269q16 -33 21 -63q4 -27 4 -68l-326 -338zM467 373q-36 20 -64 51q-24 26 -47 63l160 258l160 275l-78 139l-94 160l-101 166l-96 153 q67 58 160 58l250 -271l266 -262q21 -53 21 -127l-273 -327z" />
<glyph unicode="&#xbc;" horiz-adv-x="3186" d="M418 2388q0 167 -62 227t-250 60q0 28 7 86q6 52 26 90q156 22 291 55t250 80q45 -16 63 -51q19 -36 19 -129v-1061q0 -137 14 -215q15 -85 45 -131q31 -48 78 -66q45 -17 109 -22q8 -33 12 -78q4 -40 4 -94q-30 3 -174 8q-115 4 -272 4q-169 0 -269 -4q-147 -6 -178 -8 q0 108 16 172q70 5 117 20q52 17 86 60q35 44 51 120q17 80 17 205v672zM668 -33q-58 21 -100 49q-41 27 -64 58l2097 2851q42 -11 90 -43q44 -29 74 -64zM2732 782h192q93 0 131 -41q-30 -60 -47 -114q-19 -59 -26 -140h-250v-32q0 -97 10 -150q10 -55 35 -84 q25 -30 63 -37t97 -12q8 -26 14 -82q6 -57 6 -102q-20 0 -88 2q-53 2 -109 6l-114 4h-217l-123 -4q-61 -4 -113 -6q-68 -2 -80 -2q0 51 4 104q4 55 13 80q76 5 120 14q50 10 84 41q32 29 48 84q14 49 14 144v28q-116 -4 -238 -4q-173 -5 -264 -10q-97 -5 -203 -14 q-73 82 -73 200l219 275l237 305l238 319l223 318q107 0 197 -45v-1045zM2396 782v602l-442 -602h442z" />
<glyph unicode="&#xbd;" horiz-adv-x="3592" d="M418 2388q0 167 -62 227t-250 60q0 28 7 86q6 52 26 90q156 22 291 55t250 80q45 -16 63 -51q19 -36 19 -129v-1061q0 -137 14 -215q15 -85 45 -131q31 -48 78 -66q45 -17 109 -22q8 -33 12 -78q4 -40 4 -94q-30 3 -174 8q-115 4 -272 4q-169 0 -269 -4q-147 -6 -178 -8 q0 108 16 172q70 5 117 20q52 17 86 60q35 44 51 120q17 80 17 205v672zM627 -33q-58 21 -100 49q-41 27 -64 58l2097 2851q42 -11 90 -43q44 -29 74 -64zM2716 1839q118 0 223 -24q101 -23 184 -78q81 -54 127 -135q48 -85 48 -197q0 -171 -95 -311q-94 -139 -250 -283 q-141 -132 -237 -233l-238 -259h504q98 0 158 39q59 38 59 150q50 4 96 0t84 -21q-1 -37 -1 -76q0 -68 4 -151q6 -119 26 -199q-20 -36 -65 -51q-42 -14 -140 -14q-7 0 -159 2t-222 2q-128 0 -354 -2t-350 -2q-22 22 -29 53q-8 35 -8 66l139 155l135 148l373 385 q111 119 162 241q51 123 51 295q0 145 -71 244q-72 100 -228 100q-143 0 -205 -90t-90 -282q-119 0 -200 28q12 83 12 170q0 85 -17 199q251 131 574 131z" />
<glyph unicode="&#xbe;" horiz-adv-x="3395" d="M795 2966q210 0 319 4t180 4q54 -63 54 -148l-248 -264l-273 -297q105 0 213 -29t193 -90q88 -63 139 -157q53 -97 53 -228q0 -149 -59 -268q-60 -121 -164 -203t-252 -127q-147 -45 -323 -45q-198 0 -314 49q-115 49 -161 90q-1 9 -1 17q0 33 13 67q16 43 45 76 q47 -31 145 -65q96 -33 240 -33q192 0 317 86t125 270q0 74 -30 131t-84 97q-50 37 -119 59q-63 20 -135 20q-41 0 -70 -4q-35 -5 -66 -16q-27 23 -51 72q-21 43 -26 75l268 299l235 271h-307q-101 0 -162 -56q-59 -55 -116 -206q-48 0 -94 14q-52 16 -82 35q25 109 32 254 q5 106 5 181q0 40 -1 73q83 -5 226 -6q192 -2 336 -2zM791 -33q-58 21 -100 49q-41 27 -64 58l2097 2851q42 -11 90 -43q44 -29 74 -64zM2929 782h192q93 0 131 -41q-30 -60 -47 -114q-19 -59 -26 -140h-250v-32q0 -97 10 -150q10 -55 35 -84q25 -30 63 -37t97 -12 q8 -26 14 -82q6 -57 6 -102q-20 0 -88 2q-53 2 -109 6l-114 4h-217l-123 -4q-61 -4 -113 -6q-68 -2 -80 -2q0 51 4 104q4 55 13 80q76 5 120 14q50 10 84 41q32 29 48 84q14 49 14 144v28q-116 -4 -238 -4q-173 -5 -264 -10q-97 -5 -203 -14q-73 82 -73 200l219 275l237 305 l238 319l223 318q107 0 197 -45v-1045zM2593 782v602l-442 -602h442z" />
<glyph unicode="&#xbf;" horiz-adv-x="2199" d="M1028 -991q-290 0 -475 131q-184 130 -184 385q0 195 92 340q87 137 205 280q110 134 204 289q93 154 93 361q0 42 -13 133q-13 88 -32 141q38 21 71 27q35 6 76 6q69 -45 129 -182q59 -134 59 -310q0 -201 -82 -334q-83 -134 -178 -241q-87 -98 -178 -217 q-82 -107 -82 -256q0 -86 27 -158q27 -71 74 -123q48 -52 106 -80q59 -28 125 -28q158 0 242 120q85 121 118 400q61 0 125 -10q70 -11 109 -31q-13 -152 -14 -242v-20q0 -97 14 -209q-100 -60 -250 -117q-146 -55 -381 -55zM1028 1442q-111 0 -174 74t-63 147q0 131 77 190 q78 60 176 60q119 0 183 -64q63 -63 63 -161q0 -104 -71 -175t-191 -71z" />
<glyph unicode="&#xc0;" horiz-adv-x="2883" d="M1307 2777q67 16 159 16l975 -2236q53 -122 88 -188q38 -72 74 -117q34 -43 70 -62t84 -26q15 -47 20 -90q4 -33 4 -86q-14 0 -90 2q-59 2 -127 6l-135 4h-115q-26 0 -116 -2l-134 -4q-23 -1 -65 -2.5t-60 -1.5q-80 -2 -88 -2q0 54 4 94q5 45 25 82q87 8 133 24 q47 17 64 52q16 34 4 92q-11 54 -53 151l-181 418q-298 0 -561 -4q-283 -5 -524 -12l-107 -283q-68 -173 -68 -270q0 -38 11 -64q38 -92 205 -104q28 -68 28 -176q-79 9 -178 10q-144 2 -211 2q-112 0 -192 -4q-127 -6 -148 -8q0 34 7 88q6 48 22 84q51 12 94 37 q41 24 78 73q37 50 72 129q35 80 84 203zM840 1085h929l-311 730l-51 114l-45 109l-47 112q-15 46 -41 107q-40 -135 -78 -234l-74 -204zM1516 3081q-34 -19 -74 -19h-6q-37 1 -84 10q-152 232 -266 387q-121 164 -254 306q83 41 186 45q20 1 40 1q81 0 167 -14 q47 -158 123 -354q68 -175 168 -362z" />
<glyph unicode="&#xc1;" horiz-adv-x="2883" d="M1307 2777q67 16 159 16l975 -2236q53 -122 88 -188q38 -72 74 -117q34 -43 70 -62t84 -26q15 -47 20 -90q4 -33 4 -86q-14 0 -90 2q-59 2 -127 6l-135 4h-115q-26 0 -116 -2l-134 -4q-23 -1 -65 -2.5t-60 -1.5q-80 -2 -88 -2q0 54 4 94q5 45 25 82q87 8 133 24 q47 17 64 52q16 34 4 92q-11 54 -53 151l-181 418q-298 0 -561 -4q-283 -5 -524 -12l-107 -283q-68 -173 -68 -270q0 -38 11 -64q38 -92 205 -104q28 -68 28 -176q-79 9 -178 10q-144 2 -211 2q-112 0 -192 -4q-127 -6 -148 -8q0 34 7 88q6 48 22 84q51 12 94 37 q41 24 78 73q37 50 72 129q35 80 84 203zM840 1085h929l-311 730l-51 114l-45 109l-47 112q-15 46 -41 107q-40 -135 -78 -234l-74 -204zM1221 3081q98 203 161 376q69 188 105 328q88 32 166 43q54 7 99 7q20 0 38 -1q37 -4 67 -12q24 -6 52 -16q-133 -154 -279 -359 q-142 -200 -262 -391q-15 -2 -30 -2q-22 0 -46 4q-36 6 -71 23z" />
<glyph unicode="&#xc2;" horiz-adv-x="2883" d="M1307 2777q67 16 159 16l975 -2236q53 -122 88 -188q38 -72 74 -117q34 -43 70 -62t84 -26q15 -47 20 -90q4 -33 4 -86q-14 0 -90 2q-59 2 -127 6l-135 4h-115q-26 0 -116 -2l-134 -4q-23 -1 -65 -2.5t-60 -1.5q-80 -2 -88 -2q0 54 4 94q5 45 25 82q87 8 133 24 q47 17 64 52q16 34 4 92q-11 54 -53 151l-181 418q-298 0 -561 -4q-283 -5 -524 -12l-107 -283q-68 -173 -68 -270q0 -38 11 -64q38 -92 205 -104q28 -68 28 -176q-79 9 -178 10q-144 2 -211 2q-112 0 -192 -4q-127 -6 -148 -8q0 34 7 88q6 48 22 84q51 12 94 37 q41 24 78 73q37 50 72 129q35 80 84 203zM840 1085h929l-311 730l-51 114l-45 109l-47 112q-15 46 -41 107q-40 -135 -78 -234l-74 -204zM696 3154q150 114 330 283q170 160 313 332q34 8 70 12q33 4 61 4q119 -162 262 -328q151 -176 336 -360q-41 -53 -123 -74l-139 99 l-147 106q-78 56 -148 100q-78 49 -139 84q-44 -21 -133 -77l-178 -115l-183 -123q-88 -61 -137 -98q-30 30 -37 77q-8 53 -8 78z" />
<glyph unicode="&#xc3;" horiz-adv-x="2883" d="M1307 2777q67 16 159 16l975 -2236q53 -122 88 -188q38 -72 74 -117q34 -43 70 -62t84 -26q15 -47 20 -90q4 -33 4 -86q-14 0 -90 2q-59 2 -127 6l-135 4h-115q-26 0 -116 -2l-134 -4q-23 -1 -65 -2.5t-60 -1.5q-80 -2 -88 -2q0 54 4 94q5 45 25 82q87 8 133 24 q47 17 64 52q16 34 4 92q-11 54 -53 151l-181 418q-298 0 -561 -4q-283 -5 -524 -12l-107 -283q-68 -173 -68 -270q0 -38 11 -64q38 -92 205 -104q28 -68 28 -176q-79 9 -178 10q-144 2 -211 2q-112 0 -192 -4q-127 -6 -148 -8q0 34 7 88q6 48 22 84q51 12 94 37 q41 24 78 73q37 50 72 129q35 80 84 203zM840 1085h929l-311 730l-51 114l-45 109l-47 112q-15 46 -41 107q-40 -135 -78 -234l-74 -204zM823 2999q-41 24 -41 77q123 218 233 295q111 78 213 78q77 0 142 -26q45 -18 135 -58l133 -57q66 -27 135 -27q60 0 123 29 q60 28 127 98q17 0 39 -6t39 -27q-106 -229 -205 -311q-98 -82 -192 -82q-70 0 -138 27q-75 30 -137 61q-73 37 -141 62q-69 26 -150 26q-74 0 -151 -34q-78 -35 -164 -125z" />
<glyph unicode="&#xc4;" horiz-adv-x="2883" d="M1307 2777q67 16 159 16l975 -2236q53 -122 88 -188q38 -72 74 -117q34 -43 70 -62t84 -26q15 -47 20 -90q4 -33 4 -86q-14 0 -90 2q-59 2 -127 6l-135 4h-115q-26 0 -116 -2l-134 -4q-23 -1 -65 -2.5t-60 -1.5q-80 -2 -88 -2q0 54 4 94q5 45 25 82q87 8 133 24 q47 17 64 52q16 34 4 92q-11 54 -53 151l-181 418q-298 0 -561 -4q-283 -5 -524 -12l-107 -283q-68 -173 -68 -270q0 -38 11 -64q38 -92 205 -104q28 -68 28 -176q-79 9 -178 10q-144 2 -211 2q-112 0 -192 -4q-127 -6 -148 -8q0 34 7 88q6 48 22 84q51 12 94 37 q41 24 78 73q37 50 72 129q35 80 84 203zM840 1085h929l-311 730l-51 114l-45 109l-47 112q-15 46 -41 107q-40 -135 -78 -234l-74 -204zM1007 3060q-108 0 -170 59q-63 60 -63 150q0 89 53 162q52 71 172 71q123 0 178 -65q56 -67 56 -160q0 -94 -66 -155q-67 -62 -160 -62 zM1798 3502q102 0 168 -57q65 -56 65 -151q0 -87 -49 -158q-50 -72 -172 -72q-118 0 -180 64q-61 62 -61 166q0 97 63 153q62 55 166 55z" />
<glyph unicode="&#xc5;" horiz-adv-x="2883" d="M1307 2777q67 16 159 16l975 -2236q53 -122 88 -188q38 -72 74 -117q34 -43 70 -62t84 -26q15 -47 20 -90q4 -33 4 -86q-14 0 -90 2q-59 2 -127 6l-135 4h-115q-26 0 -116 -2l-134 -4q-23 -1 -65 -2.5t-60 -1.5q-80 -2 -88 -2q0 54 4 94q5 45 25 82q87 8 133 24 q47 17 64 52q16 34 4 92q-11 54 -53 151l-181 418q-298 0 -561 -4q-283 -5 -524 -12l-107 -283q-68 -173 -68 -270q0 -38 11 -64q38 -92 205 -104q28 -68 28 -176q-79 9 -178 10q-144 2 -211 2q-112 0 -192 -4q-127 -6 -148 -8q0 34 7 88q6 48 22 84q51 12 94 37 q41 24 78 73q37 50 72 129q35 80 84 203zM840 1085h929l-311 730l-51 114l-45 109l-47 112q-15 46 -41 107q-40 -135 -78 -234l-74 -204zM963 3396q0 163 123 274t303 111q74 0 147 -21q75 -22 129 -65q55 -45 90 -113t35 -157q0 -168 -123 -279t-307 -111q-74 0 -149 25 q-68 23 -127 72q-55 46 -88 114q-33 67 -33 150zM1188 3412q0 -94 55 -159q56 -66 158 -66q66 0 117 51t51 146q0 87 -51 172q-51 86 -158 86q-78 0 -125 -62t-47 -168z" />
<glyph unicode="&#xc6;" horiz-adv-x="3915" d="M3002 0h-819q-53 -1 -205.5 -3.5t-228.5 -4.5q0 51 4 92q5 48 25 80q73 11 129 31q52 18 80 61q29 45 41 117q12 73 12 192v656q-183 0 -299 -4q-166 -5 -287 -9q-26 -1 -84 -3.5t-88 -4.5l-147 -266l-168 -299q-77 -141 -99 -223q-16 -59 -16 -102q0 -21 4 -38 q12 -50 59 -77q46 -27 121 -39q29 -70 29 -168q-110 9 -211 10q-156 2 -219 2q-67 0 -211 -2q-99 -1 -170 -10q0 42 6 88q6 45 23 84q53 5 94 24q45 21 94 70q52 52 111 137q57 83 143 232l958 1654q67 113 67 183q0 28 -11 49q-38 71 -236 92q-15 35 -20 84q-4 41 -4 92 q48 0 170 -2l182 -4q120 -2 168 -2h983q421 6 508 8q6 -88 14 -154l10.5 -81.5t10.5 -87.5q14 -114 22 -170q11 -79 29 -150q-33 -28 -80 -39q-44 -10 -105 -10q-7 91 -38 188q-30 94 -107 168q-78 75 -203 119q-127 45 -323 45h-295v-1208h209q245 0 329 86q84 85 84 241 q64 17 103 23q40 6 98 6q0 -16 -2 -86q0 -14 -1.5 -54t-2.5 -63q-2 -84 -2 -133v-241q0 -44 2 -132q1 -24 2.5 -65t1.5 -57q2 -76 2 -91q-13 0 -100 3q-43 1 -88 18q-7 68 -27 145q-18 67 -65 117q-46 49 -134 78q-87 29 -233 29h-176v-656q0 -134 20 -207q21 -75 58 -114 t90 -51q44 -6 69 -9h156q192 0 311 33q120 33 195 98q76 65 121 162q46 98 90 223q67 -23 102 -41q44 -23 78 -57q-48 -153 -76 -305q-31 -166 -51 -305q-76 0 -278 2q-152 2 -308 6zM2040 2339q0 64 4 119q2 20 4.5 60t3.5 54l-33 -73q-25 -55 -57 -113l-82 -150l-250 -430 l-233 -409h643v942z" />
<glyph unicode="&#xc7;" horiz-adv-x="2674" d="M1511 2806q255 0 469 -53q207 -51 441 -160q-33 -144 -39 -303t-6 -332q-54 -22 -103 -29q-53 -8 -114 -8q-7 211 -54 356q-45 140 -125 220t-190 110q-115 31 -246 31q-258 0 -442 -94t-301 -252q-116 -156 -172 -361q-56 -204 -56 -415q0 -275 72 -512 q73 -241 205 -414q135 -178 328 -277q194 -100 440 -100q196 0 401 66q207 66 377 176q25 -22 47 -60q23 -39 27 -67q-123 -94 -240 -162q-121 -70 -239 -113t-258 -65q-110 -20 -250 -25l-123 -168q165 -29 260 -127q96 -99 96 -246q0 -102 -51 -180q-51 -77 -131 -129 q-79 -50 -172 -78q-88 -26 -170 -26q-17 30 -23 63q-6 34 -6 68q124 0 223 59q101 60 101 166q0 102 -76 162q-75 59 -190 59q-32 23 -54 64q-20 37 -20 92l143 229q-195 21 -372 95q-239 108 -410 296q-171 189 -268 457t-97 586q0 351 117 614q118 265 307 439 q192 177 437 262q247 86 507 86z" />
<glyph unicode="&#xc8;" horiz-adv-x="2392" d="M1257 3081q-34 -19 -74 -19h-6q-37 1 -84 10q-152 232 -266 387q-121 164 -254 306q83 41 186 45q20 1 40 1q81 0 167 -14q47 -158 123 -354q68 -175 168 -362zM1991 2781q6 -86 14 -153l20 -172q8 -65 23 -172q11 -79 29 -150q-33 -28 -80 -39q-44 -10 -105 -10 q-7 87 -39 188q-30 95 -106 168q-78 75 -203 119q-128 45 -323 45h-295v-1122h172q133 0 213 14q90 16 139 51q55 39 78 103q24 66 24 164q49 15 97 22q43 6 100 6q-8 -114 -8 -225v-459q0 -123 8 -237q-61 0 -100 4q-46 5 -88 16q-7 106 -35 176q-27 69 -80 113 q-51 42 -137 59q-87 17 -211 17h-172v-742q0 -119 14 -188q15 -74 55 -117q39 -42 113 -59t186 -17h25q189 0 307 33q120 33 195 98q77 66 123 162q49 101 92 223q67 -23 102 -41q44 -23 78 -57q-48 -153 -76 -305q-31 -166 -51 -305q-32 0 -150 2q-24 0 -89.5 1.5 t-104.5 2.5q-142 2 -221 2h-496q-101 0 -301 -2q-54 -1 -148.5 -2.5t-134.5 -1.5q-133 -1 -211 -6q0 119 21 176q83 5 137 22t88 64q32 43 47 121q15 77 15 194v1684q0 204 -60 276q-60 73 -223 80q-11 31 -16 80q-4 41 -4 96q62 -5 155 -6l195 -4q134 -2 190 -2h148 q452 0 692 4q308 5 373 8z" />
<glyph unicode="&#xc9;" horiz-adv-x="2392" d="M1127 3081q98 203 161 376q69 188 105 328q88 32 166 43q54 7 99 7q20 0 38 -1q37 -4 67 -12q24 -6 52 -16q-133 -154 -279 -359q-142 -200 -262 -391q-15 -2 -30 -2q-22 0 -46 4q-36 6 -71 23zM1991 2781q6 -86 14 -153l20 -172q8 -65 23 -172q11 -79 29 -150 q-33 -28 -80 -39q-44 -10 -105 -10q-7 87 -39 188q-30 95 -106 168q-78 75 -203 119q-128 45 -323 45h-295v-1122h172q133 0 213 14q90 16 139 51q55 39 78 103q24 66 24 164q49 15 97 22q43 6 100 6q-8 -114 -8 -225v-459q0 -123 8 -237q-61 0 -100 4q-46 5 -88 16 q-7 106 -35 176q-27 69 -80 113q-51 42 -137 59q-87 17 -211 17h-172v-742q0 -119 14 -188q15 -74 55 -117q39 -42 113 -59t186 -17h25q189 0 307 33q120 33 195 98q77 66 123 162q49 101 92 223q67 -23 102 -41q44 -23 78 -57q-48 -153 -76 -305q-31 -166 -51 -305 q-32 0 -150 2q-24 0 -89.5 1.5t-104.5 2.5q-142 2 -221 2h-496q-101 0 -301 -2q-54 -1 -148.5 -2.5t-134.5 -1.5q-133 -1 -211 -6q0 119 21 176q83 5 137 22t88 64q32 43 47 121q15 77 15 194v1684q0 204 -60 276q-60 73 -223 80q-11 31 -16 80q-4 41 -4 96q62 -5 155 -6 l195 -4q134 -2 190 -2h148q452 0 692 4q308 5 373 8z" />
<glyph unicode="&#xca;" horiz-adv-x="2392" d="M508 3154q150 114 330 283q170 160 313 332q34 8 70 12q33 4 61 4q119 -162 262 -328q151 -176 336 -360q-41 -53 -123 -74l-139 99l-147 106q-78 56 -148 100q-78 49 -139 84q-44 -21 -133 -77l-178 -115l-183 -123q-88 -61 -137 -98q-30 30 -37 77q-8 53 -8 78z M1991 2781q6 -86 14 -153l20 -172q8 -65 23 -172q11 -79 29 -150q-33 -28 -80 -39q-44 -10 -105 -10q-7 87 -39 188q-30 95 -106 168q-78 75 -203 119q-128 45 -323 45h-295v-1122h172q133 0 213 14q90 16 139 51q55 39 78 103q24 66 24 164q49 15 97 22q43 6 100 6 q-8 -114 -8 -225v-459q0 -123 8 -237q-61 0 -100 4q-46 5 -88 16q-7 106 -35 176q-27 69 -80 113q-51 42 -137 59q-87 17 -211 17h-172v-742q0 -119 14 -188q15 -74 55 -117q39 -42 113 -59t186 -17h25q189 0 307 33q120 33 195 98q77 66 123 162q49 101 92 223 q67 -23 102 -41q44 -23 78 -57q-48 -153 -76 -305q-31 -166 -51 -305q-32 0 -150 2q-24 0 -89.5 1.5t-104.5 2.5q-142 2 -221 2h-496q-101 0 -301 -2q-54 -1 -148.5 -2.5t-134.5 -1.5q-133 -1 -211 -6q0 119 21 176q83 5 137 22t88 64q32 43 47 121q15 77 15 194v1684 q0 204 -60 276q-60 73 -223 80q-11 31 -16 80q-4 41 -4 96q62 -5 155 -6l195 -4q134 -2 190 -2h148q452 0 692 4q308 5 373 8z" />
<glyph unicode="&#xcb;" horiz-adv-x="2392" d="M753 3060q-108 0 -170 59q-63 60 -63 150q0 89 53 162q52 71 172 71q123 0 178 -65q56 -67 56 -160q0 -94 -66 -155q-67 -62 -160 -62zM1544 3502q102 0 168 -57q65 -56 65 -151q0 -87 -49 -158q-50 -72 -172 -72q-118 0 -180 64q-61 62 -61 166q0 97 63 153 q62 55 166 55zM1991 2781q6 -86 14 -153l20 -172q8 -65 23 -172q11 -79 29 -150q-33 -28 -80 -39q-44 -10 -105 -10q-7 87 -39 188q-30 95 -106 168q-78 75 -203 119q-128 45 -323 45h-295v-1122h172q133 0 213 14q90 16 139 51q55 39 78 103q24 66 24 164q49 15 97 22 q43 6 100 6q-8 -114 -8 -225v-459q0 -123 8 -237q-61 0 -100 4q-46 5 -88 16q-7 106 -35 176q-27 69 -80 113q-51 42 -137 59q-87 17 -211 17h-172v-742q0 -119 14 -188q15 -74 55 -117q39 -42 113 -59t186 -17h25q189 0 307 33q120 33 195 98q77 66 123 162q49 101 92 223 q67 -23 102 -41q44 -23 78 -57q-48 -153 -76 -305q-31 -166 -51 -305q-32 0 -150 2q-24 0 -89.5 1.5t-104.5 2.5q-142 2 -221 2h-496q-101 0 -301 -2q-54 -1 -148.5 -2.5t-134.5 -1.5q-133 -1 -211 -6q0 119 21 176q83 5 137 22t88 64q32 43 47 121q15 77 15 194v1684 q0 204 -60 276q-60 73 -223 80q-11 31 -16 80q-4 41 -4 96q62 -5 155 -6l195 -4q134 -2 190 -2h148q452 0 692 4q308 5 373 8z" />
<glyph unicode="&#xcc;" horiz-adv-x="1540" d="M623 2249q0 204 -60 276q-60 73 -223 80q-21 57 -21 176q225 -12 496 -12q90 0 252 2q100 1 244 10q0 -119 -21 -176q-163 -7 -223 -80q-59 -71 -59 -276v-1729q0 -205 59 -276q60 -73 223 -80q21 -57 21 -176q-246 12 -496 12q-74 0 -254 -2q-119 -1 -242 -10 q0 119 21 176q163 7 223 80q60 72 60 276v1729zM918 3081q-34 -19 -74 -19h-6q-37 1 -84 10q-152 232 -266 387q-121 164 -254 306q83 41 186 45q20 1 40 1q81 0 167 -14q47 -158 123 -354q68 -175 168 -362z" />
<glyph unicode="&#xcd;" horiz-adv-x="1556" d="M537 2249q0 204 -60 276q-60 73 -223 80q-21 57 -21 176q225 -12 496 -12q90 0 252 2q100 1 244 10q0 -119 -21 -176q-163 -7 -223 -80q-59 -71 -59 -276v-1729q0 -205 59 -276q60 -73 223 -80q21 -57 21 -176q-246 12 -496 12q-74 0 -254 -2q-119 -1 -242 -10 q0 119 21 176q163 7 223 80q60 72 60 276v1729zM644 3081q98 203 161 376q69 188 105 328q88 32 166 43q54 7 99 7q20 0 38 -1q37 -4 67 -12q24 -6 52 -16q-133 -154 -279 -359q-142 -200 -262 -391q-15 -2 -30 -2q-22 0 -46 4q-36 6 -71 23z" />
<glyph unicode="&#xce;" horiz-adv-x="1835" d="M689 2249q0 204 -60 276q-60 73 -223 80q-21 57 -21 176q225 -12 496 -12q90 0 252 2q100 1 244 10q0 -119 -21 -176q-163 -7 -223 -80q-59 -71 -59 -276v-1729q0 -205 59 -276q60 -73 223 -80q21 -57 21 -176q-246 12 -496 12q-74 0 -254 -2q-119 -1 -242 -10 q0 119 21 176q163 7 223 80q60 72 60 276v1729zM217 3154q150 114 330 283q170 160 313 332q34 8 70 12q33 4 61 4q119 -162 262 -328q151 -176 336 -360q-41 -53 -123 -74l-139 99l-147 106q-78 56 -148 100q-78 49 -139 84q-44 -21 -133 -77l-178 -115l-183 -123 q-88 -61 -137 -98q-30 30 -37 77q-8 53 -8 78z" />
<glyph unicode="&#xcf;" horiz-adv-x="1720" d="M680 2249q0 204 -60 276q-60 73 -223 80q-21 57 -21 176q225 -12 496 -12q90 0 252 2q100 1 244 10q0 -119 -21 -176q-163 -7 -223 -80q-59 -71 -59 -276v-1729q0 -205 59 -276q60 -73 223 -80q21 -57 21 -176q-246 12 -496 12q-74 0 -254 -2q-119 -1 -242 -10 q0 119 21 176q163 7 223 80q60 72 60 276v1729zM471 3060q-108 0 -170 59q-63 60 -63 150q0 89 53 162q52 71 172 71q123 0 178 -65q56 -67 56 -160q0 -94 -66 -155q-67 -62 -160 -62zM1262 3502q102 0 168 -57q65 -56 65 -151q0 -87 -49 -158q-50 -72 -172 -72 q-118 0 -180 64q-61 62 -61 166q0 97 63 153q62 55 166 55z" />
<glyph unicode="&#xd0;" horiz-adv-x="2977" d="M221 2781q40 -4 105 -6q63 -2 133 -4q92 -2 143 -2h139q151 0 271 4t266 4q273 0 549 -49q277 -49 502 -191q222 -140 364 -401q141 -260 141 -682q0 -332 -84 -569q-86 -241 -217 -398q-133 -159 -303 -258q-164 -96 -342 -147q-173 -50 -334 -66q-157 -16 -276 -16 h-266q-101 0 -301 -2q-54 -1 -148.5 -2.5t-134.5 -1.5q-133 -1 -211 -6q0 119 21 176q83 5 137 22t88 64q32 43 47 121q14 71 14 194v451h-147q-80 0 -234 -8q0 39 13 112q13 71 32 97h336v1032q0 205 -59 276q-60 73 -223 80q-13 35 -17 80q-4 41 -4 96zM909 565 q0 -115 15 -188q15 -74 55 -117q39 -42 113 -59t186 -17q246 0 453 60q209 60 358 198q153 141 238 371q86 232 86 580q0 330 -101 565t-268 381q-169 148 -385 215t-447 67q-77 0 -161 -10q-95 -11 -142 -26v-1368h733q0 -58 -8 -111q-7 -47 -37 -94q-76 0 -194 2t-174 2 h-320v-451z" />
<glyph unicode="&#xd1;" horiz-adv-x="3104" d="M2101 2781q104 -9 195 -10q140 -2 190 -2q49 0 197 2q96 1 192 10q0 -46 -4 -86q-5 -48 -16 -90q-69 0 -115 -29t-74 -96q-28 -66 -40 -178q-13 -120 -13 -279v-2039q-35 -13 -78 -17q-40 -4 -90 -4l-1700 2220v-1417q0 -162 13 -289q12 -117 45 -186q33 -70 88 -98 q56 -29 137 -29q11 -35 16 -78q5 -45 5 -98q-110 9 -205 10q-148 2 -201 2q-49 0 -211 -2q-109 -1 -199 -10q0 48 5 96q5 44 16 80q81 0 137 29q55 28 88 98q33 69 45 186q13 127 13 289v1692l-17 20q-57 73 -110 96q-55 24 -156 31q-11 42 -16 94q-5 55 -5 82 q71 -9 144 -10q110 -2 160 -2q163 0 274 12l1593 -2113v1355q0 168 -12 279q-12 110 -45 178t-88 96q-56 29 -137 29q-13 76 -17 105q-4 31 -4 71zM967 2999q-41 24 -41 77q123 218 233 295q111 78 213 78q77 0 142 -26q45 -18 135 -58l133 -57q66 -27 135 -27q60 0 123 29 q60 28 127 98q17 0 39 -6t39 -27q-106 -229 -205 -311q-98 -82 -192 -82q-70 0 -138 27q-75 30 -137 61q-73 37 -141 62q-69 26 -150 26q-74 0 -151 -34q-78 -35 -164 -125z" />
<glyph unicode="&#xd2;" horiz-adv-x="2994" d="M143 1393q0 311 105 571q106 262 287 449q182 188 430 290q250 103 530 103q293 0 543 -103q248 -102 428 -288q179 -185 282 -447t103 -575q0 -303 -101 -564t-280 -452q-180 -192 -428 -303t-547 -111q-300 0 -553 109q-247 107 -428 301q-177 191 -274 452 q-97 262 -97 568zM565 1503q0 -257 66 -499q67 -246 194 -429q130 -187 318 -299t434 -112q201 0 358 88q158 89 269 240q111 152 168 356q57 206 57 438q0 274 -78 516t-213 422q-136 182 -321 283q-186 102 -408 102q-179 0 -336 -80q-155 -79 -268 -225 q-113 -147 -176 -348q-64 -206 -64 -453zM1610 3081q-34 -19 -74 -19h-6q-37 1 -84 10q-152 232 -266 387q-121 164 -254 306q83 41 186 45q20 1 40 1q81 0 167 -14q47 -158 123 -354q68 -175 168 -362z" />
<glyph unicode="&#xd3;" horiz-adv-x="2994" d="M143 1393q0 311 105 571q106 262 287 449q182 188 430 290q250 103 530 103q293 0 543 -103q248 -102 428 -288q179 -185 282 -447t103 -575q0 -303 -101 -564t-280 -452q-180 -192 -428 -303t-547 -111q-300 0 -553 109q-247 107 -428 301q-177 191 -274 452 q-97 262 -97 568zM565 1503q0 -257 66 -499q67 -246 194 -429q130 -187 318 -299t434 -112q201 0 358 88q158 89 269 240q111 152 168 356q57 206 57 438q0 274 -78 516t-213 422q-136 182 -321 283q-186 102 -408 102q-179 0 -336 -80q-155 -79 -268 -225 q-113 -147 -176 -348q-64 -206 -64 -453zM1393 3081q98 203 161 376q69 188 105 328q88 32 166 43q54 7 99 7q20 0 38 -1q37 -4 67 -12q24 -6 52 -16q-133 -154 -279 -359q-142 -200 -262 -391q-15 -2 -30 -2q-22 0 -46 4q-36 6 -71 23z" />
<glyph unicode="&#xd4;" horiz-adv-x="2994" d="M143 1393q0 311 105 571q106 262 287 449q182 188 430 290q250 103 530 103q293 0 543 -103q248 -102 428 -288q179 -185 282 -447t103 -575q0 -303 -101 -564t-280 -452q-180 -192 -428 -303t-547 -111q-300 0 -553 109q-247 107 -428 301q-177 191 -274 452 q-97 262 -97 568zM565 1503q0 -257 66 -499q67 -246 194 -429q130 -187 318 -299t434 -112q201 0 358 88q158 89 269 240q111 152 168 356q57 206 57 438q0 274 -78 516t-213 422q-136 182 -321 283q-186 102 -408 102q-179 0 -336 -80q-155 -79 -268 -225 q-113 -147 -176 -348q-64 -206 -64 -453zM819 3154q150 114 330 283q170 160 313 332q34 8 70 12q33 4 61 4q119 -162 262 -328q151 -176 336 -360q-41 -53 -123 -74l-139 99l-147 106q-78 56 -148 100q-78 49 -139 84q-44 -21 -133 -77l-178 -115l-183 -123 q-88 -61 -137 -98q-30 30 -37 77q-8 53 -8 78z" />
<glyph unicode="&#xd5;" horiz-adv-x="2994" d="M143 1393q0 311 105 571q106 262 287 449q182 188 430 290q250 103 530 103q293 0 543 -103q248 -102 428 -288q179 -185 282 -447t103 -575q0 -303 -101 -564t-280 -452q-180 -192 -428 -303t-547 -111q-300 0 -553 109q-247 107 -428 301q-177 191 -274 452 q-97 262 -97 568zM565 1503q0 -257 66 -499q67 -246 194 -429q130 -187 318 -299t434 -112q201 0 358 88q158 89 269 240q111 152 168 356q57 206 57 438q0 274 -78 516t-213 422q-136 182 -321 283q-186 102 -408 102q-179 0 -336 -80q-155 -79 -268 -225 q-113 -147 -176 -348q-64 -206 -64 -453zM905 2999q-41 24 -41 77q123 218 233 295q111 78 213 78q77 0 142 -26q45 -18 135 -58l133 -57q66 -27 135 -27q60 0 123 29q60 28 127 98q17 0 39 -6t39 -27q-106 -229 -205 -311q-98 -82 -192 -82q-70 0 -138 27q-75 30 -137 61 q-73 37 -141 62q-69 26 -150 26q-74 0 -151 -34q-78 -35 -164 -125z" />
<glyph unicode="&#xd6;" horiz-adv-x="2994" d="M143 1393q0 311 105 571q106 262 287 449q182 188 430 290q250 103 530 103q293 0 543 -103q248 -102 428 -288q179 -185 282 -447t103 -575q0 -303 -101 -564t-280 -452q-180 -192 -428 -303t-547 -111q-300 0 -553 109q-247 107 -428 301q-177 191 -274 452 q-97 262 -97 568zM565 1503q0 -257 66 -499q67 -246 194 -429q130 -187 318 -299t434 -112q201 0 358 88q158 89 269 240q111 152 168 356q57 206 57 438q0 274 -78 516t-213 422q-136 182 -321 283q-186 102 -408 102q-179 0 -336 -80q-155 -79 -268 -225 q-113 -147 -176 -348q-64 -206 -64 -453zM1101 3060q-108 0 -170 59q-63 60 -63 150q0 89 53 162q52 71 172 71q123 0 178 -65q56 -67 56 -160q0 -94 -66 -155q-67 -62 -160 -62zM1892 3502q102 0 168 -57q65 -56 65 -151q0 -87 -49 -158q-50 -72 -172 -72q-118 0 -180 64 q-61 62 -61 166q0 97 63 153q62 55 166 55z" />
<glyph unicode="&#xd7;" horiz-adv-x="2535" d="M475 -37q-64 0 -127 17q-61 16 -98 61l852 905l-938 881q36 43 90 71q52 27 123 27l872 -823l824 872q62 -15 108 -41q43 -24 84 -69l-391 -406l-473 -500l962 -897q-73 -98 -225 -98l-881 840l-348 -369z" />
<glyph unicode="&#xd8;" horiz-adv-x="2994" d="M143 1393q0 311 105 571q106 262 287 449q182 188 430 290q250 103 530 103q293 0 541 -103q125 -50 225 -118l213 286q62 0 115 -12t94 -53l-262 -348l45 -45q179 -184 282 -445q103 -262 103 -575q0 -303 -101 -564t-280 -452q-180 -192 -428 -303t-547 -111 q-301 0 -553 107q-151 68 -270 155l-271 -344q-57 0 -108 27q-52 28 -72 63l307 385l-16 17q-176 193 -272 452q-97 262 -97 568zM1143 274q187 -110 434 -110q201 0 358 88q158 89 269 240q111 152 168 356q57 206 57 438q0 274 -78 516q-67 208 -172 365l-1286 -1680 q107 -128 250 -213zM565 1503q0 -257 66 -499q53 -194 143 -353l1278 1671q-108 112 -237 185q-185 102 -406 102q-179 0 -336 -80q-155 -79 -268 -225q-113 -147 -176 -348q-64 -206 -64 -453z" />
<glyph unicode="&#xd9;" horiz-adv-x="2887" d="M2396 1102q0 -184 -10 -314q-11 -140 -37 -245q-27 -110 -72 -193q-45 -84 -114 -153q-121 -121 -287 -177q-168 -57 -377 -57q-284 0 -479 64q-191 63 -309 188q-116 124 -166 309q-49 183 -49 422v1303q0 107 -11 176q-11 67 -36 102q-26 36 -74 53q-50 18 -121 25 q-11 42 -16 90q-5 50 -5 86q95 -9 216 -10q178 -2 260 -2q84 0 254 2q112 1 221 10q0 -46 -4 -86q-4 -42 -17 -90q-92 -8 -145 -22q-57 -15 -86 -52q-31 -39 -41 -104q-10 -64 -10 -178v-1245q0 -177 32 -324q33 -150 113 -262q80 -111 213 -174q136 -64 338 -64 q100 0 225 35q122 34 209 121q49 49 82 106q31 53 53 144q20 83 31 202q10 111 10 281v1016q0 153 -10 244q-10 93 -41 155q-29 58 -86 86t-145 35q-14 69 -17 96q-4 31 -4 80q80 -9 180 -10q148 -2 205 -2q59 0 201 2q92 1 188 10q0 -32 -4 -67q-6 -51 -16 -109 q-70 -8 -117 -35q-48 -28 -76 -84q-29 -57 -39 -155q-10 -94 -10 -246v-983zM1618 3081q-34 -19 -74 -19h-6q-37 1 -84 10q-152 232 -266 387q-121 164 -254 306q83 41 186 45q20 1 40 1q81 0 167 -14q47 -158 123 -354q68 -175 168 -362z" />
<glyph unicode="&#xda;" horiz-adv-x="2887" d="M2396 1102q0 -184 -10 -314q-11 -140 -37 -245q-27 -110 -72 -193q-45 -84 -114 -153q-121 -121 -287 -177q-168 -57 -377 -57q-284 0 -479 64q-191 63 -309 188q-116 124 -166 309q-49 183 -49 422v1303q0 107 -11 176q-11 67 -36 102q-26 36 -74 53q-50 18 -121 25 q-11 42 -16 90q-5 50 -5 86q95 -9 216 -10q178 -2 260 -2q84 0 254 2q112 1 221 10q0 -46 -4 -86q-4 -42 -17 -90q-92 -8 -145 -22q-57 -15 -86 -52q-31 -39 -41 -104q-10 -64 -10 -178v-1245q0 -177 32 -324q33 -150 113 -262q80 -111 213 -174q136 -64 338 -64 q100 0 225 35q122 34 209 121q49 49 82 106q31 53 53 144q20 83 31 202q10 111 10 281v1016q0 153 -10 244q-10 93 -41 155q-29 58 -86 86t-145 35q-14 69 -17 96q-4 31 -4 80q80 -9 180 -10q148 -2 205 -2q59 0 201 2q92 1 188 10q0 -32 -4 -67q-6 -51 -16 -109 q-70 -8 -117 -35q-48 -28 -76 -84q-29 -57 -39 -155q-10 -94 -10 -246v-983zM1508 3081q98 203 161 376q69 188 105 328q88 32 166 43q54 7 99 7q20 0 38 -1q37 -4 67 -12q24 -6 52 -16q-133 -154 -279 -359q-142 -200 -262 -391q-15 -2 -30 -2q-22 0 -46 4q-36 6 -71 23z " />
<glyph unicode="&#xdb;" horiz-adv-x="2887" d="M2396 1102q0 -184 -10 -314q-11 -140 -37 -245q-27 -110 -72 -193q-45 -84 -114 -153q-121 -121 -287 -177q-168 -57 -377 -57q-284 0 -479 64q-191 63 -309 188q-116 124 -166 309q-49 183 -49 422v1303q0 107 -11 176q-11 67 -36 102q-26 36 -74 53q-50 18 -121 25 q-11 42 -16 90q-5 50 -5 86q95 -9 216 -10q178 -2 260 -2q84 0 254 2q112 1 221 10q0 -46 -4 -86q-4 -42 -17 -90q-92 -8 -145 -22q-57 -15 -86 -52q-31 -39 -41 -104q-10 -64 -10 -178v-1245q0 -177 32 -324q33 -150 113 -262q80 -111 213 -174q136 -64 338 -64 q100 0 225 35q122 34 209 121q49 49 82 106q31 53 53 144q20 83 31 202q10 111 10 281v1016q0 153 -10 244q-10 93 -41 155q-29 58 -86 86t-145 35q-14 69 -17 96q-4 31 -4 80q80 -9 180 -10q148 -2 205 -2q59 0 201 2q92 1 188 10q0 -32 -4 -67q-6 -51 -16 -109 q-70 -8 -117 -35q-48 -28 -76 -84q-29 -57 -39 -155q-10 -94 -10 -246v-983zM848 3154q150 114 330 283q170 160 313 332q34 8 70 12q33 4 61 4q119 -162 262 -328q151 -176 336 -360q-41 -53 -123 -74l-139 99l-147 106q-78 56 -148 100q-78 49 -139 84q-44 -21 -133 -77 l-178 -115l-183 -123q-88 -61 -137 -98q-30 30 -37 77q-8 53 -8 78z" />
<glyph unicode="&#xdc;" horiz-adv-x="2887" d="M2396 1102q0 -184 -10 -314q-11 -140 -37 -245q-27 -110 -72 -193q-45 -84 -114 -153q-121 -121 -287 -177q-168 -57 -377 -57q-284 0 -479 64q-191 63 -309 188q-116 124 -166 309q-49 183 -49 422v1303q0 107 -11 176q-11 67 -36 102q-26 36 -74 53q-50 18 -121 25 q-11 42 -16 90q-5 50 -5 86q95 -9 216 -10q178 -2 260 -2q84 0 254 2q112 1 221 10q0 -46 -4 -86q-4 -42 -17 -90q-92 -8 -145 -22q-57 -15 -86 -52q-31 -39 -41 -104q-10 -64 -10 -178v-1245q0 -177 32 -324q33 -150 113 -262q80 -111 213 -174q136 -64 338 -64 q100 0 225 35q122 34 209 121q49 49 82 106q31 53 53 144q20 83 31 202q10 111 10 281v1016q0 153 -10 244q-10 93 -41 155q-29 58 -86 86t-145 35q-14 69 -17 96q-4 31 -4 80q80 -9 180 -10q148 -2 205 -2q59 0 201 2q92 1 188 10q0 -32 -4 -67q-6 -51 -16 -109 q-70 -8 -117 -35q-48 -28 -76 -84q-29 -57 -39 -155q-10 -94 -10 -246v-983zM1155 3060q-108 0 -170 59q-63 60 -63 150q0 89 53 162q52 71 172 71q123 0 178 -65q56 -67 56 -160q0 -94 -66 -155q-67 -62 -160 -62zM1946 3502q102 0 168 -57q65 -56 65 -151q0 -87 -49 -158 q-50 -72 -172 -72q-118 0 -180 64q-61 62 -61 166q0 97 63 153q62 55 166 55z" />
<glyph unicode="&#xdd;" horiz-adv-x="2580" d="M1499 1208v-540q0 -168 10 -258q11 -95 43 -144q32 -47 95 -69q61 -21 168 -33q24 -74 24 -176l-270 8q-120 4 -250 4h-148q-51 0 -155 -2q-28 -1 -77.5 -2.5t-68.5 -1.5q-90 -2 -108 -2q0 45 6 90q6 44 18 82q110 7 175 26q63 18 98 64q34 45 45 131q10 81 10 229v590 l-684 1163q-41 66 -72 111q-31 46 -63 74q-34 29 -72 41q-37 11 -96 16q-17 45 -21 84q-4 35 -4 84q85 -4 197 -6q148 -2 229 -2h283q55 0 147 2q70 2 119 6q0 -49 -4 -80q-5 -39 -16 -80q-161 -17 -183 -82q-4 -13 -4 -29q0 -68 76 -196l262 -463q139 -250 222 -417 l204 385l230 413q90 159 90 241q0 22 -6 38q-30 78 -195 102q-14 52 -20 84q-9 47 -9 84q78 -8 189 -8h213q62 0 188 2q95 2 164 6q0 -84 -16 -160q-61 -18 -103 -43q-47 -28 -94 -75q-51 -51 -102 -127q-54 -80 -119 -197zM1307 3081q98 203 161 376q69 188 105 328 q88 32 166 43q54 7 99 7q20 0 38 -1q37 -4 67 -12q24 -6 52 -16q-133 -154 -279 -359q-142 -200 -262 -391q-15 -2 -30 -2q-22 0 -46 4q-36 6 -71 23z" />
<glyph unicode="&#xde;" horiz-adv-x="2482" d="M532 2249q0 205 -59 276q-60 73 -223 80q-21 57 -21 176q225 -12 496 -12q90 0 252 2q100 1 244 10q0 -119 -21 -176q-163 -7 -223 -80q-59 -71 -59 -276v-45q40 4 94 4q60 0 192 2t185 2q225 0 389 -60q167 -61 270 -163q108 -106 158 -244q51 -139 51 -295 q0 -148 -57 -295q-57 -146 -175 -266q-118 -119 -290 -195q-173 -76 -408 -76q-83 0 -158 11q-79 11 -129 30q-7 33 -6 70q1 33 10 66q55 -13 107 -17q47 -4 119 -4q110 0 221 25q105 24 190 92q86 69 136 180q51 113 51 293q0 149 -41 278q-40 127 -127 220 q-86 92 -217 143t-316 51q-66 0 -127 -8q-52 -5 -122 -20v-1508q0 -205 59 -276q60 -73 223 -80q21 -57 21 -176q-246 12 -496 12q-74 0 -254 -2q-119 -1 -242 -10q0 119 21 176q163 7 223 80q59 71 59 276v1729z" />
<glyph unicode="&#xdf;" horiz-adv-x="2420" d="M475 1606q-43 18 -151 34q-102 15 -177 15q0 33 13 88q12 52 45 92h270v164q0 240 82 414q83 177 211 290q130 115 285 170q157 56 299 56q148 0 260 -45q111 -44 188 -123q75 -77 113 -176q37 -98 37 -209q0 -125 -35 -215q-34 -87 -86 -156q-51 -68 -113 -119 t-112 -100q-51 -49 -86 -103q-35 -53 -35 -122q0 -109 59 -177q62 -71 150 -127q84 -53 192 -112q106 -58 193 -133q88 -76 149 -189q60 -111 60 -278q0 -114 -50 -217q-51 -106 -133 -183q-87 -82 -194 -127q-112 -47 -230 -47q-80 0 -166 9q-69 7 -133 26q-58 17 -114 49 q-49 28 -111 72q9 109 10 213v39q0 97 -6 186q28 21 86 33q57 12 107 12q24 -266 98 -381q74 -114 254 -114q106 0 186 96q80 97 80 252q0 111 -59 186t-152 133q-106 66 -196 111q-102 51 -197 121q-92 68 -152 162q-59 93 -59 237q0 115 41 195q41 81 102 143 q60 61 132 113q77 55 131 104q61 56 102 123q41 68 41 162q0 91 -37 172q-38 83 -102 143t-156 98q-89 37 -192 37q-98 0 -164 -26q-72 -28 -117 -92q-48 -68 -70 -179q-22 -110 -22 -280v-2134q-52 4 -129 6q-102 2 -183 2q-74 0 -200 -2q-84 -1 -160 -10q0 119 21 176 q163 7 223 80q59 71 59 276v1086z" />
<glyph unicode="&#xe0;" horiz-adv-x="1978" d="M1253 930q-102 -11 -221 -35q-113 -22 -209 -68q-93 -44 -157 -125t-64 -215q0 -152 74 -221t168 -69q67 0 137 32t133 103q60 67 100 178q39 108 39 264v156zM1622 610q0 -197 43 -262t190 -65q0 -45 -6 -101t-22 -92q-107 -16 -228 -51q-114 -32 -206 -76 q-42 17 -72 62q-31 47 -31 139q0 66 4 102t4 70q-17 -55 -47 -107q-29 -51 -104 -118q-70 -62 -170 -101q-101 -39 -240 -39q-264 0 -399 115q-133 114 -133 320q0 200 117 325q118 126 282 201q163 75 344 110q202 39 305 56q0 136 -4 209q-4 81 -12 137q-7 50 -27 92 q-15 32 -43 70q-99 123 -262 123q-93 0 -160 -50q-65 -49 -108 -120q-44 -74 -62 -154q-17 -79 -22 -152q-34 0 -113 7q-68 6 -100 22q5 74 5 149q0 39 -1 78q-5 128 -25 220q159 80 345 133q180 51 372 51q140 0 238 -43q97 -43 176 -117q52 -52 86 -115q33 -62 51 -145 q20 -95 27 -190q8 -114 8 -254v-439zM1155 2200q-34 -19 -74 -19h-6q-37 1 -84 10q-152 232 -266 387q-121 164 -254 306q83 41 186 45q20 1 40 1q81 0 167 -14q47 -158 123 -354q68 -175 168 -362z" />
<glyph unicode="&#xe1;" horiz-adv-x="1978" d="M1253 930q-102 -11 -221 -35q-113 -22 -209 -68q-93 -44 -157 -125t-64 -215q0 -152 74 -221t168 -69q67 0 137 32t133 103q60 67 100 178q39 108 39 264v156zM1622 610q0 -197 43 -262t190 -65q0 -45 -6 -101t-22 -92q-107 -16 -228 -51q-114 -32 -206 -76 q-42 17 -72 62q-31 47 -31 139q0 66 4 102t4 70q-17 -55 -47 -107q-29 -51 -104 -118q-70 -62 -170 -101q-101 -39 -240 -39q-264 0 -399 115q-133 114 -133 320q0 200 117 325q118 126 282 201q163 75 344 110q202 39 305 56q0 136 -4 209q-4 81 -12 137q-7 50 -27 92 q-15 32 -43 70q-99 123 -262 123q-93 0 -160 -50q-65 -49 -108 -120q-44 -74 -62 -154q-17 -79 -22 -152q-34 0 -113 7q-68 6 -100 22q5 74 5 149q0 39 -1 78q-5 128 -25 220q159 80 345 133q180 51 372 51q140 0 238 -43q97 -43 176 -117q52 -52 86 -115q33 -62 51 -145 q20 -95 27 -190q8 -114 8 -254v-439zM865 2200q98 203 161 376q69 188 105 328q88 32 166 43q54 7 99 7q20 0 38 -1q37 -4 67 -12q24 -6 52 -16q-133 -154 -279 -359q-142 -200 -262 -391q-15 -2 -30 -2q-22 0 -46 4q-36 6 -71 23z" />
<glyph unicode="&#xe2;" horiz-adv-x="1978" d="M1253 930q-102 -11 -221 -35q-113 -22 -209 -68q-93 -44 -157 -125t-64 -215q0 -152 74 -221t168 -69q67 0 137 32t133 103q60 67 100 178q39 108 39 264v156zM1622 610q0 -197 43 -262t190 -65q0 -45 -6 -101t-22 -92q-107 -16 -228 -51q-114 -32 -206 -76 q-42 17 -72 62q-31 47 -31 139q0 66 4 102t4 70q-17 -55 -47 -107q-29 -51 -104 -118q-70 -62 -170 -101q-101 -39 -240 -39q-264 0 -399 115q-133 114 -133 320q0 200 117 325q118 126 282 201q163 75 344 110q202 39 305 56q0 136 -4 209q-4 81 -12 137q-7 50 -27 92 q-15 32 -43 70q-99 123 -262 123q-93 0 -160 -50q-65 -49 -108 -120q-44 -74 -62 -154q-17 -79 -22 -152q-34 0 -113 7q-68 6 -100 22q5 74 5 149q0 39 -1 78q-5 128 -25 220q159 80 345 133q180 51 372 51q140 0 238 -43q97 -43 176 -117q52 -52 86 -115q33 -62 51 -145 q20 -95 27 -190q8 -114 8 -254v-439zM250 2273q150 114 330 283q170 160 313 332q34 8 70 12q33 4 61 4q119 -162 262 -328q151 -176 336 -360q-41 -53 -123 -74l-139 99l-147 106q-78 56 -148 100q-78 49 -139 84q-44 -21 -133 -77l-178 -115l-183 -123q-88 -61 -137 -98 q-30 30 -37 77q-8 53 -8 78z" />
<glyph unicode="&#xe3;" horiz-adv-x="1978" d="M1253 930q-102 -11 -221 -35q-113 -22 -209 -68q-93 -44 -157 -125t-64 -215q0 -152 74 -221t168 -69q67 0 137 32t133 103q60 67 100 178q39 108 39 264v156zM1622 610q0 -197 43 -262t190 -65q0 -45 -6 -101t-22 -92q-107 -16 -228 -51q-114 -32 -206 -76 q-42 17 -72 62q-31 47 -31 139q0 66 4 102t4 70q-17 -55 -47 -107q-29 -51 -104 -118q-70 -62 -170 -101q-101 -39 -240 -39q-264 0 -399 115q-133 114 -133 320q0 200 117 325q118 126 282 201q163 75 344 110q202 39 305 56q0 136 -4 209q-4 81 -12 137q-7 50 -27 92 q-15 32 -43 70q-99 123 -262 123q-93 0 -160 -50q-65 -49 -108 -120q-44 -74 -62 -154q-17 -79 -22 -152q-34 0 -113 7q-68 6 -100 22q5 74 5 149q0 39 -1 78q-5 128 -25 220q159 80 345 133q180 51 372 51q140 0 238 -43q97 -43 176 -117q52 -52 86 -115q33 -62 51 -145 q20 -95 27 -190q8 -114 8 -254v-439zM377 2118q-41 24 -41 77q123 218 233 295q111 78 213 78q77 0 142 -26q45 -18 135 -58l133 -57q66 -27 135 -27q60 0 123 29q60 28 127 98q17 0 39 -6t39 -27q-106 -229 -205 -311q-98 -82 -192 -82q-70 0 -138 27q-75 30 -137 61 q-73 37 -141 62q-69 26 -150 26q-74 0 -151 -34q-78 -35 -164 -125z" />
<glyph unicode="&#xe4;" horiz-adv-x="1978" d="M1253 930q-102 -11 -221 -35q-113 -22 -209 -68q-93 -44 -157 -125t-64 -215q0 -152 74 -221t168 -69q67 0 137 32t133 103q60 67 100 178q39 108 39 264v156zM1622 610q0 -197 43 -262t190 -65q0 -45 -6 -101t-22 -92q-107 -16 -228 -51q-114 -32 -206 -76 q-42 17 -72 62q-31 47 -31 139q0 66 4 102t4 70q-17 -55 -47 -107q-29 -51 -104 -118q-70 -62 -170 -101q-101 -39 -240 -39q-264 0 -399 115q-133 114 -133 320q0 200 117 325q118 126 282 201q163 75 344 110q202 39 305 56q0 136 -4 209q-4 81 -12 137q-7 50 -27 92 q-15 32 -43 70q-99 123 -262 123q-93 0 -160 -50q-65 -49 -108 -120q-44 -74 -62 -154q-17 -79 -22 -152q-34 0 -113 7q-68 6 -100 22q5 74 5 149q0 39 -1 78q-5 128 -25 220q159 80 345 133q180 51 372 51q140 0 238 -43q97 -43 176 -117q52 -52 86 -115q33 -62 51 -145 q20 -95 27 -190q8 -114 8 -254v-439zM614 2179q-108 0 -170 59q-63 60 -63 150q0 89 53 162q52 71 172 71q123 0 178 -65q56 -67 56 -160q0 -94 -66 -155q-67 -62 -160 -62zM1405 2621q102 0 168 -57q65 -56 65 -151q0 -87 -49 -158q-50 -72 -172 -72q-118 0 -180 64 q-61 62 -61 166q0 97 63 153q62 55 166 55z" />
<glyph unicode="&#xe5;" horiz-adv-x="1978" d="M1253 930q-102 -11 -221 -35q-113 -22 -209 -68q-93 -44 -157 -125t-64 -215q0 -152 74 -221t168 -69q67 0 137 32t133 103q60 67 100 178q39 108 39 264v156zM1622 610q0 -197 43 -262t190 -65q0 -45 -6 -101t-22 -92q-107 -16 -228 -51q-114 -32 -206 -76 q-42 17 -72 62q-31 47 -31 139q0 66 4 102t4 70q-17 -55 -47 -107q-29 -51 -104 -118q-70 -62 -170 -101q-101 -39 -240 -39q-264 0 -399 115q-133 114 -133 320q0 200 117 325q118 126 282 201q163 75 344 110q202 39 305 56q0 136 -4 209q-4 81 -12 137q-7 50 -27 92 q-15 32 -43 70q-99 123 -262 123q-93 0 -160 -50q-65 -49 -108 -120q-44 -74 -62 -154q-17 -79 -22 -152q-34 0 -113 7q-68 6 -100 22q5 74 5 149q0 39 -1 78q-5 128 -25 220q159 80 345 133q180 51 372 51q140 0 238 -43q97 -43 176 -117q52 -52 86 -115q33 -62 51 -145 q20 -95 27 -190q8 -114 8 -254v-439zM570 2515q0 163 123 274t303 111q74 0 147 -21q75 -22 129 -65q55 -45 90 -113t35 -157q0 -168 -123 -279t-307 -111q-74 0 -149 25q-68 23 -127 72q-55 46 -88 114q-33 67 -33 150zM795 2531q0 -94 55 -159q56 -66 158 -66q66 0 117 51 t51 146q0 87 -51 172q-51 86 -158 86q-78 0 -125 -62t-47 -168z" />
<glyph unicode="&#xe6;" horiz-adv-x="2801" d="M2015 983q-231 -12 -450 -33v-8q0 -122 24 -256t84 -242q60 -107 152 -180q90 -71 227 -71q202 0 318 77q118 78 186 172q28 -21 61 -55q34 -35 41 -68q-135 -185 -309 -264q-175 -80 -387 -80q-204 0 -350 86q-143 84 -244 222q-43 62 -82 135q-4 -18 -12 -41 q-33 -103 -74 -160q-159 -242 -500 -242q-269 0 -407 109q-137 108 -137 313q0 202 106 330q105 128 266 205q151 73 344 112q168 33 312 54v217q0 209 -105 311q-106 103 -239 103q-97 0 -160 -46q-62 -45 -102 -112q-42 -71 -60 -154q-21 -102 -31 -164q-33 0 -114 7 q-72 6 -99 22q6 84 6 160q0 34 -1 67q-5 128 -25 220q171 82 340 133q168 51 377 51q163 0 291 -78q98 -61 172 -180q99 127 221 184q165 74 332 74q157 0 280 -70q119 -68 205 -178q83 -107 127 -242q43 -133 51 -264q-8 -45 -22 -82q-15 -41 -43 -73q-224 -6 -570 -21z M1077 356q107 164 107 537v20q-313 -33 -475 -118q-172 -94 -172 -320q0 -88 26 -139q27 -53 66 -86t86 -45t92 -12q164 0 270 163zM1565 1135q144 17 295 24q228 15 393 21q0 81 -19 182q-18 97 -61 178q-43 82 -113 135q-71 54 -176 54q-164 0 -242 -152 q-77 -150 -77 -401v-41z" />
<glyph unicode="&#xe7;" horiz-adv-x="1843" d="M1688 319q-111 -176 -275 -266q-144 -78 -336 -90l-123 -168q165 -29 260 -127q97 -100 97 -246q0 -102 -51 -180q-50 -76 -132 -129q-79 -50 -172 -78q-88 -26 -170 -26q-16 27 -22 63q-6 34 -6 68q124 0 223 59q100 60 100 166q0 103 -75 162t-191 59q-30 22 -53 64 q-21 39 -21 92l144 233q-88 12 -180 50q-153 62 -273 182t-194 301t-74 422q0 186 55 360q56 176 164 316q107 138 266 223q157 84 367 84q385 0 618 -184q-19 -107 -24 -234q-4 -101 -4 -233q-33 -21 -88 -27q-56 -6 -101 -6q-24 235 -139 364q-114 127 -295 127 q-205 0 -321 -188q-117 -189 -117 -541q0 -155 39 -299t112 -254q71 -108 183 -176q106 -65 251 -65q275 0 455 237q33 -17 62 -47q29 -31 41 -68z" />
<glyph unicode="&#xe8;" horiz-adv-x="1941" d="M831 913q-134 -4 -262 -12q5 -91 21 -176q29 -148 96 -266q68 -120 182 -193q113 -73 295 -73q139 0 267 59q132 61 233 178q34 -22 61 -57q30 -40 37 -70q-144 -184 -323 -262q-180 -78 -406 -78q-218 0 -381 78q-164 78 -272 209q-110 133 -162 309q-53 180 -53 379 q0 200 59 373q60 176 168 311t266 213q157 78 355 78q199 0 340 -68q138 -67 229 -182q90 -114 137 -268q48 -159 60 -330q-16 -81 -62 -139h-209q-81 0 -313 -2q-110 -1 -363 -11zM598 1360q-26 -110 -33 -250h787q0 270 -99 438t-278 168q-75 0 -148 -30 q-71 -29 -133 -111q-57 -76 -96 -215zM1085 2200q-34 -19 -74 -19h-6q-37 1 -84 10q-152 232 -266 387q-121 164 -254 306q83 41 186 45q20 1 40 1q81 0 167 -14q47 -158 123 -354q68 -175 168 -362z" />
<glyph unicode="&#xe9;" horiz-adv-x="1941" d="M831 913q-134 -4 -262 -12q5 -91 21 -176q29 -148 96 -266q68 -120 182 -193q113 -73 295 -73q139 0 267 59q132 61 233 178q34 -22 61 -57q30 -40 37 -70q-144 -184 -323 -262q-180 -78 -406 -78q-218 0 -381 78q-164 78 -272 209q-110 133 -162 309q-53 180 -53 379 q0 200 59 373q60 176 168 311t266 213q157 78 355 78q199 0 340 -68q138 -67 229 -182q90 -114 137 -268q48 -159 60 -330q-16 -81 -62 -139h-209q-81 0 -313 -2q-110 -1 -363 -11zM598 1360q-26 -110 -33 -250h787q0 270 -99 438t-278 168q-75 0 -148 -30 q-71 -29 -133 -111q-57 -76 -96 -215zM918 2200q98 203 161 376q69 188 105 328q88 32 166 43q54 7 99 7q20 0 38 -1q37 -4 67 -12q24 -6 52 -16q-133 -154 -279 -359q-142 -200 -262 -391q-15 -2 -30 -2q-22 0 -46 4q-36 6 -71 23z" />
<glyph unicode="&#xea;" horiz-adv-x="1941" d="M831 913q-134 -4 -262 -12q5 -91 21 -176q29 -148 96 -266q68 -120 182 -193q113 -73 295 -73q139 0 267 59q132 61 233 178q34 -22 61 -57q30 -40 37 -70q-144 -184 -323 -262q-180 -78 -406 -78q-218 0 -381 78q-164 78 -272 209q-110 133 -162 309q-53 180 -53 379 q0 200 59 373q60 176 168 311t266 213q157 78 355 78q199 0 340 -68q138 -67 229 -182q90 -114 137 -268q48 -159 60 -330q-16 -81 -62 -139h-209q-81 0 -313 -2q-110 -1 -363 -11zM598 1360q-26 -110 -33 -250h787q0 270 -99 438t-278 168q-75 0 -148 -30 q-71 -29 -133 -111q-57 -76 -96 -215zM327 2273q150 114 330 283q170 160 313 332q34 8 70 12q33 4 61 4q119 -162 262 -328q151 -176 336 -360q-41 -53 -123 -74l-139 99l-147 106q-78 56 -148 100q-78 49 -139 84q-44 -21 -133 -77l-178 -115l-183 -123q-88 -61 -137 -98 q-30 30 -37 77q-8 53 -8 78z" />
<glyph unicode="&#xeb;" horiz-adv-x="1941" d="M831 913q-134 -4 -262 -12q5 -91 21 -176q29 -148 96 -266q68 -120 182 -193q113 -73 295 -73q139 0 267 59q132 61 233 178q34 -22 61 -57q30 -40 37 -70q-144 -184 -323 -262q-180 -78 -406 -78q-218 0 -381 78q-164 78 -272 209q-110 133 -162 309q-53 180 -53 379 q0 200 59 373q60 176 168 311t266 213q157 78 355 78q199 0 340 -68q138 -67 229 -182q90 -114 137 -268q48 -159 60 -330q-16 -81 -62 -139h-209q-81 0 -313 -2q-110 -1 -363 -11zM598 1360q-26 -110 -33 -250h787q0 270 -99 438t-278 168q-75 0 -148 -30 q-71 -29 -133 -111q-57 -76 -96 -215zM626 2179q-108 0 -170 59q-63 60 -63 150q0 89 53 162q52 71 172 71q123 0 178 -65q56 -67 56 -160q0 -94 -66 -155q-67 -62 -160 -62zM1417 2621q102 0 168 -57q65 -56 65 -151q0 -87 -49 -158q-50 -72 -172 -72q-118 0 -180 64 q-61 62 -61 166q0 97 63 153q62 55 166 55z" />
<glyph unicode="&#xec;" horiz-adv-x="1310" d="M639 2200q-34 -19 -74 -19h-6q-37 1 -84 10q-152 232 -266 387q-121 164 -254 306q83 41 186 45q20 1 40 1q81 0 167 -14q47 -158 123 -354q68 -175 168 -362zM823 520q0 -203 56 -280q55 -76 186 -76q11 -42 16 -96q4 -45 4 -80q-124 9 -225 10q-158 2 -237 2 q-78 0 -244 -2q-109 -1 -227 -10q0 47 4 88q5 50 16 88q163 0 223 76t60 280v811q0 64 -9 127q-8 53 -40 90q-33 38 -95 56q-61 18 -164 18q0 37 9 82q8 38 28 70q45 0 123 12q61 9 160 31q83 18 156 45q71 26 110 51q37 -12 64 -49q26 -36 26 -115v-1229z" />
<glyph unicode="&#xed;" horiz-adv-x="1327" d="M512 2200q98 203 161 376q69 188 105 328q88 32 166 43q54 7 99 7q20 0 38 -1q37 -4 67 -12q24 -6 52 -16q-133 -154 -279 -359q-142 -200 -262 -391q-15 -2 -30 -2q-22 0 -46 4q-36 6 -71 23zM823 520q0 -203 56 -280q55 -76 186 -76q11 -42 16 -96q4 -45 4 -80 q-124 9 -225 10q-158 2 -237 2q-78 0 -244 -2q-109 -1 -227 -10q0 47 4 88q5 50 16 88q163 0 223 76t60 280v811q0 64 -9 127q-8 53 -40 90q-33 38 -95 56q-61 18 -164 18q0 37 9 82q8 38 28 70q45 0 123 12q61 9 160 31q83 18 156 45q71 26 110 51q37 -12 64 -49 q26 -36 26 -115v-1229z" />
<glyph unicode="&#xee;" horiz-adv-x="1282" d="M-58 2273q150 114 330 283q170 160 313 332q34 8 70 12q33 4 61 4q119 -162 262 -328q151 -176 336 -360q-41 -53 -123 -74l-139 99l-147 106q-78 56 -148 100q-78 49 -139 84q-44 -21 -133 -77l-178 -115l-183 -123q-88 -61 -137 -98q-30 30 -37 77q-8 53 -8 78z M823 520q0 -203 56 -280q55 -76 186 -76q11 -42 16 -96q4 -45 4 -80q-124 9 -225 10q-158 2 -237 2q-78 0 -244 -2q-109 -1 -227 -10q0 47 4 88q5 50 16 88q163 0 223 76t60 280v811q0 64 -9 127q-8 53 -40 90q-33 38 -95 56q-61 18 -164 18q0 37 9 82q8 38 28 70 q45 0 123 12q61 9 160 31q83 18 156 45q71 26 110 51q37 -12 64 -49q26 -36 26 -115v-1229z" />
<glyph unicode="&#xef;" horiz-adv-x="1220" d="M204 2179q-108 0 -170 59q-63 60 -63 150q0 89 53 162q52 71 172 71q123 0 178 -65q56 -67 56 -160q0 -94 -66 -155q-67 -62 -160 -62zM995 2621q102 0 168 -57q65 -56 65 -151q0 -87 -49 -158q-50 -72 -172 -72q-118 0 -180 64q-61 62 -61 166q0 97 63 153q62 55 166 55 zM823 520q0 -203 56 -280q55 -76 186 -76q11 -42 16 -96q4 -45 4 -80q-124 9 -225 10q-158 2 -237 2q-78 0 -244 -2q-109 -1 -227 -10q0 47 4 88q5 50 16 88q163 0 223 76t60 280v811q0 64 -9 127q-8 53 -40 90q-33 38 -95 56q-61 18 -164 18q0 37 9 82q8 38 28 70 q45 0 123 12q61 9 160 31q83 18 156 45q71 26 110 51q37 -12 64 -49q26 -36 26 -115v-1229z" />
<glyph unicode="&#xf0;" horiz-adv-x="2179" d="M819 2388q-207 115 -463 213q0 32 6 65q6 34 39 74q310 -52 603 -188q25 -11 57 -29l463 258q28 -56 45 -104q17 -47 12 -101l-270 -143q-35 -20 -45 -25q140 -94 250 -196q223 -207 358 -490q133 -279 133 -628q0 -299 -72 -512q-73 -217 -200 -351q-130 -137 -303 -200 q-177 -64 -379 -64q-475 0 -676 236q-201 235 -201 669q0 255 88 428q90 176 223 283q135 108 304 158q166 49 327 49q129 0 246 -49q68 -28 127 -70q-77 194 -209 352q-114 135 -270 246l-156 -94l-291 -168q-23 43 -45 109q-21 62 -16 96zM1593 1049q0 205 -32 368 q-62 58 -140 107q-135 78 -340 78q-108 0 -198 -37q-94 -38 -162 -117q-71 -82 -111 -207q-41 -129 -41 -311q0 -372 148 -553q147 -180 381 -180q68 0 155 41q86 41 162 139t127 262q51 163 51 410z" />
<glyph unicode="&#xf1;" horiz-adv-x="2441" d="M598 2118q-41 24 -41 77q123 218 233 295q111 78 213 78q77 0 142 -26q45 -18 135 -58l133 -57q66 -27 135 -27q60 0 123 29q60 28 127 98q17 0 39 -6t39 -27q-106 -229 -205 -311q-98 -82 -192 -82q-70 0 -138 27q-75 30 -137 61q-73 37 -141 62q-69 26 -150 26 q-74 0 -151 -34q-78 -35 -164 -125zM2036 520q0 -213 59 -284q60 -72 182 -72q13 -40 17 -78q4 -36 4 -98q-104 9 -205 10q-152 2 -242 2q-141 0 -260 -4q-202 -7 -227 -8q0 122 20 176q148 0 215 76q68 77 68 280v623q0 141 -29 239t-79 154q-52 58 -121 82t-152 24 q-85 0 -164 -36q-81 -37 -147 -119q-65 -82 -109 -211q-43 -128 -43 -318v-438q0 -203 62 -280q61 -76 221 -76q11 -35 16 -78q4 -36 4 -98q-33 2 -223 8q-121 4 -264 4q-82 0 -262 -2q-121 -1 -225 -10q0 122 20 176q160 0 221 76q62 77 62 280v811q0 72 -11 127 q-11 54 -43 88q-34 36 -92 53q-62 19 -162 23q0 37 9 82q8 38 28 70q74 5 138 18t151 33q68 16 143 41q64 21 117 47q37 -12 64 -51q26 -38 26 -129q0 -56 -4 -111q-5 -69 -24 -131q14 25 24 47q9 21 37 59q34 51 90 101t133 94t168 72q90 28 203 28q116 0 221 -34 q106 -34 189 -113q83 -78 129 -205q47 -129 47 -315v-705z" />
<glyph unicode="&#xf2;" horiz-adv-x="2179" d="M578 1024q0 -418 147 -641t397 -223q247 0 365 202q119 203 119 527q0 189 -45 342q-46 156 -121 262q-78 111 -176 166q-100 57 -215 57q-238 0 -355 -192q-116 -190 -116 -500zM164 938q0 210 67 387q67 178 191 309q124 132 293 205q171 74 375 74q214 0 389 -70 q171 -68 290 -198q120 -131 183 -310q63 -180 63 -397q0 -210 -67 -389q-68 -180 -189 -309q-122 -130 -291 -203q-171 -74 -378 -74q-206 0 -381 70q-172 69 -293 196q-120 126 -187 308q-65 177 -65 401zM1163 2200q-34 -19 -74 -19h-6q-37 1 -84 10q-152 232 -266 387 q-121 164 -254 306q83 41 186 45q20 1 40 1q81 0 167 -14q47 -158 123 -354q68 -175 168 -362z" />
<glyph unicode="&#xf3;" horiz-adv-x="2179" d="M578 1024q0 -418 147 -641t397 -223q247 0 365 202q119 203 119 527q0 189 -45 342q-46 156 -121 262q-78 111 -176 166q-100 57 -215 57q-238 0 -355 -192q-116 -190 -116 -500zM164 938q0 210 67 387q67 178 191 309q124 132 293 205q171 74 375 74q214 0 389 -70 q171 -68 290 -198q120 -131 183 -310q63 -180 63 -397q0 -210 -67 -389q-68 -180 -189 -309q-122 -130 -291 -203q-171 -74 -378 -74q-206 0 -381 70q-172 69 -293 196q-120 126 -187 308q-65 177 -65 401zM992 2200q98 203 161 376q69 188 105 328q88 32 166 43q54 7 99 7 q20 0 38 -1q37 -4 67 -12q24 -6 52 -16q-133 -154 -279 -359q-142 -200 -262 -391q-15 -2 -30 -2q-22 0 -46 4q-36 6 -71 23z" />
<glyph unicode="&#xf4;" horiz-adv-x="2179" d="M578 1024q0 -418 147 -641t397 -223q247 0 365 202q119 203 119 527q0 189 -45 342q-46 156 -121 262q-78 111 -176 166q-100 57 -215 57q-238 0 -355 -192q-116 -190 -116 -500zM164 938q0 210 67 387q67 178 191 309q124 132 293 205q171 74 375 74q214 0 389 -70 q171 -68 290 -198q120 -131 183 -310q63 -180 63 -397q0 -210 -67 -389q-68 -180 -189 -309q-122 -130 -291 -203q-171 -74 -378 -74q-206 0 -381 70q-172 69 -293 196q-120 126 -187 308q-65 177 -65 401zM413 2273q150 114 330 283q170 160 313 332q34 8 70 12q33 4 61 4 q119 -162 262 -328q151 -176 336 -360q-41 -53 -123 -74l-139 99l-147 106q-78 56 -148 100q-78 49 -139 84q-44 -21 -133 -77l-178 -115l-183 -123q-88 -61 -137 -98q-30 30 -37 77q-8 53 -8 78z" />
<glyph unicode="&#xf5;" horiz-adv-x="2179" d="M578 1024q0 -418 147 -641t397 -223q247 0 365 202q119 203 119 527q0 189 -45 342q-46 156 -121 262q-78 111 -176 166q-100 57 -215 57q-238 0 -355 -192q-116 -190 -116 -500zM164 938q0 210 67 387q67 178 191 309q124 132 293 205q171 74 375 74q214 0 389 -70 q171 -68 290 -198q120 -131 183 -310q63 -180 63 -397q0 -210 -67 -389q-68 -180 -189 -309q-122 -130 -291 -203q-171 -74 -378 -74q-206 0 -381 70q-172 69 -293 196q-120 126 -187 308q-65 177 -65 401zM500 2118q-41 24 -41 77q123 218 233 295q111 78 213 78 q77 0 142 -26q45 -18 135 -58l133 -57q66 -27 135 -27q60 0 123 29q60 28 127 98q17 0 39 -6t39 -27q-106 -229 -205 -311q-98 -82 -192 -82q-70 0 -138 27q-75 30 -137 61q-73 37 -141 62q-69 26 -150 26q-74 0 -151 -34q-78 -35 -164 -125z" />
<glyph unicode="&#xf6;" horiz-adv-x="2179" d="M578 1024q0 -418 147 -641t397 -223q247 0 365 202q119 203 119 527q0 189 -45 342q-46 156 -121 262q-78 111 -176 166q-100 57 -215 57q-238 0 -355 -192q-116 -190 -116 -500zM164 938q0 210 67 387q67 178 191 309q124 132 293 205q171 74 375 74q214 0 389 -70 q171 -68 290 -198q120 -131 183 -310q63 -180 63 -397q0 -210 -67 -389q-68 -180 -189 -309q-122 -130 -291 -203q-171 -74 -378 -74q-206 0 -381 70q-172 69 -293 196q-120 126 -187 308q-65 177 -65 401zM659 2179q-108 0 -170 59q-63 60 -63 150q0 89 53 162 q52 71 172 71q123 0 178 -65q56 -67 56 -160q0 -94 -66 -155q-67 -62 -160 -62zM1450 2621q102 0 168 -57q65 -56 65 -151q0 -87 -49 -158q-50 -72 -172 -72q-118 0 -180 64q-61 62 -61 166q0 97 63 153q62 55 166 55z" />
<glyph unicode="&#xf7;" horiz-adv-x="2154" d="M2068 1176q0 -62 -6 -111q-6 -50 -34 -94q-135 0 -285 2t-207 2h-418q-190 0 -514 -2q-243 -1 -522 -6q0 48 10 112q11 70 31 97h1945zM1081 1909q86 0 148 -47q61 -46 61 -129q0 -95 -43 -160q-43 -66 -153 -66q-119 0 -172 62q-54 63 -54 164q0 89 64 133q62 43 149 43 zM1102 250q-94 0 -154 57q-59 56 -59 139q0 81 47 142q46 59 158 59q113 0 163 -53t50 -148q0 -90 -62 -143t-143 -53z" />
<glyph unicode="&#xf8;" horiz-adv-x="2195" d="M180 938q0 207 68 387q68 179 190 309q124 132 293 205q171 74 375 74q214 0 389 -70q69 -30 123 -61l151 192q66 -8 103 -28q38 -21 78 -70l-172 -225l8 -9q120 -129 182 -307q64 -183 64 -397q0 -208 -68 -389q-68 -182 -188 -309q-122 -130 -291 -203 q-171 -74 -379 -74q-206 0 -381 70q-93 34 -164 82l-217 -275q-57 0 -108 27q-52 28 -72 63l254 312q-110 122 -172 295q-66 180 -66 401zM1139 160q246 0 364 202q119 203 119 527q0 189 -45 340q-21 66 -45 123l-774 -996q144 -196 381 -196zM594 1024q0 -286 65 -475 l762 987q-62 79 -143 123q-99 57 -213 57q-237 0 -354 -192t-117 -500z" />
<glyph unicode="&#xf9;" horiz-adv-x="2387" d="M1286 2200q-34 -19 -74 -19h-6q-37 1 -84 10q-152 232 -266 387q-121 164 -254 306q83 41 186 45q20 1 40 1q81 0 167 -14q47 -158 123 -354q68 -175 168 -362zM1602 1352q0 72 -11 127q-11 54 -43 88q-34 36 -92 53t-162 22q0 42 5 80t24 72q157 7 311 41q152 33 246 78 q37 -12 64 -51q26 -38 26 -129v-1176q0 -71 8 -127q7 -52 37 -88q29 -35 82 -53q54 -19 148 -23q0 -49 -4 -88q-4 -43 -21 -88q-49 0 -115 -10q-69 -10 -141 -27q-69 -16 -135 -41q-58 -22 -100 -49q-36 12 -70 53q-33 40 -33 148q0 76 8 164v37q-41 -91 -122 -172 q-209 -209 -496 -209q-148 0 -256 36q-114 38 -191 121q-76 82 -116 224q-39 139 -39 348v618q0 75 -6 127q-6 53 -35 88t-82 53q-54 19 -148 23q0 42 5 80t24 72q72 5 133 18q77 16 142 33q68 18 133 41q57 20 112 47q37 -12 64 -51q26 -38 26 -129v-930q0 -313 82 -441 q82 -129 287 -129q80 0 164 41q81 40 145 127t103 220t39 313v418z" />
<glyph unicode="&#xfa;" horiz-adv-x="2387" d="M1029 2200q98 203 161 376q69 188 105 328q88 32 166 43q54 7 99 7q20 0 38 -1q37 -4 67 -12q24 -6 52 -16q-133 -154 -279 -359q-142 -200 -262 -391q-15 -2 -30 -2q-22 0 -46 4q-36 6 -71 23zM1602 1352q0 72 -11 127q-11 54 -43 88q-34 36 -92 53t-162 22q0 42 5 80 t24 72q157 7 311 41q152 33 246 78q37 -12 64 -51q26 -38 26 -129v-1176q0 -71 8 -127q7 -52 37 -88q29 -35 82 -53q54 -19 148 -23q0 -49 -4 -88q-4 -43 -21 -88q-49 0 -115 -10q-69 -10 -141 -27q-69 -16 -135 -41q-58 -22 -100 -49q-36 12 -70 53q-33 40 -33 148 q0 76 8 164v37q-41 -91 -122 -172q-209 -209 -496 -209q-148 0 -256 36q-114 38 -191 121q-76 82 -116 224q-39 139 -39 348v618q0 75 -6 127q-6 53 -35 88t-82 53q-54 19 -148 23q0 42 5 80t24 72q72 5 133 18q77 16 142 33q68 18 133 41q57 20 112 47q37 -12 64 -51 q26 -38 26 -129v-930q0 -313 82 -441q82 -129 287 -129q80 0 164 41q81 40 145 127t103 220t39 313v418z" />
<glyph unicode="&#xfb;" horiz-adv-x="2387" d="M454 2273q150 114 330 283q170 160 313 332q34 8 70 12q33 4 61 4q119 -162 262 -328q151 -176 336 -360q-41 -53 -123 -74l-139 99l-147 106q-78 56 -148 100q-78 49 -139 84q-44 -21 -133 -77l-178 -115l-183 -123q-88 -61 -137 -98q-30 30 -37 77q-8 53 -8 78z M1602 1352q0 72 -11 127q-11 54 -43 88q-34 36 -92 53t-162 22q0 42 5 80t24 72q157 7 311 41q152 33 246 78q37 -12 64 -51q26 -38 26 -129v-1176q0 -71 8 -127q7 -52 37 -88q29 -35 82 -53q54 -19 148 -23q0 -49 -4 -88q-4 -43 -21 -88q-49 0 -115 -10q-69 -10 -141 -27 q-69 -16 -135 -41q-58 -22 -100 -49q-36 12 -70 53q-33 40 -33 148q0 76 8 164v37q-41 -91 -122 -172q-209 -209 -496 -209q-148 0 -256 36q-114 38 -191 121q-76 82 -116 224q-39 139 -39 348v618q0 75 -6 127q-6 53 -35 88t-82 53q-54 19 -148 23q0 42 5 80t24 72 q72 5 133 18q77 16 142 33q68 18 133 41q57 20 112 47q37 -12 64 -51q26 -38 26 -129v-930q0 -313 82 -441q82 -129 287 -129q80 0 164 41q81 40 145 127t103 220t39 313v418z" />
<glyph unicode="&#xfc;" horiz-adv-x="2306" d="M675 2179q-108 0 -170 59q-63 60 -63 150q0 89 53 162q52 71 172 71q123 0 178 -65q56 -67 56 -160q0 -94 -66 -155q-67 -62 -160 -62zM1466 2621q102 0 168 -57q65 -56 65 -151q0 -87 -49 -158q-50 -72 -172 -72q-118 0 -180 64q-61 62 -61 166q0 97 63 153 q62 55 166 55zM1520 1352q0 72 -11 127q-11 54 -43 88q-34 36 -92 53t-162 22q0 42 5 80t24 72q157 7 311 41q152 33 246 78q37 -12 64 -51q26 -38 26 -129v-1176q0 -71 8 -127q7 -52 37 -88q29 -35 82 -53q54 -19 148 -23q0 -49 -4 -88q-4 -43 -21 -88q-49 0 -115 -10 q-69 -10 -141 -27q-69 -16 -135 -41q-58 -22 -100 -49q-36 12 -70 53q-33 40 -33 148q0 76 8 164v37q-41 -91 -122 -172q-209 -209 -496 -209q-148 0 -256 36q-114 38 -191 121q-76 82 -116 224q-39 139 -39 348v618q0 75 -6 127q-6 53 -35 88t-82 53q-54 19 -148 23 q0 42 5 80t24 72q72 5 133 18q77 16 142 33q68 18 133 41q57 20 112 47q37 -12 64 -51q26 -38 26 -129v-930q0 -313 82 -441q82 -129 287 -129q80 0 164 41q81 40 145 127t103 220t39 313v418z" />
<glyph unicode="&#xfd;" horiz-adv-x="2351" d="M1688 1221q52 130 63 217q3 25 3 48q0 53 -17 93q-24 55 -84 84q-61 29 -149 45q-29 84 -29 176q101 -8 192 -8h426q96 0 197 8q0 -26 -2 -86q-1 -44 -23 -90q-55 -12 -98 -37q-40 -24 -76 -72q-32 -44 -71 -124q-23 -47 -86 -193l-602 -1434q-113 -266 -209 -450 q-89 -171 -170 -264t-160 -123q-82 -31 -174 -31q-121 0 -195 31q-71 30 -112 63q-14 52 -14 120q0 17 1 34q4 90 17 145q139 -24 262 -24q119 0 225 55q106 56 189 186q25 36 71 129q45 92 96 211q17 30 21 41l-127 283l-156 352l-149 328l-125 270q-69 142 -125 246 q-51 94 -96 147q-46 54 -86 76q-41 23 -95 35q-24 74 -24 176q118 -4 237 -6q158 -2 226 -2h262l147 4q65 4 136 4q0 -106 -29 -176q-112 -21 -172 -49q-61 -28 -82 -80q-11 -25 -11 -57.5t11 -71.5q22 -80 78 -193l94 -206l108 -242l105 -248q33 -78 57 -147l41 94z M1266 2200q98 203 161 376q69 188 105 328q88 32 166 43q54 7 99 7q20 0 38 -1q37 -4 67 -12q24 -6 52 -16q-133 -154 -279 -359q-142 -200 -262 -391q-15 -2 -30 -2q-22 0 -46 4q-36 6 -71 23z" />
<glyph unicode="&#xfe;" horiz-adv-x="2375" d="M1110 -37q-120 0 -205 21l-53 12v-467q0 -112 14 -176q15 -71 49 -109q33 -38 99 -55q61 -16 162 -16q11 -35 16 -78q4 -36 4 -99q-130 10 -244 11q-194 2 -264 2q-72 0 -258 -2q-104 -1 -250 -11q0 120 21 177q164 0 223 75t59 281v2826q0 77 -10 127q-11 53 -43 90 q-34 39 -92 56q-60 18 -162 18q0 42 8 82q7 36 29 70q45 0 123 12q61 9 160 31q80 17 155 45q73 27 111 51q36 -12 63 -49q27 -38 27 -115v-1032q0 -37 -4 -70q18 18 33 37q52 52 127 98q78 48 163 76q93 31 193 31q361 0 563 -217q203 -218 203 -692q0 -216 -74 -406 q-74 -189 -207 -330q-134 -141 -321 -223q-188 -82 -418 -82zM852 229q19 -7 37 -20q99 -57 241 -57q90 0 189 32q102 33 192 123t152 244q61 152 61 399q0 196 -47 332q-46 134 -114 217q-66 81 -150 119q-81 37 -147 37q-89 0 -179 -41q-87 -40 -161 -135 q-64 -86 -103 -209l29 -17v-1024z" />
<glyph unicode="&#xff;" horiz-adv-x="2351" d="M1675 1221q52 130 63 217q3 25 3 48q0 53 -17 93q-24 55 -84 84q-61 29 -149 45q-29 84 -29 176q101 -8 192 -8h426q96 0 197 8q0 -26 -2 -86q-1 -44 -23 -90q-55 -12 -98 -37q-40 -24 -76 -72q-32 -44 -71 -124q-23 -47 -86 -193l-602 -1434q-113 -266 -209 -450 q-89 -171 -170 -264t-160 -123q-82 -31 -174 -31q-121 0 -195 31q-71 30 -112 63q-14 52 -14 120q0 17 1 34q4 90 17 145q139 -24 262 -24q119 0 225 55q106 56 189 186q25 36 71 129q45 92 96 211q17 30 21 41l-127 283l-156 352l-149 328l-125 270q-69 142 -125 246 q-51 94 -96 147q-46 54 -86 76q-41 23 -95 35q-24 74 -24 176q118 -4 237 -6q158 -2 226 -2h262l147 4q65 4 136 4q0 -106 -29 -176q-112 -21 -172 -49q-61 -28 -82 -80q-11 -25 -11 -57.5t11 -71.5q22 -80 78 -193l94 -206l108 -242l105 -248q33 -78 57 -147l41 94z M880 2179q-108 0 -170 59q-63 60 -63 150q0 89 53 162q52 71 172 71q123 0 178 -65q56 -67 56 -160q0 -94 -66 -155q-67 -62 -160 -62zM1671 2621q102 0 168 -57q65 -56 65 -151q0 -87 -49 -158q-50 -72 -172 -72q-118 0 -180 64q-61 62 -61 166q0 97 63 153q62 55 166 55z " />
<glyph unicode="&#x131;" horiz-adv-x="1310" d="M823 520q0 -203 56 -280q55 -76 186 -76q11 -42 16 -96q4 -45 4 -80q-124 9 -225 10q-158 2 -237 2q-78 0 -244 -2q-109 -1 -227 -10q0 47 4 88q5 50 16 88q163 0 223 76t60 280v811q0 64 -9 127q-8 53 -40 90q-33 38 -95 56q-61 18 -164 18q0 37 9 82q8 38 28 70 q45 0 123 12q61 9 160 31q83 18 156 45q71 26 110 51q37 -12 64 -49q26 -36 26 -115v-1229z" />
<glyph unicode="&#x152;" horiz-adv-x="5386" d="M4985 2781q6 -86 14 -153l20 -172q8 -65 23 -172q11 -79 29 -150q-33 -28 -80 -39q-44 -10 -105 -10q-7 87 -39 188q-30 95 -106 168q-78 75 -203 119q-128 45 -323 45h-295v-1122h172q133 0 213 14q90 16 139 51q55 39 78 103q24 66 24 164q49 15 97 22q43 6 100 6 q-8 -114 -8 -225v-459q0 -123 8 -237q-61 0 -100 4q-46 5 -88 16q-7 106 -35 176q-27 69 -80 113q-51 42 -137 59q-87 17 -211 17h-172v-742q0 -119 14 -188q15 -74 55 -117q39 -42 113 -59t186 -17h25q189 0 307 33q120 33 195 98q77 66 123 162q49 101 92 223 q67 -23 102 -41q44 -23 78 -57q-48 -153 -76 -305q-31 -166 -51 -305q-32 0 -150 2q-24 0 -89.5 1.5t-104.5 2.5q-142 2 -221 2h-496q-101 0 -301 -2q-54 -1 -148.5 -2.5t-134.5 -1.5q-133 -1 -211 -6q0 119 21 176q83 5 137 22t88 64q32 43 47 121q15 77 15 194v1684 q0 204 -60 276q-60 73 -223 80q-11 31 -16 80q-4 41 -4 96q62 -5 155 -6l195 -4q134 -2 190 -2h148q452 0 692 4q308 5 373 8zM143 1393q0 311 105 571q106 262 287 449q182 188 430 290q250 103 530 103q293 0 543 -103q248 -102 428 -288q179 -185 282 -447t103 -575 q0 -303 -101 -564t-280 -452q-180 -192 -428 -303t-547 -111q-300 0 -553 109q-247 107 -428 301q-177 191 -274 452q-97 262 -97 568zM565 1503q0 -257 66 -499q67 -246 194 -429q130 -187 318 -299t434 -112q201 0 358 88q158 89 269 240q111 152 168 356q57 206 57 438 q0 274 -78 516t-213 422q-136 182 -321 283q-186 102 -408 102q-179 0 -336 -80q-155 -79 -268 -225q-113 -147 -176 -348q-64 -206 -64 -453z" />
<glyph unicode="&#x153;" horiz-adv-x="4120" d="M3010 913q-134 -4 -262 -12q5 -91 21 -176q29 -148 96 -266q68 -120 182 -193q113 -73 295 -73q139 0 267 59q132 61 233 178q34 -22 61 -57q30 -40 37 -70q-144 -184 -323 -262q-180 -78 -406 -78q-218 0 -381 78q-164 78 -272 209q-110 133 -162 309q-53 180 -53 379 q0 200 59 373q60 176 168 311t266 213q157 78 355 78q199 0 340 -68q138 -67 229 -182q90 -114 137 -268q48 -159 60 -330q-16 -81 -62 -139h-209q-81 0 -313 -2q-110 -1 -363 -11zM2777 1360q-26 -110 -33 -250h787q0 270 -99 438t-278 168q-75 0 -148 -30 q-71 -29 -133 -111q-57 -76 -96 -215zM578 1024q0 -418 147 -641t397 -223q247 0 365 202q119 203 119 527q0 189 -45 342q-46 156 -121 262q-78 111 -176 166q-100 57 -215 57q-238 0 -355 -192q-116 -190 -116 -500zM164 938q0 210 67 387q67 178 191 309q124 132 293 205 q171 74 375 74q214 0 389 -70q171 -68 290 -198q120 -131 183 -310q63 -180 63 -397q0 -210 -67 -389q-68 -180 -189 -309q-122 -130 -291 -203q-171 -74 -378 -74q-206 0 -381 70q-172 69 -293 196q-120 126 -187 308q-65 177 -65 401z" />
<glyph unicode="&#x178;" horiz-adv-x="2580" d="M893 3051q-108 0 -170 59q-63 60 -63 150q0 89 53 162q52 71 172 71q123 0 178 -65q56 -67 56 -160q0 -94 -66 -155q-67 -62 -160 -62zM1684 3493q102 0 168 -57q65 -56 65 -151q0 -87 -49 -158q-50 -72 -172 -72q-118 0 -180 64q-61 62 -61 166q0 97 63 153 q62 55 166 55zM1499 1208v-540q0 -168 10 -258q11 -95 43 -144q32 -47 95 -69q61 -21 168 -33q24 -74 24 -176l-270 8q-120 4 -250 4h-148q-51 0 -155 -2q-28 -1 -77.5 -2.5t-68.5 -1.5q-90 -2 -108 -2q0 45 6 90q6 44 18 82q110 7 175 26q63 18 98 64q34 45 45 131 q10 81 10 229v590l-684 1163q-41 66 -72 111q-31 46 -63 74q-34 29 -72 41q-37 11 -96 16q-17 45 -21 84q-4 35 -4 84q85 -4 197 -6q148 -2 229 -2h283q55 0 147 2q70 2 119 6q0 -49 -4 -80q-5 -39 -16 -80q-161 -17 -183 -82q-4 -13 -4 -29q0 -68 76 -196l262 -463 q139 -250 222 -417l204 385l230 413q90 159 90 241q0 22 -6 38q-30 78 -195 102q-14 52 -20 84q-9 47 -9 84q78 -8 189 -8h213q62 0 188 2q95 2 164 6q0 -84 -16 -160q-61 -18 -103 -43q-47 -28 -94 -75q-51 -51 -102 -127q-54 -80 -119 -197z" />
<glyph unicode="&#x2c6;" d="M307 2273q150 114 330 283q170 160 313 332q34 8 70 12q33 4 61 4q119 -162 262 -328q151 -176 336 -360q-41 -53 -123 -74l-139 99l-147 106q-78 56 -148 100q-78 49 -139 84q-44 -21 -133 -77l-178 -115l-183 -123q-88 -61 -137 -98q-30 30 -37 77q-8 53 -8 78z" />
<glyph unicode="&#x2da;" d="M844 2515q0 163 123 274t303 111q74 0 147 -21q75 -22 129 -65q55 -45 90 -113t35 -157q0 -168 -123 -279t-307 -111q-74 0 -149 25q-68 23 -127 72q-55 46 -88 114q-33 67 -33 150zM1069 2531q0 -94 55 -159q56 -66 158 -66q66 0 117 51t51 146q0 87 -51 172 q-51 86 -158 86q-78 0 -125 -62t-47 -168z" />
<glyph unicode="&#x2dc;" d="M467 2118q-41 24 -41 77q123 218 233 295q111 78 213 78q77 0 142 -26q45 -18 135 -58l133 -57q66 -27 135 -27q60 0 123 29q60 28 127 98q17 0 39 -6t39 -27q-106 -229 -205 -311q-98 -82 -192 -82q-70 0 -138 27q-75 30 -137 61q-73 37 -141 62q-69 26 -150 26 q-74 0 -151 -34q-78 -35 -164 -125z" />
<glyph unicode="&#x2000;" horiz-adv-x="1916" />
<glyph unicode="&#x2001;" horiz-adv-x="3833" />
<glyph unicode="&#x2002;" horiz-adv-x="1916" />
<glyph unicode="&#x2003;" horiz-adv-x="3833" />
<glyph unicode="&#x2004;" horiz-adv-x="1277" />
<glyph unicode="&#x2005;" horiz-adv-x="958" />
<glyph unicode="&#x2006;" horiz-adv-x="638" />
<glyph unicode="&#x2007;" horiz-adv-x="638" />
<glyph unicode="&#x2008;" horiz-adv-x="479" />
<glyph unicode="&#x2009;" horiz-adv-x="765" />
<glyph unicode="&#x200a;" horiz-adv-x="212" />
<glyph unicode="&#x2010;" horiz-adv-x="1716" d="M1470 1225q0 -66 -12 -138q-12 -71 -41 -129q-58 0 -268 -2l-322 -4l-317 -4q-153 -2 -264 -6q0 70 18 150t47 133h1159z" />
<glyph unicode="&#x2011;" horiz-adv-x="1716" d="M1470 1225q0 -66 -12 -138q-12 -71 -41 -129q-58 0 -268 -2l-322 -4l-317 -4q-153 -2 -264 -6q0 70 18 150t47 133h1159z" />
<glyph unicode="&#x2013;" horiz-adv-x="2318" d="M2073 1192q0 -50 -9 -117q-7 -55 -36 -100h-410q-121 0 -389 -2q-57 0 -203.5 -1.5t-232.5 -2.5q-235 -1 -547 -6q0 56 12 122q12 67 33 107h1782z" />
<glyph unicode="&#x2014;" horiz-adv-x="4194" d="M3949 1188q0 -52 -9 -115q-7 -51 -37 -98q-919 0 -2121 -2q-803 -1 -1536 -10q0 28 4 57q5 40 10 65q5 28 14 62q6 24 17 41h3658z" />
<glyph unicode="&#x2018;" horiz-adv-x="991" d="M385 1913q-139 52 -139 295q0 224 78 391q77 164 225 338q45 0 92 -15q50 -16 72 -38q-59 -83 -84 -125q-31 -52 -47 -95q-18 -46 -23 -86q-6 -44 -6 -92q0 -181 192 -205q0 -39 -6 -116q-6 -80 -26 -129q-96 -21 -176 -49q-82 -28 -152 -74z" />
<glyph unicode="&#x2019;" horiz-adv-x="991" d="M524.023 2928.12q138.991 -51.9971 138.991 -294.982q0 -223.986 -77.9951 -390.977q-76.9951 -163.989 -224.986 -337.979q-44.9971 0 -91.9941 14.999q-49.9971 15.999 -71.9951 37.9971q58.9961 82.9951 83.9941 124.992q30.998 51.9971 46.9971 94.9941 q17.999 45.998 22.999 85.9951q6 43.9971 6 91.9941q0 180.989 -191.988 204.988q0 38.9971 5.99902 115.992q6 79.9951 25.999 128.992q95.9941 20.999 175.989 48.9971q81.9941 27.998 151.99 73.9961z" />
<glyph unicode="&#x201a;" horiz-adv-x="991" d="M524.023 401.117q138.991 -51.9971 138.991 -294.982q0 -223.986 -77.9951 -390.977q-76.9951 -163.989 -224.986 -337.979q-44.9971 0 -91.9941 14.999q-49.9971 15.999 -71.9951 37.9971q58.9961 82.9951 83.9941 124.992q30.998 51.9971 46.9971 94.9941 q17.999 45.998 22.999 85.9951q6 43.9971 6 91.9941q0 180.989 -191.988 204.988q0 38.9971 5.99902 115.992q6 79.9951 25.999 128.992q95.9941 20.999 175.989 48.9971q81.9941 27.998 151.99 73.9961z" />
<glyph unicode="&#x201c;" horiz-adv-x="1585" d="M385 1913q-60 39 -100 115q-39 74 -39 196q0 182 82 365q83 185 217 340q7 1 16 1q25 0 66 -10q52 -12 78 -32q-66 -90 -113 -205t-47 -197t37 -137q38 -56 143 -63q1 -18 1 -39q0 -40 -5 -95q-7 -73 -29 -120q-171 -28 -307 -119zM991 1925q-63 39 -102 115 q-37 73 -37 196q0 182 82 355q81 172 213 329q10 1 20 1q29 0 64 -9q48 -12 76 -33q-63 -92 -111 -200q-49 -110 -49 -193q0 -81 41 -137q40 -55 147 -63q1 -18 1 -38q0 -39 -5 -89q-8 -72 -28 -115q-85 -16 -168 -45q-81 -28 -144 -74z" />
<glyph unicode="&#x201d;" horiz-adv-x="1585" d="M1118.02 2937.12q59.9961 -38.998 99.9941 -114.993q38.9971 -73.9961 38.9971 -195.988q0 -181.989 -81.9951 -364.978q-82.9941 -184.989 -216.986 -339.979q-7 -1 -15.999 -1q-24.998 0 -65.9961 9.99902q-51.9971 12 -77.9951 31.998 q65.9961 89.9951 112.993 204.988q46.9971 114.992 46.9971 196.987t-36.998 136.992q-37.9971 55.9961 -142.991 62.9961q-1 17.999 -1 38.9971q0 39.998 5 94.9941q7 72.9961 28.998 119.993q170.99 27.998 306.981 118.993zM512.061 2925.12 q62.9961 -38.9971 101.994 -114.992q36.9971 -72.9961 36.9971 -195.988q0 -181.989 -81.9951 -354.979q-80.9951 -171.989 -212.986 -328.98q-10 -0.999023 -19.999 -0.999023q-28.998 0 -63.9961 8.99902q-47.9971 11.999 -75.9951 32.998 q62.9961 91.9941 110.993 199.987q48.9971 109.994 48.9971 192.988q0 80.9951 -40.998 136.992q-39.9971 54.9961 -146.991 62.9961q-0.999023 17.999 -0.999023 37.9971q0 38.998 4.99902 88.9951q8 71.9951 27.998 114.993q84.9951 15.999 167.99 44.9971 q80.9951 27.998 143.991 73.9951z" />
<glyph unicode="&#x201e;" horiz-adv-x="1585" d="M1118.02 405.117q59.9961 -38.998 99.9941 -114.993q38.9971 -73.9961 38.9971 -195.988q0 -181.989 -81.9951 -364.978q-82.9941 -184.989 -216.986 -339.979q-7 -1 -15.999 -1q-24.998 0 -65.9961 9.99902q-51.9971 12 -77.9951 31.998 q65.9961 89.9951 112.993 204.988q46.9971 114.992 46.9971 196.987t-36.998 136.992q-37.9971 55.9961 -142.991 62.9961q-1 17.999 -1 38.9971q0 39.998 5 94.9941q7 72.9961 28.998 119.993q170.99 27.998 306.981 118.993zM512.061 393.117 q62.9961 -38.9971 101.994 -114.992q36.9971 -72.9961 36.9971 -195.988q0 -181.989 -81.9951 -354.979q-80.9951 -171.989 -212.986 -328.98q-10 -0.999023 -19.999 -0.999023q-28.998 0 -63.9961 8.99902q-47.9971 11.999 -75.9951 32.998 q62.9961 91.9941 110.993 199.987q48.9971 109.994 48.9971 192.988q0 80.9951 -40.998 136.992q-39.9971 54.9961 -146.991 62.9961q-0.999023 17.999 -0.999023 37.9971q0 38.998 4.99902 88.9951q8 71.9951 27.998 114.993q84.9951 15.999 167.99 44.9971 q80.9951 27.998 143.991 73.9951z" />
<glyph unicode="&#x2022;" horiz-adv-x="1384" d="M700 1651q105 0 189 -35q80 -33 137 -92q56 -57 84 -133q29 -78 29 -158q0 -192 -115 -318q-114 -124 -324 -124q-121 0 -202 36q-85 38 -142 101t-84 143q-26 77 -26 166q0 180 125 297t329 117z" />
<glyph unicode="&#x2026;" horiz-adv-x="3522" d="M496 418q106 0 166 -72q59 -71 59 -141q0 -123 -74 -180q-75 -58 -168 -58q-110 0 -172 62q-61 61 -61 155q0 95 69 164q70 70 181 70zM1807 418q106 0 166 -72q59 -71 59 -141q0 -123 -74 -180q-75 -58 -168 -58q-110 0 -172 62q-61 61 -61 155q0 95 69 164 q70 70 181 70zM3052 418q106 0 166 -72q59 -71 59 -141q0 -123 -74 -180q-75 -58 -168 -58q-110 0 -172 62q-61 61 -61 155q0 95 69 164q70 70 181 70z" />
<glyph unicode="&#x202f;" horiz-adv-x="765" />
<glyph unicode="&#x2039;" horiz-adv-x="1228" d="M852 1712q86 -8 139 -61q-43 -48 -104 -125l-117 -156q-61 -85 -104 -153q-53 -84 -72 -123l82 -146l96 -162l105 -161l98 -146q0 -45 -21 -82q-19 -35 -45 -57l-360 354q-177 171 -328 289q0 62 25 139q165 137 319 291z" />
<glyph unicode="&#x203a;" horiz-adv-x="1236" d="M365 356q-66 41 -95 119q107 137 197 264q80 113 188 281l-94 139l-112 168l-121 170l-115 158q69 57 152 57q127 -125 299 -276l315 -269q15 -30 20 -63t5 -68l-326 -338z" />
<glyph unicode="&#x2044;" horiz-adv-x="2531" d="M299 -33q-58 21 -100 49q-41 27 -64 58l2097 2851q42 -11 90 -43q44 -29 74 -64z" />
<glyph unicode="&#x205f;" horiz-adv-x="958" />
<glyph unicode="&#x20ac;" horiz-adv-x="3055" d="M2011 1667q0 -58 -8 -117q-7 -53 -37 -100h-410q-210 0 -389 -4q-162 0 -303 -4q4 -141 29 -275h1118q0 -57 -8 -116q-7 -54 -37 -101h-410q-210 0 -389 -4q-114 0 -213 -4q67 -195 185 -352q137 -178 329 -277q194 -100 441 -100q195 0 401 66q207 66 377 176 q25 -22 47 -60q23 -39 27 -67q-123 -94 -240 -162q-119 -69 -240 -113t-256 -67q-136 -23 -288 -23q-287 0 -527 105t-411 294t-271 457q-15 41 -36 119h-308q0 52 13 123q12 68 32 106h217q-12 114 -12 238v33h-250q0 52 13 123q12 68 32 106h222q28 192 98 352 q119 264 309 439q193 177 436 262q247 86 508 86q255 0 469 -53q207 -51 441 -160q-33 -144 -39 -303q-7 -186 -7 -332q-55 -22 -102 -29q-53 -8 -115 -8q-7 215 -53 356q-45 140 -125 220t-190 110q-115 31 -246 31q-258 0 -442 -94t-301 -252t-174 -363q-34 -132 -50 -262 h1143z" />
<glyph unicode="&#x2122;" horiz-adv-x="6225" d="M3060 2769q152 0 311 12l1024 -2265l893 2265q80 -9 153 -10q112 -2 166 -2q58 0 156 2q59 1 156 10q0 -40 -5 -88q-5 -46 -16 -88q-74 0 -131 -18q-55 -17 -94 -66q-35 -44 -51 -127q-8 -41 -8 -96q0 -48 6 -107l147 -1503q17 -155 37 -250q21 -99 55 -155 q35 -57 84 -84q48 -26 123 -31q11 -42 16 -92q4 -41 4 -88q-50 5 -110 6l-127 4q-88 2 -135 2h-119q-64 0 -252 -2q-125 -1 -248 -10q0 36 6 86q5 44 19 90q93 7 155 33q58 25 82 75q25 53 25 140q0 88 -12 223l-148 1405l-848 -2048q-70 -29 -168 -29l-954 2073l-131 -1315 q-12 -116 -12 -205q0 -33 2 -63q6 -102 37 -166q30 -61 90 -88q62 -28 149 -35q13 -48 17 -96q4 -45 4 -80q-115 9 -224 10q-166 2 -215 2q-50 0 -208 -2q-106 -1 -201 -10q0 35 4 80q5 54 16 96q78 7 138 33q54 23 92 86q37 60 61 176q25 118 41 299l131 1458q5 55 5 102 q0 140 -46 203q-62 84 -233 84q-13 43 -17 90q-4 44 -4 86q71 -9 148 -10q114 -2 164 -2zM1020 2609h-209q-162 0 -252 -37q-95 -39 -145 -102q-55 -69 -78 -152q-24 -84 -45 -188q-42 0 -98 8q-53 8 -91 29q34 148 50 307t16 307q199 -9 453 -10q374 -2 591 -2h308 q106 0 288 2q50 1 135.5 2.5t118.5 1.5q118 2 203 6q0 -264 25 -614q-46 -22 -97 -29q-54 -8 -100 -8q-7 220 -121 350q-112 129 -370 129h-197v-2089q0 -102 12 -170q12 -66 47 -106t99 -58q61 -17 161 -22q21 -57 21 -176q-152 9 -268 10q-182 2 -269 2q-82 0 -276 -2 q-128 -1 -260 -10q0 122 20 176q101 5 162 22t100 58q37 38 52 106q14 63 14 170v2089z" />
<glyph horiz-adv-x="1171" d="M418 2388q0 167 -62 227t-250 60q0 28 7 86q6 52 26 90q156 22 291 55t250 80q45 -16 63 -51q19 -36 19 -129v-1061q0 -137 14 -215q15 -85 45 -131q31 -48 78 -66q45 -17 109 -22q8 -33 12 -78q4 -40 4 -94q-30 3 -174 8q-115 4 -272 4q-169 0 -269 -4q-147 -6 -178 -8 q0 108 16 172q70 5 117 20q52 17 86 60q35 44 51 120q17 80 17 205v672z" />
<glyph horiz-adv-x="1576" d="M795 2966q210 0 319 4t180 4q54 -63 54 -148l-248 -264l-273 -297q105 0 213 -29t193 -90q88 -63 139 -157q53 -97 53 -228q0 -149 -59 -268q-60 -121 -164 -203t-252 -127q-147 -45 -323 -45q-198 0 -314 49q-115 49 -161 90q-1 9 -1 17q0 33 13 67q16 43 45 76 q47 -31 145 -65q96 -33 240 -33q192 0 317 86t125 270q0 74 -30 131t-84 97q-50 37 -119 59q-63 20 -135 20q-41 0 -70 -4q-35 -5 -66 -16q-27 23 -51 72q-21 43 -26 75l268 299l235 271h-307q-101 0 -162 -56q-59 -55 -116 -206q-48 0 -94 14q-52 16 -82 35q25 109 32 254 q5 106 5 181q0 40 -1 73q83 -5 226 -6q192 -2 336 -2z" />
<glyph horiz-adv-x="1736" d="M1270 782h192q93 0 131 -41q-30 -60 -47 -114q-19 -59 -26 -140h-250v-32q0 -97 10 -150q10 -55 35 -84q25 -30 63 -37t97 -12q8 -26 14 -82q6 -57 6 -102q-20 0 -88 2q-53 2 -109 6l-114 4h-217l-123 -4q-61 -4 -113 -6q-68 -2 -80 -2q0 51 4 104q4 55 13 80 q76 5 120 14q50 10 84 41q32 29 48 84q14 49 14 144v28q-116 -4 -238 -4q-173 -5 -264 -10q-97 -5 -203 -14q-73 82 -73 200l219 275l237 305l238 319l223 318q107 0 197 -45v-1045zM934 782v602l-442 -602h442z" />
<glyph horiz-adv-x="1646" d="M807 1839q118 0 223 -24q101 -23 184 -78q81 -54 127 -135q48 -85 48 -197q0 -171 -95 -311q-94 -139 -250 -283q-141 -132 -237 -233l-238 -259h504q98 0 158 39q59 38 59 150q50 4 96 0t84 -21q-1 -37 -1 -76q0 -68 4 -151q6 -119 26 -199q-20 -36 -65 -51 q-42 -14 -140 -14q-7 0 -159 2t-222 2q-128 0 -354 -2t-350 -2q-22 22 -29 53q-8 35 -8 66l139 155l135 148l373 385q111 119 162 241q51 123 51 295q0 145 -71 244q-72 100 -228 100q-143 0 -205 -90t-90 -282q-119 0 -200 28q12 83 12 170q0 85 -17 199q251 131 574 131z " />
</font>
</defs>
</svg>
